M48
; DRILL file {KiCad 7.0.7} date Mon Mar 18 21:13:53 2024
; FORMAT={-:-/ absolute / inch / decimal}
; #@! TF.CreationDate,2024-03-18T21:13:53-04:00
; #@! TF.GenerationSoftware,Kicad,Pcbnew,7.0.7
; #@! TF.FileFunction,Plated,1,2,PTH
FMAT,2
INCH
; #@! TA.AperFunction,Plated,PTH,ComponentDrill
T1C0.0315
; #@! TA.AperFunction,Plated,PTH,ComponentDrill
T2C0.0394
; #@! TA.AperFunction,Plated,PTH,ComponentDrill
T3C0.0469
; #@! TA.AperFunction,Plated,PTH,ComponentDrill
T4C0.0472
; #@! TA.AperFunction,Plated,PTH,ComponentDrill
T5C0.0550
; #@! TA.AperFunction,Plated,PTH,ComponentDrill
T6C0.0638
; #@! TA.AperFunction,Plated,PTH,ComponentDrill
T7C0.0669
%
G90
G05
T1
X3.34Y-4.14
X3.64Y-4.14
T2
X3.44Y-3.95
X3.54Y-3.95
X3.9137Y-3.4609
X4.0551Y-3.3195
X4.0551Y-3.6024
X4.1965Y-3.4609
T3
X3.8549Y-4.0152
X3.9549Y-4.0152
X4.0549Y-4.0152
X4.1549Y-4.0152
X4.2549Y-4.0152
T4
X3.4576Y-3.4646
X3.6545Y-3.4646
X4.4488Y-3.4646
X4.6457Y-3.4646
T5
X3.7597Y-3.84
X3.8582Y-3.7415
X4.0549Y-3.8399
X4.2516Y-3.7415
X4.3501Y-3.84
T6
X3.1614Y-1.4252
X3.1614Y-3.0236
X3.4606Y-1.4252
X3.4606Y-3.0236
X3.8622Y-1.4252
X3.8622Y-3.0236
X4.1614Y-1.4252
X4.1614Y-3.0236
T7
X2.7567Y-3.2813
X2.7567Y-3.6656
X2.9126Y-3.2813
X2.9126Y-3.6656
T0
M30
