%TF.GenerationSoftware,KiCad,Pcbnew,7.0.7*%
%TF.CreationDate,2024-03-18T21:13:49-04:00*%
%TF.ProjectId,M1PSX3,4d315053-5833-42e6-9b69-6361645f7063,rev?*%
%TF.SameCoordinates,Original*%
%TF.FileFunction,Copper,L1,Top*%
%TF.FilePolarity,Positive*%
%FSLAX46Y46*%
G04 Gerber Fmt 4.6, Leading zero omitted, Abs format (unit mm)*
G04 Created by KiCad (PCBNEW 7.0.7) date 2024-03-18 21:13:49*
%MOMM*%
%LPD*%
G01*
G04 APERTURE LIST*
G04 Aperture macros list*
%AMRoundRect*
0 Rectangle with rounded corners*
0 $1 Rounding radius*
0 $2 $3 $4 $5 $6 $7 $8 $9 X,Y pos of 4 corners*
0 Add a 4 corners polygon primitive as box body*
4,1,4,$2,$3,$4,$5,$6,$7,$8,$9,$2,$3,0*
0 Add four circle primitives for the rounded corners*
1,1,$1+$1,$2,$3*
1,1,$1+$1,$4,$5*
1,1,$1+$1,$6,$7*
1,1,$1+$1,$8,$9*
0 Add four rect primitives between the rounded corners*
20,1,$1+$1,$2,$3,$4,$5,0*
20,1,$1+$1,$4,$5,$6,$7,0*
20,1,$1+$1,$6,$7,$8,$9,0*
20,1,$1+$1,$8,$9,$2,$3,0*%
%AMHorizOval*
0 Thick line with rounded ends*
0 $1 width*
0 $2 $3 position (X,Y) of the first rounded end (center of the circle)*
0 $4 $5 position (X,Y) of the second rounded end (center of the circle)*
0 Add line between two ends*
20,1,$1,$2,$3,$4,$5,0*
0 Add two circle primitives to create the rounded ends*
1,1,$1,$2,$3*
1,1,$1,$4,$5*%
%AMRotRect*
0 Rectangle, with rotation*
0 The origin of the aperture is its center*
0 $1 length*
0 $2 width*
0 $3 Rotation angle, in degrees counterclockwise*
0 Add horizontal line*
21,1,$1,$2,0,0,$3*%
G04 Aperture macros list end*
%TA.AperFunction,ComponentPad*%
%ADD10R,1.700000X1.700000*%
%TD*%
%TA.AperFunction,ComponentPad*%
%ADD11O,1.700000X1.700000*%
%TD*%
%TA.AperFunction,WasherPad*%
%ADD12C,2.499360*%
%TD*%
%TA.AperFunction,ComponentPad*%
%ADD13C,2.499360*%
%TD*%
%TA.AperFunction,ComponentPad*%
%ADD14R,2.400000X2.400000*%
%TD*%
%TA.AperFunction,ComponentPad*%
%ADD15C,2.400000*%
%TD*%
%TA.AperFunction,ComponentPad*%
%ADD16RoundRect,0.250000X-1.330000X-1.800000X1.330000X-1.800000X1.330000X1.800000X-1.330000X1.800000X0*%
%TD*%
%TA.AperFunction,ComponentPad*%
%ADD17O,3.160000X4.100000*%
%TD*%
%TA.AperFunction,ComponentPad*%
%ADD18RoundRect,0.250000X1.330000X1.800000X-1.330000X1.800000X-1.330000X-1.800000X1.330000X-1.800000X0*%
%TD*%
%TA.AperFunction,ComponentPad*%
%ADD19RotRect,2.000000X2.000000X135.000000*%
%TD*%
%TA.AperFunction,ComponentPad*%
%ADD20HorizOval,2.000000X0.000000X0.000000X0.000000X0.000000X0*%
%TD*%
%TA.AperFunction,ComponentPad*%
%ADD21C,1.600000*%
%TD*%
%TA.AperFunction,ComponentPad*%
%ADD22O,1.600000X1.600000*%
%TD*%
%TA.AperFunction,ComponentPad*%
%ADD23R,2.430000X2.430000*%
%TD*%
%TA.AperFunction,ComponentPad*%
%ADD24C,2.430000*%
%TD*%
%TA.AperFunction,ComponentPad*%
%ADD25RoundRect,0.250000X-0.620000X-0.845000X0.620000X-0.845000X0.620000X0.845000X-0.620000X0.845000X0*%
%TD*%
%TA.AperFunction,ComponentPad*%
%ADD26O,1.740000X2.190000*%
%TD*%
G04 APERTURE END LIST*
D10*
%TO.P,LED1,1,Pin_1*%
%TO.N,GND*%
X89916000Y-100330000D03*
D11*
%TO.P,LED1,2,Pin_2*%
%TO.N,Net-(LED1-Pin_2)*%
X87376000Y-100330000D03*
%TD*%
D12*
%TO.P,J3,*%
%TO.N,*%
X97992480Y-107531090D03*
X107995000Y-107531090D03*
D13*
%TO.P,J3,1,Pin_1*%
%TO.N,Net-(J2-Pin_5)*%
X110491820Y-97536190D03*
%TO.P,J3,2,Pin_2*%
%TO.N,Net-(D1-+)*%
X102993740Y-97533650D03*
%TO.P,J3,3,Pin_3*%
%TO.N,Net-(J2-Pin_1)*%
X95495660Y-97536190D03*
%TO.P,J3,4,Pin_4*%
%TO.N,GND*%
X107989920Y-95034290D03*
%TO.P,J3,5,Pin_5*%
X97997560Y-95034290D03*
%TD*%
D14*
%TO.P,C1,1*%
%TO.N,Net-(C1-Pad1)*%
X92823959Y-88000000D03*
D15*
%TO.P,C1,2*%
%TO.N,Net-(J2-Pin_1)*%
X87823959Y-88000000D03*
%TD*%
D16*
%TO.P,J1,1,Pin_1*%
%TO.N,Net-(J1-Pin_1)*%
X70020000Y-93105000D03*
D17*
%TO.P,J1,2,Pin_2*%
%TO.N,Net-(J1-Pin_2)*%
X73980000Y-93105000D03*
%TD*%
D18*
%TO.P,J4,1,Pin_1*%
%TO.N,Net-(J1-Pin_2)*%
X73980000Y-83345000D03*
D17*
%TO.P,J4,2,Pin_2*%
%TO.N,Net-(J1-Pin_1)*%
X70020000Y-83345000D03*
%TD*%
D19*
%TO.P,D1,1,+*%
%TO.N,Net-(D1-+)*%
X103000000Y-91500000D03*
D20*
%TO.P,D1,2*%
%TO.N,Net-(C2-Pad1)*%
X106592102Y-87907898D03*
%TO.P,D1,3,-*%
%TO.N,GND*%
X103000000Y-84315795D03*
%TO.P,D1,4*%
%TO.N,Net-(C1-Pad1)*%
X99407898Y-87907898D03*
%TD*%
D21*
%TO.P,R1,1*%
%TO.N,Net-(D1-+)*%
X92456000Y-105156000D03*
D22*
%TO.P,R1,2*%
%TO.N,Net-(LED1-Pin_2)*%
X84836000Y-105156000D03*
%TD*%
D14*
%TO.P,C2,1*%
%TO.N,Net-(C2-Pad1)*%
X113000000Y-88000000D03*
D15*
%TO.P,C2,2*%
%TO.N,Net-(J2-Pin_5)*%
X118000000Y-88000000D03*
%TD*%
D23*
%TO.P,T1,1*%
%TO.N,Net-(J1-Pin_2)*%
X105700000Y-36200000D03*
D24*
%TO.P,T1,2*%
%TO.N,Net-(J1-Pin_1)*%
X98100000Y-36200000D03*
%TO.P,T1,3*%
%TO.N,Net-(J1-Pin_2)*%
X87900000Y-36200000D03*
%TO.P,T1,4*%
%TO.N,Net-(J1-Pin_1)*%
X80300000Y-36200000D03*
%TO.P,T1,5*%
%TO.N,Net-(J2-Pin_5)*%
X105700000Y-76800000D03*
%TO.P,T1,6*%
%TO.N,GND*%
X98100000Y-76800000D03*
%TO.P,T1,7*%
X87900000Y-76800000D03*
%TO.P,T1,8*%
%TO.N,Net-(J2-Pin_1)*%
X80300000Y-76800000D03*
%TD*%
D25*
%TO.P,J2,1,Pin_1*%
%TO.N,Net-(J2-Pin_1)*%
X97913755Y-101985000D03*
D26*
%TO.P,J2,2,Pin_2*%
%TO.N,GND*%
X100453755Y-101985000D03*
%TO.P,J2,3,Pin_3*%
%TO.N,Net-(D1-+)*%
X102993755Y-101985000D03*
%TO.P,J2,4,Pin_4*%
%TO.N,GND*%
X105533755Y-101985000D03*
%TO.P,J2,5,Pin_5*%
%TO.N,Net-(J2-Pin_5)*%
X108073755Y-101985000D03*
%TD*%
%TA.AperFunction,Conductor*%
%TO.N,GND*%
G36*
X92689549Y-73519685D02*
G01*
X92735304Y-73572489D01*
X92745248Y-73641647D01*
X92716223Y-73705203D01*
X92657445Y-73742977D01*
X92649472Y-73745033D01*
X92469062Y-73785221D01*
X92469057Y-73785223D01*
X92217759Y-73881336D01*
X91983139Y-74013011D01*
X91983136Y-74013013D01*
X91770186Y-74177447D01*
X91770179Y-74177454D01*
X91583456Y-74371126D01*
X91583445Y-74371139D01*
X91426905Y-74589942D01*
X91426898Y-74589954D01*
X91303881Y-74829221D01*
X91303880Y-74829223D01*
X91217009Y-75083863D01*
X91217008Y-75083869D01*
X91168139Y-75348440D01*
X91168139Y-75348442D01*
X91158313Y-75617305D01*
X91187739Y-75884736D01*
X91187741Y-75884747D01*
X91235022Y-76065598D01*
X91255791Y-76145041D01*
X91309223Y-76270778D01*
X91344979Y-76354920D01*
X91361017Y-76392659D01*
X91432657Y-76510045D01*
X91501172Y-76622313D01*
X91501173Y-76622314D01*
X91501175Y-76622317D01*
X91673278Y-76829120D01*
X91873658Y-77008662D01*
X92098044Y-77157114D01*
X92341653Y-77271313D01*
X92341655Y-77271313D01*
X92341656Y-77271314D01*
X92341663Y-77271316D01*
X92599282Y-77348823D01*
X92599289Y-77348824D01*
X92599294Y-77348826D01*
X92865476Y-77388000D01*
X92865481Y-77388000D01*
X93067174Y-77388000D01*
X93125583Y-77383724D01*
X93268331Y-77373277D01*
X93530942Y-77314777D01*
X93782238Y-77218665D01*
X94016862Y-77086988D01*
X94229813Y-76922553D01*
X94347965Y-76800004D01*
X96380191Y-76800004D01*
X96399399Y-77056322D01*
X96399399Y-77056324D01*
X96456593Y-77306909D01*
X96456599Y-77306928D01*
X96550503Y-77546191D01*
X96550507Y-77546199D01*
X96679026Y-77768802D01*
X96722778Y-77823667D01*
X97266137Y-77280308D01*
X97327460Y-77246823D01*
X97397151Y-77251807D01*
X97453085Y-77293678D01*
X97458814Y-77302021D01*
X97462708Y-77308220D01*
X97462710Y-77308222D01*
X97591778Y-77437290D01*
X97597982Y-77441188D01*
X97644272Y-77493524D01*
X97654919Y-77562578D01*
X97626543Y-77626425D01*
X97619689Y-77633862D01*
X97076018Y-78177532D01*
X97240095Y-78289397D01*
X97240099Y-78289399D01*
X97471677Y-78400922D01*
X97471681Y-78400923D01*
X97717304Y-78476689D01*
X97717310Y-78476691D01*
X97971471Y-78514999D01*
X97971480Y-78515000D01*
X98228520Y-78515000D01*
X98228528Y-78514999D01*
X98482689Y-78476691D01*
X98482695Y-78476689D01*
X98728320Y-78400923D01*
X98959896Y-78289402D01*
X98959898Y-78289401D01*
X99123980Y-78177532D01*
X98580309Y-77633862D01*
X98546824Y-77572539D01*
X98551808Y-77502848D01*
X98593679Y-77446914D01*
X98602018Y-77441188D01*
X98608222Y-77437290D01*
X98737290Y-77308222D01*
X98741185Y-77302023D01*
X98793516Y-77255730D01*
X98862568Y-77245078D01*
X98926418Y-77273449D01*
X98933862Y-77280309D01*
X99477219Y-77823667D01*
X99477220Y-77823666D01*
X99520966Y-77768812D01*
X99520973Y-77768801D01*
X99649492Y-77546199D01*
X99649496Y-77546191D01*
X99743400Y-77306928D01*
X99743406Y-77306909D01*
X99800600Y-77056324D01*
X99800600Y-77056322D01*
X99819809Y-76800004D01*
X99819809Y-76800001D01*
X103844773Y-76800001D01*
X103863657Y-77064027D01*
X103863658Y-77064034D01*
X103919921Y-77322673D01*
X104012426Y-77570690D01*
X104012428Y-77570694D01*
X104139280Y-77803005D01*
X104139285Y-77803013D01*
X104297906Y-78014907D01*
X104297922Y-78014925D01*
X104485074Y-78202077D01*
X104485092Y-78202093D01*
X104696986Y-78360714D01*
X104696994Y-78360719D01*
X104929305Y-78487571D01*
X104929309Y-78487573D01*
X104929311Y-78487574D01*
X105177322Y-78580077D01*
X105177325Y-78580077D01*
X105177326Y-78580078D01*
X105372552Y-78622546D01*
X105435974Y-78636343D01*
X105679660Y-78653772D01*
X105699999Y-78655227D01*
X105700000Y-78655227D01*
X105700001Y-78655227D01*
X105718884Y-78653876D01*
X105964026Y-78636343D01*
X106222678Y-78580077D01*
X106470689Y-78487574D01*
X106703011Y-78360716D01*
X106914915Y-78202087D01*
X107102087Y-78014915D01*
X107260716Y-77803011D01*
X107387574Y-77570689D01*
X107480077Y-77322678D01*
X107536343Y-77064026D01*
X107555227Y-76800000D01*
X107536343Y-76535974D01*
X107495493Y-76348190D01*
X107480078Y-76277326D01*
X107437327Y-76162706D01*
X107387574Y-76029311D01*
X107386563Y-76027460D01*
X107260719Y-75796994D01*
X107260714Y-75796986D01*
X107102093Y-75585092D01*
X107102077Y-75585074D01*
X106914925Y-75397922D01*
X106914907Y-75397906D01*
X106703013Y-75239285D01*
X106703005Y-75239280D01*
X106470694Y-75112428D01*
X106470690Y-75112426D01*
X106222673Y-75019921D01*
X105964034Y-74963658D01*
X105964027Y-74963657D01*
X105700001Y-74944773D01*
X105699999Y-74944773D01*
X105435972Y-74963657D01*
X105435965Y-74963658D01*
X105177326Y-75019921D01*
X104929309Y-75112426D01*
X104929305Y-75112428D01*
X104696994Y-75239280D01*
X104696986Y-75239285D01*
X104485092Y-75397906D01*
X104485074Y-75397922D01*
X104297922Y-75585074D01*
X104297906Y-75585092D01*
X104139285Y-75796986D01*
X104139280Y-75796994D01*
X104012428Y-76029305D01*
X104012426Y-76029309D01*
X103919921Y-76277326D01*
X103863658Y-76535965D01*
X103863657Y-76535972D01*
X103844773Y-76799998D01*
X103844773Y-76800001D01*
X99819809Y-76800001D01*
X99819809Y-76799995D01*
X99800600Y-76543677D01*
X99800600Y-76543675D01*
X99743406Y-76293090D01*
X99743400Y-76293071D01*
X99649496Y-76053808D01*
X99649492Y-76053800D01*
X99520970Y-75831193D01*
X99477220Y-75776331D01*
X99477219Y-75776331D01*
X98933862Y-76319689D01*
X98872539Y-76353174D01*
X98802847Y-76348190D01*
X98746914Y-76306318D01*
X98741188Y-76297982D01*
X98738102Y-76293071D01*
X98737290Y-76291778D01*
X98608222Y-76162710D01*
X98602017Y-76158811D01*
X98555727Y-76106477D01*
X98545079Y-76037423D01*
X98573454Y-75973575D01*
X98580309Y-75966137D01*
X99123980Y-75422466D01*
X98959905Y-75310602D01*
X98959896Y-75310597D01*
X98728319Y-75199076D01*
X98728321Y-75199076D01*
X98482695Y-75123310D01*
X98482689Y-75123308D01*
X98228528Y-75085000D01*
X97971471Y-75085000D01*
X97717310Y-75123308D01*
X97717304Y-75123310D01*
X97471681Y-75199076D01*
X97471677Y-75199077D01*
X97240096Y-75310601D01*
X97240088Y-75310606D01*
X97076018Y-75422465D01*
X97619690Y-75966137D01*
X97653175Y-76027460D01*
X97648191Y-76097152D01*
X97606319Y-76153085D01*
X97597985Y-76158809D01*
X97591782Y-76162706D01*
X97591777Y-76162710D01*
X97462710Y-76291777D01*
X97462706Y-76291782D01*
X97458809Y-76297985D01*
X97406473Y-76344274D01*
X97337419Y-76354920D01*
X97273571Y-76326542D01*
X97266137Y-76319690D01*
X96722779Y-75776332D01*
X96679023Y-75831201D01*
X96550507Y-76053800D01*
X96550503Y-76053808D01*
X96456599Y-76293071D01*
X96456593Y-76293090D01*
X96399399Y-76543675D01*
X96399399Y-76543677D01*
X96380191Y-76799995D01*
X96380191Y-76800004D01*
X94347965Y-76800004D01*
X94416552Y-76728864D01*
X94573100Y-76510049D01*
X94696121Y-76270773D01*
X94782991Y-76016135D01*
X94831860Y-75751562D01*
X94841686Y-75482693D01*
X94812260Y-75215259D01*
X94744209Y-74954959D01*
X94638983Y-74707341D01*
X94498825Y-74477683D01*
X94326722Y-74270880D01*
X94126342Y-74091338D01*
X93901956Y-73942886D01*
X93658347Y-73828687D01*
X93658343Y-73828685D01*
X93658336Y-73828683D01*
X93400717Y-73751176D01*
X93400703Y-73751173D01*
X93376960Y-73747679D01*
X93370161Y-73746678D01*
X93306703Y-73717443D01*
X93269124Y-73658540D01*
X93269355Y-73588670D01*
X93307325Y-73530018D01*
X93370976Y-73501204D01*
X93388216Y-73500000D01*
X122875500Y-73500000D01*
X122942539Y-73519685D01*
X122988294Y-73572489D01*
X122999500Y-73624000D01*
X122999500Y-99875500D01*
X122979815Y-99942539D01*
X122927011Y-99988294D01*
X122875500Y-99999500D01*
X120024760Y-99999500D01*
X120024554Y-99999459D01*
X120000000Y-99999459D01*
X119999901Y-99999500D01*
X119999617Y-99999616D01*
X119999615Y-99999618D01*
X119999459Y-99999999D01*
X119999476Y-100024616D01*
X119999471Y-100024616D01*
X119999500Y-100024759D01*
X119999500Y-105875500D01*
X119979815Y-105942539D01*
X119927011Y-105988294D01*
X119875500Y-105999500D01*
X113524760Y-105999500D01*
X113524554Y-105999459D01*
X113500000Y-105999459D01*
X113499901Y-105999500D01*
X113499617Y-105999616D01*
X113499615Y-105999618D01*
X113499459Y-105999999D01*
X113499476Y-106024616D01*
X113499471Y-106024616D01*
X113499499Y-106024759D01*
X113499500Y-108875500D01*
X113479815Y-108942539D01*
X113427012Y-108988294D01*
X113375500Y-108999500D01*
X109492000Y-108999500D01*
X109424961Y-108979815D01*
X109379206Y-108927011D01*
X109369262Y-108857853D01*
X109398287Y-108794297D01*
X109404319Y-108787819D01*
X109423353Y-108768784D01*
X109423363Y-108768774D01*
X109584965Y-108552898D01*
X109714200Y-108316222D01*
X109808437Y-108063563D01*
X109865758Y-107800064D01*
X109884995Y-107531090D01*
X109865758Y-107262116D01*
X109808437Y-106998617D01*
X109714200Y-106745958D01*
X109629859Y-106591500D01*
X109584968Y-106509287D01*
X109584963Y-106509279D01*
X109423369Y-106293413D01*
X109423353Y-106293395D01*
X109232694Y-106102736D01*
X109232676Y-106102720D01*
X109016810Y-105941126D01*
X109016802Y-105941121D01*
X108780137Y-105811892D01*
X108780133Y-105811890D01*
X108684345Y-105776163D01*
X108527473Y-105717653D01*
X108527469Y-105717652D01*
X108527466Y-105717651D01*
X108263979Y-105660332D01*
X107995001Y-105641095D01*
X107994999Y-105641095D01*
X107726020Y-105660332D01*
X107462533Y-105717651D01*
X107462528Y-105717652D01*
X107462527Y-105717653D01*
X107401440Y-105740437D01*
X107209866Y-105811890D01*
X107209862Y-105811892D01*
X106973197Y-105941121D01*
X106973189Y-105941126D01*
X106757323Y-106102720D01*
X106757305Y-106102736D01*
X106566646Y-106293395D01*
X106566630Y-106293413D01*
X106405036Y-106509279D01*
X106405031Y-106509287D01*
X106275802Y-106745952D01*
X106275800Y-106745956D01*
X106181561Y-106998623D01*
X106124242Y-107262110D01*
X106105004Y-107531088D01*
X106105004Y-107531091D01*
X106124242Y-107800069D01*
X106181561Y-108063556D01*
X106181563Y-108063563D01*
X106240073Y-108220435D01*
X106275800Y-108316223D01*
X106275802Y-108316227D01*
X106405031Y-108552892D01*
X106405036Y-108552900D01*
X106566630Y-108768766D01*
X106566646Y-108768784D01*
X106585681Y-108787819D01*
X106619166Y-108849142D01*
X106614182Y-108918834D01*
X106572310Y-108974767D01*
X106506846Y-108999184D01*
X106498000Y-108999500D01*
X99489480Y-108999500D01*
X99422441Y-108979815D01*
X99376686Y-108927011D01*
X99366742Y-108857853D01*
X99395767Y-108794297D01*
X99401799Y-108787819D01*
X99420833Y-108768784D01*
X99420843Y-108768774D01*
X99582445Y-108552898D01*
X99711680Y-108316222D01*
X99805917Y-108063563D01*
X99863238Y-107800064D01*
X99882475Y-107531090D01*
X99863238Y-107262116D01*
X99805917Y-106998617D01*
X99711680Y-106745958D01*
X99627339Y-106591500D01*
X99582448Y-106509287D01*
X99582443Y-106509279D01*
X99420849Y-106293413D01*
X99420833Y-106293395D01*
X99230174Y-106102736D01*
X99230156Y-106102720D01*
X99014290Y-105941126D01*
X99014282Y-105941121D01*
X98777617Y-105811892D01*
X98777613Y-105811890D01*
X98681825Y-105776163D01*
X98524953Y-105717653D01*
X98524949Y-105717652D01*
X98524946Y-105717651D01*
X98261459Y-105660332D01*
X97992481Y-105641095D01*
X97992479Y-105641095D01*
X97723500Y-105660332D01*
X97460013Y-105717651D01*
X97460008Y-105717652D01*
X97460007Y-105717653D01*
X97398920Y-105740437D01*
X97207346Y-105811890D01*
X97207342Y-105811892D01*
X96970677Y-105941121D01*
X96970669Y-105941126D01*
X96754803Y-106102720D01*
X96754785Y-106102736D01*
X96564126Y-106293395D01*
X96564110Y-106293413D01*
X96402516Y-106509279D01*
X96402511Y-106509287D01*
X96273282Y-106745952D01*
X96273280Y-106745956D01*
X96179041Y-106998623D01*
X96121722Y-107262110D01*
X96102485Y-107531088D01*
X96102485Y-107531091D01*
X96121722Y-107800069D01*
X96179041Y-108063556D01*
X96179043Y-108063563D01*
X96237553Y-108220435D01*
X96273280Y-108316223D01*
X96273282Y-108316227D01*
X96402511Y-108552892D01*
X96402516Y-108552900D01*
X96564110Y-108768766D01*
X96564126Y-108768784D01*
X96583161Y-108787819D01*
X96616646Y-108849142D01*
X96611662Y-108918834D01*
X96569790Y-108974767D01*
X96504326Y-108999184D01*
X96495480Y-108999500D01*
X83124000Y-108999500D01*
X83056961Y-108979815D01*
X83011206Y-108927011D01*
X83000000Y-108875500D01*
X83000000Y-105156006D01*
X83395580Y-105156006D01*
X83415223Y-105393077D01*
X83415225Y-105393088D01*
X83473625Y-105623702D01*
X83569188Y-105841565D01*
X83699304Y-106040721D01*
X83699306Y-106040724D01*
X83756377Y-106102720D01*
X83860432Y-106215753D01*
X83860436Y-106215756D01*
X84048156Y-106361865D01*
X84048162Y-106361869D01*
X84048165Y-106361871D01*
X84257390Y-106475098D01*
X84482398Y-106552344D01*
X84717051Y-106591500D01*
X84954949Y-106591500D01*
X85189602Y-106552344D01*
X85414610Y-106475098D01*
X85623835Y-106361871D01*
X85811570Y-106215751D01*
X85972694Y-106040724D01*
X86102812Y-105841564D01*
X86198374Y-105623704D01*
X86256775Y-105393085D01*
X86276420Y-105156006D01*
X91015580Y-105156006D01*
X91035223Y-105393077D01*
X91035225Y-105393088D01*
X91093625Y-105623702D01*
X91189188Y-105841565D01*
X91319304Y-106040721D01*
X91319306Y-106040724D01*
X91376377Y-106102720D01*
X91480432Y-106215753D01*
X91480436Y-106215756D01*
X91668156Y-106361865D01*
X91668162Y-106361869D01*
X91668165Y-106361871D01*
X91877390Y-106475098D01*
X92102398Y-106552344D01*
X92337051Y-106591500D01*
X92574949Y-106591500D01*
X92809602Y-106552344D01*
X93034610Y-106475098D01*
X93243835Y-106361871D01*
X93431570Y-106215751D01*
X93592694Y-106040724D01*
X93722812Y-105841564D01*
X93818374Y-105623704D01*
X93876775Y-105393085D01*
X93896420Y-105156000D01*
X93896420Y-105155993D01*
X93876776Y-104918922D01*
X93876774Y-104918911D01*
X93818374Y-104688297D01*
X93722811Y-104470434D01*
X93592695Y-104271278D01*
X93592694Y-104271276D01*
X93431570Y-104096249D01*
X93431569Y-104096248D01*
X93431567Y-104096246D01*
X93431563Y-104096243D01*
X93243843Y-103950134D01*
X93243837Y-103950130D01*
X93034611Y-103836902D01*
X93034602Y-103836899D01*
X92809604Y-103759656D01*
X92574949Y-103720500D01*
X92337051Y-103720500D01*
X92102395Y-103759656D01*
X91877397Y-103836899D01*
X91877388Y-103836902D01*
X91668162Y-103950130D01*
X91668156Y-103950134D01*
X91480436Y-104096243D01*
X91480432Y-104096246D01*
X91319307Y-104271274D01*
X91319304Y-104271278D01*
X91189188Y-104470434D01*
X91093625Y-104688297D01*
X91035225Y-104918911D01*
X91035223Y-104918922D01*
X91015580Y-105155993D01*
X91015580Y-105156006D01*
X86276420Y-105156006D01*
X86276420Y-105156000D01*
X86276420Y-105155993D01*
X86256776Y-104918922D01*
X86256774Y-104918911D01*
X86198374Y-104688297D01*
X86102811Y-104470434D01*
X85972695Y-104271278D01*
X85972694Y-104271276D01*
X85811570Y-104096249D01*
X85811569Y-104096248D01*
X85811567Y-104096246D01*
X85811563Y-104096243D01*
X85623843Y-103950134D01*
X85623837Y-103950130D01*
X85414611Y-103836902D01*
X85414602Y-103836899D01*
X85189604Y-103759656D01*
X84954949Y-103720500D01*
X84717051Y-103720500D01*
X84482395Y-103759656D01*
X84257397Y-103836899D01*
X84257388Y-103836902D01*
X84048162Y-103950130D01*
X84048156Y-103950134D01*
X83860436Y-104096243D01*
X83860432Y-104096246D01*
X83699307Y-104271274D01*
X83699304Y-104271278D01*
X83569188Y-104470434D01*
X83473625Y-104688297D01*
X83415225Y-104918911D01*
X83415223Y-104918922D01*
X83395580Y-105155993D01*
X83395580Y-105156006D01*
X83000000Y-105156006D01*
X83000000Y-100330005D01*
X85885408Y-100330005D01*
X85905738Y-100575339D01*
X85966172Y-100813992D01*
X86065064Y-101039444D01*
X86188153Y-101227844D01*
X86199714Y-101245540D01*
X86302020Y-101356674D01*
X86366452Y-101426665D01*
X86366456Y-101426668D01*
X86538584Y-101560641D01*
X86560724Y-101577873D01*
X86560726Y-101577874D01*
X86560729Y-101577876D01*
X86644758Y-101623350D01*
X86777236Y-101695043D01*
X87010082Y-101774979D01*
X87252908Y-101815500D01*
X87252909Y-101815500D01*
X87499091Y-101815500D01*
X87499092Y-101815500D01*
X87741918Y-101774979D01*
X87974764Y-101695043D01*
X88191276Y-101577873D01*
X88385550Y-101426663D01*
X88418781Y-101390563D01*
X88478665Y-101354575D01*
X88548503Y-101356674D01*
X88606120Y-101396198D01*
X88618839Y-101415117D01*
X88622647Y-101422090D01*
X88708809Y-101537187D01*
X88708812Y-101537190D01*
X88823906Y-101623350D01*
X88823913Y-101623354D01*
X88958620Y-101673596D01*
X88958627Y-101673598D01*
X89018155Y-101679999D01*
X89018172Y-101680000D01*
X89665999Y-101680000D01*
X89666000Y-100942301D01*
X89685685Y-100875262D01*
X89738489Y-100829507D01*
X89807647Y-100819563D01*
X89880237Y-100830000D01*
X89880238Y-100830000D01*
X89951762Y-100830000D01*
X89951763Y-100830000D01*
X90024353Y-100819563D01*
X90093512Y-100829507D01*
X90146315Y-100875262D01*
X90166000Y-100942301D01*
X90166000Y-101680000D01*
X90813828Y-101680000D01*
X90813844Y-101679999D01*
X90873372Y-101673598D01*
X90873379Y-101673596D01*
X91008086Y-101623354D01*
X91008093Y-101623350D01*
X91123187Y-101537190D01*
X91123190Y-101537187D01*
X91209350Y-101422093D01*
X91209354Y-101422086D01*
X91259596Y-101287379D01*
X91259598Y-101287372D01*
X91265999Y-101227844D01*
X91266000Y-101227827D01*
X91266000Y-101078017D01*
X96408255Y-101078017D01*
X96408256Y-102891982D01*
X96408256Y-102891981D01*
X96414338Y-102969282D01*
X96414338Y-102969285D01*
X96414339Y-102969286D01*
X96462516Y-103149083D01*
X96468783Y-103161383D01*
X96547019Y-103314934D01*
X96547021Y-103314936D01*
X96599675Y-103379957D01*
X96664163Y-103459592D01*
X96744543Y-103524683D01*
X96808818Y-103576733D01*
X96808820Y-103576735D01*
X96891745Y-103618986D01*
X96974672Y-103661239D01*
X97154469Y-103709416D01*
X97200851Y-103713066D01*
X97231772Y-103715500D01*
X97231773Y-103715499D01*
X97231774Y-103715500D01*
X97910784Y-103715499D01*
X98595736Y-103715499D01*
X98611196Y-103714282D01*
X98673041Y-103709416D01*
X98852838Y-103661239D01*
X98978015Y-103597458D01*
X99018689Y-103576735D01*
X99018691Y-103576733D01*
X99021368Y-103574565D01*
X99163347Y-103459592D01*
X99280489Y-103314935D01*
X99317404Y-103242483D01*
X99365376Y-103191689D01*
X99433196Y-103174893D01*
X99499332Y-103197429D01*
X99517411Y-103212979D01*
X99545359Y-103242139D01*
X99545359Y-103242140D01*
X99732852Y-103380810D01*
X99941093Y-103485803D01*
X100164085Y-103554093D01*
X100164083Y-103554093D01*
X100203754Y-103559173D01*
X100203755Y-103559173D01*
X100203755Y-102693615D01*
X100223440Y-102626576D01*
X100276244Y-102580821D01*
X100343938Y-102570676D01*
X100414758Y-102580000D01*
X100414765Y-102580000D01*
X100492745Y-102580000D01*
X100492752Y-102580000D01*
X100563571Y-102570676D01*
X100632604Y-102581441D01*
X100684860Y-102627820D01*
X100703755Y-102693615D01*
X100703755Y-103557574D01*
X100856373Y-103524683D01*
X100856374Y-103524683D01*
X101072760Y-103437732D01*
X101271347Y-103315458D01*
X101446409Y-103161383D01*
X101543864Y-103040688D01*
X101601295Y-103000895D01*
X101671122Y-102998468D01*
X101731177Y-103034178D01*
X101745144Y-103052313D01*
X101786277Y-103117360D01*
X101947463Y-103299301D01*
X101966614Y-103314937D01*
X102135751Y-103453033D01*
X102135754Y-103453035D01*
X102135756Y-103453036D01*
X102346249Y-103574565D01*
X102346259Y-103574570D01*
X102573536Y-103660765D01*
X102666901Y-103679825D01*
X102811689Y-103709384D01*
X102811694Y-103709384D01*
X102811697Y-103709385D01*
X102884559Y-103712321D01*
X103054566Y-103719173D01*
X103054567Y-103719173D01*
X103054568Y-103719172D01*
X103054573Y-103719173D01*
X103261401Y-103694059D01*
X103295874Y-103689874D01*
X103394733Y-103661239D01*
X103529350Y-103622247D01*
X103748954Y-103518043D01*
X103948999Y-103379962D01*
X104124304Y-103211579D01*
X104247699Y-103047369D01*
X104303707Y-103005602D01*
X104373407Y-103000745D01*
X104434669Y-103034342D01*
X104449562Y-103052425D01*
X104463988Y-103073769D01*
X104463989Y-103073770D01*
X104625358Y-103242139D01*
X104625359Y-103242140D01*
X104812852Y-103380810D01*
X105021093Y-103485803D01*
X105244085Y-103554093D01*
X105244083Y-103554093D01*
X105283754Y-103559173D01*
X105283755Y-103559173D01*
X105283755Y-102693615D01*
X105303440Y-102626576D01*
X105356244Y-102580821D01*
X105423938Y-102570676D01*
X105494758Y-102580000D01*
X105494765Y-102580000D01*
X105572745Y-102580000D01*
X105572752Y-102580000D01*
X105643571Y-102570676D01*
X105712604Y-102581441D01*
X105764860Y-102627820D01*
X105783755Y-102693615D01*
X105783754Y-103557574D01*
X105936373Y-103524683D01*
X105936374Y-103524683D01*
X106152760Y-103437732D01*
X106351347Y-103315458D01*
X106526409Y-103161383D01*
X106623864Y-103040688D01*
X106681295Y-103000895D01*
X106751122Y-102998468D01*
X106811177Y-103034178D01*
X106825144Y-103052313D01*
X106866277Y-103117360D01*
X107027463Y-103299301D01*
X107046614Y-103314937D01*
X107215751Y-103453033D01*
X107215754Y-103453035D01*
X107215756Y-103453036D01*
X107426249Y-103574565D01*
X107426259Y-103574570D01*
X107653536Y-103660765D01*
X107746901Y-103679825D01*
X107891689Y-103709384D01*
X107891694Y-103709384D01*
X107891697Y-103709385D01*
X107964559Y-103712321D01*
X108134566Y-103719173D01*
X108134567Y-103719173D01*
X108134568Y-103719172D01*
X108134573Y-103719173D01*
X108341401Y-103694059D01*
X108375874Y-103689874D01*
X108474733Y-103661239D01*
X108609350Y-103622247D01*
X108828954Y-103518043D01*
X109028999Y-103379962D01*
X109204304Y-103211579D01*
X109350328Y-103017256D01*
X109463290Y-102802026D01*
X109540264Y-102571462D01*
X109579255Y-102331537D01*
X109579255Y-101699327D01*
X109564594Y-101517715D01*
X109506423Y-101281705D01*
X109491014Y-101245540D01*
X109411148Y-101058088D01*
X109411148Y-101058087D01*
X109411147Y-101058085D01*
X109411146Y-101058083D01*
X109281232Y-100852640D01*
X109281231Y-100852639D01*
X109281230Y-100852637D01*
X109120046Y-100670698D01*
X108931759Y-100516967D01*
X108931753Y-100516963D01*
X108721260Y-100395434D01*
X108721250Y-100395429D01*
X108493971Y-100309234D01*
X108255820Y-100260615D01*
X108255809Y-100260614D01*
X108012943Y-100250826D01*
X108012942Y-100250826D01*
X107771635Y-100280125D01*
X107538165Y-100347751D01*
X107538162Y-100347752D01*
X107318554Y-100451957D01*
X107118509Y-100590039D01*
X107118505Y-100590042D01*
X106943205Y-100758422D01*
X106819812Y-100922628D01*
X106763802Y-100964397D01*
X106694101Y-100969254D01*
X106632839Y-100935656D01*
X106617946Y-100917573D01*
X106603519Y-100896228D01*
X106442151Y-100727860D01*
X106442150Y-100727859D01*
X106254657Y-100589189D01*
X106046416Y-100484196D01*
X105823430Y-100415907D01*
X105823424Y-100415906D01*
X105783755Y-100410825D01*
X105783755Y-101276384D01*
X105764070Y-101343423D01*
X105711266Y-101389178D01*
X105643570Y-101399323D01*
X105572762Y-101390001D01*
X105572757Y-101390000D01*
X105572752Y-101390000D01*
X105494758Y-101390000D01*
X105494752Y-101390000D01*
X105494747Y-101390001D01*
X105423940Y-101399323D01*
X105354905Y-101388557D01*
X105302649Y-101342177D01*
X105283755Y-101276384D01*
X105283755Y-100412424D01*
X105283754Y-100412424D01*
X105131135Y-100445316D01*
X105131134Y-100445316D01*
X104914749Y-100532267D01*
X104716162Y-100654541D01*
X104541099Y-100808616D01*
X104443644Y-100929312D01*
X104386213Y-100969104D01*
X104316386Y-100971530D01*
X104256331Y-100935820D01*
X104242366Y-100917689D01*
X104201232Y-100852640D01*
X104173128Y-100820917D01*
X104040046Y-100670698D01*
X103851759Y-100516967D01*
X103851753Y-100516963D01*
X103641260Y-100395434D01*
X103641250Y-100395429D01*
X103413971Y-100309234D01*
X103175820Y-100260615D01*
X103175809Y-100260614D01*
X102932943Y-100250826D01*
X102932942Y-100250826D01*
X102691635Y-100280125D01*
X102458165Y-100347751D01*
X102458162Y-100347752D01*
X102238554Y-100451957D01*
X102038509Y-100590039D01*
X102038505Y-100590042D01*
X101863205Y-100758422D01*
X101739812Y-100922628D01*
X101683802Y-100964397D01*
X101614101Y-100969254D01*
X101552839Y-100935656D01*
X101537946Y-100917573D01*
X101523519Y-100896228D01*
X101362151Y-100727860D01*
X101362150Y-100727859D01*
X101174657Y-100589189D01*
X100966416Y-100484196D01*
X100743430Y-100415907D01*
X100743424Y-100415906D01*
X100703755Y-100410825D01*
X100703755Y-101276384D01*
X100684070Y-101343423D01*
X100631266Y-101389178D01*
X100563570Y-101399323D01*
X100492762Y-101390001D01*
X100492757Y-101390000D01*
X100492752Y-101390000D01*
X100414758Y-101390000D01*
X100414752Y-101390000D01*
X100414747Y-101390001D01*
X100343939Y-101399323D01*
X100274904Y-101388557D01*
X100222648Y-101342177D01*
X100203754Y-101276384D01*
X100203753Y-100412424D01*
X100051135Y-100445316D01*
X100051134Y-100445316D01*
X99834749Y-100532267D01*
X99636162Y-100654541D01*
X99510318Y-100765298D01*
X99446989Y-100794812D01*
X99377755Y-100785402D01*
X99324600Y-100740056D01*
X99317910Y-100728508D01*
X99280490Y-100655065D01*
X99280488Y-100655063D01*
X99227834Y-100590042D01*
X99163347Y-100510408D01*
X99082966Y-100445316D01*
X99018691Y-100393266D01*
X99018689Y-100393264D01*
X98894522Y-100330000D01*
X98852838Y-100308761D01*
X98673041Y-100260584D01*
X98673040Y-100260583D01*
X98673037Y-100260583D01*
X98595738Y-100254500D01*
X98595736Y-100254500D01*
X97910784Y-100254500D01*
X97231773Y-100254501D01*
X97231774Y-100254501D01*
X97154472Y-100260583D01*
X96974672Y-100308761D01*
X96808820Y-100393264D01*
X96808818Y-100393266D01*
X96664163Y-100510408D01*
X96547021Y-100655063D01*
X96547019Y-100655065D01*
X96462516Y-100820917D01*
X96414338Y-101000717D01*
X96408255Y-101078017D01*
X91266000Y-101078017D01*
X91266000Y-100580000D01*
X90529347Y-100580000D01*
X90462308Y-100560315D01*
X90416553Y-100507511D01*
X90406609Y-100438353D01*
X90410369Y-100421067D01*
X90416000Y-100401888D01*
X90416000Y-100258111D01*
X90410369Y-100238933D01*
X90410370Y-100169064D01*
X90448145Y-100110286D01*
X90511701Y-100081262D01*
X90529347Y-100080000D01*
X91265999Y-100080000D01*
X91266000Y-99432172D01*
X91265999Y-99432155D01*
X91259598Y-99372627D01*
X91259596Y-99372620D01*
X91209354Y-99237913D01*
X91209350Y-99237906D01*
X91123190Y-99122812D01*
X91123187Y-99122809D01*
X91008093Y-99036649D01*
X91008086Y-99036645D01*
X90873379Y-98986403D01*
X90873372Y-98986401D01*
X90813844Y-98980000D01*
X90166000Y-98980000D01*
X90166000Y-99717698D01*
X90146315Y-99784737D01*
X90093511Y-99830492D01*
X90024355Y-99840436D01*
X89951766Y-99830000D01*
X89951763Y-99830000D01*
X89880237Y-99830000D01*
X89880233Y-99830000D01*
X89807645Y-99840436D01*
X89738487Y-99830492D01*
X89685684Y-99784736D01*
X89666000Y-99717698D01*
X89666000Y-98980000D01*
X89018155Y-98980000D01*
X88958627Y-98986401D01*
X88958620Y-98986403D01*
X88823913Y-99036645D01*
X88823906Y-99036649D01*
X88708812Y-99122809D01*
X88708809Y-99122812D01*
X88622646Y-99237910D01*
X88618837Y-99244886D01*
X88569428Y-99294287D01*
X88501154Y-99309134D01*
X88435692Y-99284713D01*
X88418783Y-99269437D01*
X88385550Y-99233337D01*
X88385545Y-99233333D01*
X88385543Y-99233331D01*
X88191279Y-99082129D01*
X88191270Y-99082123D01*
X87974770Y-98964960D01*
X87974767Y-98964958D01*
X87974764Y-98964957D01*
X87974761Y-98964956D01*
X87974759Y-98964955D01*
X87741920Y-98885021D01*
X87580034Y-98858006D01*
X87499092Y-98844500D01*
X87252908Y-98844500D01*
X87192201Y-98854630D01*
X87010079Y-98885021D01*
X86777240Y-98964955D01*
X86777229Y-98964960D01*
X86560729Y-99082123D01*
X86560720Y-99082129D01*
X86366456Y-99233331D01*
X86366452Y-99233334D01*
X86199715Y-99414458D01*
X86199712Y-99414462D01*
X86065064Y-99620555D01*
X85966172Y-99846007D01*
X85905738Y-100084660D01*
X85885408Y-100329994D01*
X85885408Y-100330005D01*
X83000000Y-100330005D01*
X83000000Y-97536191D01*
X93605665Y-97536191D01*
X93624902Y-97805169D01*
X93681670Y-98066123D01*
X93682223Y-98068663D01*
X93740733Y-98225535D01*
X93776460Y-98321323D01*
X93776462Y-98321327D01*
X93905691Y-98557992D01*
X93905696Y-98558000D01*
X94067290Y-98773866D01*
X94067306Y-98773884D01*
X94257965Y-98964543D01*
X94257983Y-98964559D01*
X94473849Y-99126153D01*
X94473857Y-99126158D01*
X94710522Y-99255387D01*
X94710526Y-99255389D01*
X94710528Y-99255390D01*
X94963187Y-99349627D01*
X95068884Y-99372620D01*
X95226680Y-99406947D01*
X95226682Y-99406947D01*
X95226686Y-99406948D01*
X95465712Y-99424043D01*
X95495659Y-99426185D01*
X95495660Y-99426185D01*
X95495661Y-99426185D01*
X95522606Y-99424257D01*
X95764634Y-99406948D01*
X96028133Y-99349627D01*
X96280792Y-99255390D01*
X96517468Y-99126155D01*
X96733344Y-98964553D01*
X96924023Y-98773874D01*
X97085625Y-98557998D01*
X97214860Y-98321322D01*
X97309097Y-98068663D01*
X97366418Y-97805164D01*
X97385655Y-97536190D01*
X97385473Y-97533651D01*
X101103745Y-97533651D01*
X101122982Y-97802629D01*
X101180301Y-98066116D01*
X101180303Y-98066123D01*
X101238813Y-98222995D01*
X101274540Y-98318783D01*
X101274542Y-98318787D01*
X101403771Y-98555452D01*
X101403776Y-98555460D01*
X101565370Y-98771326D01*
X101565386Y-98771344D01*
X101756045Y-98962003D01*
X101756063Y-98962019D01*
X101971929Y-99123613D01*
X101971937Y-99123618D01*
X102208602Y-99252847D01*
X102208606Y-99252849D01*
X102208608Y-99252850D01*
X102461267Y-99347087D01*
X102578640Y-99372620D01*
X102724760Y-99404407D01*
X102724762Y-99404407D01*
X102724766Y-99404408D01*
X102963792Y-99421503D01*
X102993739Y-99423645D01*
X102993740Y-99423645D01*
X102993741Y-99423645D01*
X103020686Y-99421717D01*
X103262714Y-99404408D01*
X103526213Y-99347087D01*
X103778872Y-99252850D01*
X104015548Y-99123615D01*
X104231424Y-98962013D01*
X104422103Y-98771334D01*
X104583705Y-98555458D01*
X104712940Y-98318782D01*
X104807177Y-98066123D01*
X104863944Y-97805169D01*
X104864497Y-97802629D01*
X104864497Y-97802628D01*
X104864498Y-97802624D01*
X104883553Y-97536190D01*
X104883735Y-97533651D01*
X104883735Y-97533648D01*
X104879880Y-97479756D01*
X104864498Y-97264676D01*
X104807177Y-97001177D01*
X104712940Y-96748518D01*
X104606621Y-96553810D01*
X104583708Y-96511847D01*
X104583703Y-96511839D01*
X104422109Y-96295973D01*
X104422093Y-96295955D01*
X104231434Y-96105296D01*
X104231416Y-96105280D01*
X104015550Y-95943686D01*
X104015542Y-95943681D01*
X103778877Y-95814452D01*
X103778873Y-95814450D01*
X103683085Y-95778723D01*
X103526213Y-95720213D01*
X103526209Y-95720212D01*
X103526206Y-95720211D01*
X103262719Y-95662892D01*
X102993741Y-95643655D01*
X102993739Y-95643655D01*
X102724760Y-95662892D01*
X102461273Y-95720211D01*
X102461268Y-95720212D01*
X102461267Y-95720213D01*
X102449248Y-95724696D01*
X102208606Y-95814450D01*
X102208602Y-95814452D01*
X101971937Y-95943681D01*
X101971929Y-95943686D01*
X101756063Y-96105280D01*
X101756045Y-96105296D01*
X101565386Y-96295955D01*
X101565370Y-96295973D01*
X101403776Y-96511839D01*
X101403771Y-96511847D01*
X101274542Y-96748512D01*
X101274540Y-96748516D01*
X101180301Y-97001183D01*
X101122982Y-97264670D01*
X101103745Y-97533648D01*
X101103745Y-97533651D01*
X97385473Y-97533651D01*
X97381800Y-97482296D01*
X97366418Y-97267216D01*
X97365865Y-97264676D01*
X97309099Y-97003725D01*
X97309098Y-97003723D01*
X97309097Y-97003717D01*
X97249319Y-96843448D01*
X97244336Y-96773759D01*
X97277821Y-96712436D01*
X97339144Y-96678951D01*
X97402053Y-96681626D01*
X97607124Y-96744883D01*
X97866434Y-96783969D01*
X97866441Y-96783970D01*
X98128679Y-96783970D01*
X98128685Y-96783969D01*
X98387994Y-96744883D01*
X98388000Y-96744882D01*
X98638585Y-96667586D01*
X98874845Y-96553810D01*
X98874846Y-96553809D01*
X99046497Y-96436780D01*
X98395736Y-95786019D01*
X98362251Y-95724696D01*
X98367235Y-95655004D01*
X98409107Y-95599071D01*
X98412936Y-95596317D01*
X98464153Y-95560965D01*
X98472576Y-95551458D01*
X98488622Y-95533344D01*
X98571109Y-95440234D01*
X98630297Y-95403109D01*
X98700163Y-95403875D01*
X98751605Y-95434781D01*
X99399456Y-96082634D01*
X99399457Y-96082633D01*
X99447260Y-96022692D01*
X99447267Y-96022681D01*
X99578385Y-95795578D01*
X99674194Y-95551463D01*
X99674197Y-95551451D01*
X99732549Y-95295794D01*
X99752146Y-95034294D01*
X106235334Y-95034294D01*
X106254930Y-95295794D01*
X106313282Y-95551451D01*
X106313285Y-95551463D01*
X106409094Y-95795578D01*
X106540215Y-96022686D01*
X106588021Y-96082634D01*
X107235873Y-95434781D01*
X107297196Y-95401296D01*
X107366887Y-95406280D01*
X107416369Y-95440235D01*
X107514909Y-95551463D01*
X107523327Y-95560965D01*
X107552253Y-95580931D01*
X107574501Y-95596288D01*
X107618491Y-95650571D01*
X107626151Y-95720020D01*
X107595047Y-95782585D01*
X107591742Y-95786019D01*
X106940981Y-96436780D01*
X107112626Y-96553805D01*
X107112634Y-96553810D01*
X107348895Y-96667586D01*
X107348893Y-96667586D01*
X107599479Y-96744882D01*
X107599485Y-96744883D01*
X107858794Y-96783969D01*
X107858801Y-96783970D01*
X108121039Y-96783970D01*
X108121045Y-96783969D01*
X108380354Y-96744883D01*
X108380355Y-96744883D01*
X108585426Y-96681626D01*
X108655290Y-96680675D01*
X108714576Y-96717647D01*
X108744463Y-96780801D01*
X108738159Y-96843450D01*
X108738159Y-96843451D01*
X108679331Y-97001177D01*
X108678381Y-97003723D01*
X108621062Y-97267210D01*
X108601824Y-97536188D01*
X108601824Y-97536191D01*
X108621062Y-97805169D01*
X108677830Y-98066123D01*
X108678383Y-98068663D01*
X108736893Y-98225535D01*
X108772620Y-98321323D01*
X108772622Y-98321327D01*
X108901851Y-98557992D01*
X108901856Y-98558000D01*
X109063450Y-98773866D01*
X109063466Y-98773884D01*
X109254125Y-98964543D01*
X109254143Y-98964559D01*
X109470009Y-99126153D01*
X109470017Y-99126158D01*
X109706682Y-99255387D01*
X109706686Y-99255389D01*
X109706688Y-99255390D01*
X109959347Y-99349627D01*
X110065044Y-99372620D01*
X110222840Y-99406947D01*
X110222842Y-99406947D01*
X110222846Y-99406948D01*
X110461872Y-99424043D01*
X110491819Y-99426185D01*
X110491820Y-99426185D01*
X110491821Y-99426185D01*
X110518766Y-99424257D01*
X110760794Y-99406948D01*
X111024293Y-99349627D01*
X111276952Y-99255390D01*
X111513628Y-99126155D01*
X111729504Y-98964553D01*
X111920183Y-98773874D01*
X112081785Y-98557998D01*
X112211020Y-98321322D01*
X112305257Y-98068663D01*
X112362578Y-97805164D01*
X112381815Y-97536190D01*
X112381633Y-97533651D01*
X112377960Y-97482296D01*
X112362578Y-97267216D01*
X112362025Y-97264676D01*
X112333917Y-97135466D01*
X112305257Y-97003717D01*
X112211020Y-96751058D01*
X112103314Y-96553810D01*
X112081788Y-96514387D01*
X112081783Y-96514379D01*
X111920189Y-96298513D01*
X111920173Y-96298495D01*
X111729514Y-96107836D01*
X111729496Y-96107820D01*
X111513630Y-95946226D01*
X111513622Y-95946221D01*
X111276957Y-95816992D01*
X111276953Y-95816990D01*
X111181165Y-95781263D01*
X111024293Y-95722753D01*
X111024289Y-95722752D01*
X111024286Y-95722751D01*
X110760799Y-95665432D01*
X110491821Y-95646195D01*
X110491819Y-95646195D01*
X110222840Y-95665432D01*
X109959353Y-95722751D01*
X109959348Y-95722752D01*
X109959347Y-95722753D01*
X109954138Y-95724696D01*
X109797822Y-95782998D01*
X109728130Y-95787982D01*
X109666807Y-95754497D01*
X109633323Y-95693173D01*
X109638308Y-95623482D01*
X109639061Y-95621512D01*
X109666555Y-95551458D01*
X109666557Y-95551451D01*
X109724909Y-95295794D01*
X109744506Y-95034294D01*
X109744506Y-95034285D01*
X109724909Y-94772785D01*
X109666557Y-94517128D01*
X109666554Y-94517116D01*
X109570745Y-94273001D01*
X109439624Y-94045893D01*
X109391817Y-93985944D01*
X108743965Y-94633797D01*
X108682642Y-94667282D01*
X108612950Y-94662298D01*
X108563469Y-94628343D01*
X108456515Y-94507617D01*
X108456514Y-94507616D01*
X108456513Y-94507615D01*
X108405335Y-94472289D01*
X108361346Y-94418009D01*
X108353686Y-94348561D01*
X108384789Y-94285996D01*
X108388095Y-94282560D01*
X109038857Y-93631797D01*
X108867213Y-93514774D01*
X108867205Y-93514769D01*
X108630944Y-93400993D01*
X108630946Y-93400993D01*
X108380360Y-93323697D01*
X108380354Y-93323696D01*
X108121045Y-93284610D01*
X107858794Y-93284610D01*
X107599485Y-93323696D01*
X107599479Y-93323697D01*
X107348894Y-93400993D01*
X107112632Y-93514771D01*
X107112619Y-93514778D01*
X106940981Y-93631797D01*
X107591743Y-94282560D01*
X107625228Y-94343883D01*
X107620244Y-94413575D01*
X107578372Y-94469508D01*
X107574503Y-94472291D01*
X107523323Y-94507617D01*
X107416370Y-94628344D01*
X107357181Y-94665471D01*
X107287315Y-94664703D01*
X107235874Y-94633798D01*
X106588022Y-93985945D01*
X106540213Y-94045896D01*
X106409094Y-94273001D01*
X106313285Y-94517116D01*
X106313282Y-94517128D01*
X106254930Y-94772785D01*
X106235334Y-95034285D01*
X106235334Y-95034294D01*
X99752146Y-95034294D01*
X99752146Y-95034285D01*
X99732549Y-94772785D01*
X99674197Y-94517128D01*
X99674194Y-94517116D01*
X99578385Y-94273001D01*
X99447264Y-94045893D01*
X99399457Y-93985944D01*
X98751605Y-94633797D01*
X98690282Y-94667282D01*
X98620590Y-94662298D01*
X98571109Y-94628343D01*
X98464155Y-94507617D01*
X98464154Y-94507616D01*
X98464153Y-94507615D01*
X98412975Y-94472289D01*
X98368986Y-94418009D01*
X98361326Y-94348561D01*
X98392429Y-94285996D01*
X98395735Y-94282560D01*
X99046497Y-93631797D01*
X98874853Y-93514774D01*
X98874845Y-93514769D01*
X98638584Y-93400993D01*
X98638586Y-93400993D01*
X98388000Y-93323697D01*
X98387994Y-93323696D01*
X98128685Y-93284610D01*
X97866434Y-93284610D01*
X97607125Y-93323696D01*
X97607119Y-93323697D01*
X97356534Y-93400993D01*
X97120272Y-93514771D01*
X97120259Y-93514778D01*
X96948621Y-93631797D01*
X97599383Y-94282560D01*
X97632868Y-94343883D01*
X97627884Y-94413575D01*
X97586012Y-94469508D01*
X97582143Y-94472291D01*
X97530963Y-94507617D01*
X97424010Y-94628344D01*
X97364821Y-94665471D01*
X97294955Y-94664703D01*
X97243514Y-94633798D01*
X96595662Y-93985945D01*
X96547853Y-94045896D01*
X96416734Y-94273001D01*
X96320925Y-94517116D01*
X96320922Y-94517128D01*
X96262570Y-94772785D01*
X96242974Y-95034285D01*
X96242974Y-95034294D01*
X96262570Y-95295794D01*
X96320922Y-95551451D01*
X96320927Y-95551468D01*
X96348418Y-95621514D01*
X96354587Y-95691111D01*
X96322149Y-95752994D01*
X96261404Y-95787517D01*
X96191638Y-95783718D01*
X96189657Y-95782998D01*
X96109212Y-95752994D01*
X96028133Y-95722753D01*
X96028129Y-95722752D01*
X96028126Y-95722751D01*
X95764639Y-95665432D01*
X95495661Y-95646195D01*
X95495659Y-95646195D01*
X95226680Y-95665432D01*
X94963193Y-95722751D01*
X94963188Y-95722752D01*
X94963187Y-95722753D01*
X94957978Y-95724696D01*
X94710526Y-95816990D01*
X94710522Y-95816992D01*
X94473857Y-95946221D01*
X94473849Y-95946226D01*
X94257983Y-96107820D01*
X94257965Y-96107836D01*
X94067306Y-96298495D01*
X94067290Y-96298513D01*
X93905696Y-96514379D01*
X93905691Y-96514387D01*
X93776462Y-96751052D01*
X93776460Y-96751056D01*
X93741999Y-96843451D01*
X93683171Y-97001177D01*
X93682221Y-97003723D01*
X93624902Y-97267210D01*
X93605665Y-97536188D01*
X93605665Y-97536191D01*
X83000000Y-97536191D01*
X83000000Y-91580286D01*
X100950286Y-91580286D01*
X100990215Y-91735796D01*
X100990218Y-91735806D01*
X101067566Y-91876500D01*
X101067570Y-91876507D01*
X101067573Y-91876510D01*
X101067574Y-91876512D01*
X101091033Y-91903980D01*
X101091034Y-91903981D01*
X101091037Y-91903984D01*
X102596016Y-93408961D01*
X102623493Y-93432430D01*
X102764197Y-93509783D01*
X102919717Y-93549714D01*
X102919721Y-93549714D01*
X103080279Y-93549714D01*
X103080283Y-93549714D01*
X103235803Y-93509783D01*
X103376507Y-93432430D01*
X103391771Y-93419392D01*
X103403980Y-93408967D01*
X103403981Y-93408966D01*
X104908962Y-91903983D01*
X104908962Y-91903982D01*
X104932430Y-91876507D01*
X105009783Y-91735803D01*
X105049714Y-91580283D01*
X105049714Y-91419717D01*
X105009783Y-91264197D01*
X104932430Y-91123493D01*
X104932425Y-91123487D01*
X104908967Y-91096020D01*
X104908966Y-91096019D01*
X103403983Y-89591038D01*
X103376507Y-89567570D01*
X103376501Y-89567566D01*
X103235806Y-89490218D01*
X103235796Y-89490215D01*
X103080286Y-89450286D01*
X103080283Y-89450286D01*
X102919717Y-89450286D01*
X102919713Y-89450286D01*
X102764203Y-89490215D01*
X102764193Y-89490218D01*
X102623499Y-89567566D01*
X102623487Y-89567574D01*
X102596020Y-89591033D01*
X102596019Y-89591034D01*
X102596016Y-89591036D01*
X102596016Y-89591037D01*
X101091039Y-91096016D01*
X101091036Y-91096020D01*
X101067570Y-91123492D01*
X101067566Y-91123498D01*
X100990218Y-91264193D01*
X100990215Y-91264203D01*
X100950286Y-91419713D01*
X100950286Y-91580286D01*
X83000000Y-91580286D01*
X83000000Y-88000001D01*
X85983770Y-88000001D01*
X86002500Y-88261889D01*
X86058309Y-88518435D01*
X86150064Y-88764443D01*
X86150066Y-88764447D01*
X86275890Y-88994875D01*
X86275895Y-88994883D01*
X86433230Y-89205060D01*
X86433246Y-89205078D01*
X86618880Y-89390712D01*
X86618898Y-89390728D01*
X86829075Y-89548063D01*
X86829083Y-89548068D01*
X87059511Y-89673892D01*
X87059515Y-89673894D01*
X87059517Y-89673895D01*
X87305518Y-89765648D01*
X87562068Y-89821458D01*
X87562069Y-89821458D01*
X87562073Y-89821459D01*
X87794801Y-89838103D01*
X87823958Y-89840189D01*
X87823959Y-89840189D01*
X87823960Y-89840189D01*
X87845816Y-89838625D01*
X88085845Y-89821459D01*
X88342400Y-89765648D01*
X88588401Y-89673895D01*
X88818840Y-89548065D01*
X89029027Y-89390722D01*
X89214681Y-89205068D01*
X89372024Y-88994881D01*
X89497854Y-88764442D01*
X89589607Y-88518441D01*
X89645418Y-88261886D01*
X89664148Y-88000000D01*
X89645418Y-87738114D01*
X89589607Y-87481559D01*
X89497854Y-87235558D01*
X89458289Y-87163101D01*
X89372027Y-87005124D01*
X89372022Y-87005116D01*
X89214687Y-86794939D01*
X89214671Y-86794921D01*
X89155567Y-86735817D01*
X90988459Y-86735817D01*
X90988460Y-89264180D01*
X90991294Y-89300204D01*
X91036088Y-89454388D01*
X91036090Y-89454393D01*
X91117822Y-89592595D01*
X91117828Y-89592603D01*
X91231355Y-89706130D01*
X91231359Y-89706133D01*
X91231361Y-89706135D01*
X91369566Y-89787869D01*
X91410227Y-89799682D01*
X91523750Y-89832664D01*
X91523753Y-89832664D01*
X91523755Y-89832665D01*
X91535762Y-89833610D01*
X91559776Y-89835500D01*
X91559777Y-89835499D01*
X91559778Y-89835500D01*
X94088139Y-89835499D01*
X94124163Y-89832665D01*
X94278352Y-89787869D01*
X94416557Y-89706135D01*
X94530094Y-89592598D01*
X94611828Y-89454393D01*
X94656624Y-89300204D01*
X94659459Y-89264181D01*
X94659458Y-87907897D01*
X97767341Y-87907897D01*
X97787539Y-88164539D01*
X97847637Y-88414862D01*
X97946148Y-88652691D01*
X97946150Y-88652694D01*
X98080657Y-88872190D01*
X98080661Y-88872195D01*
X98156446Y-88960928D01*
X98247849Y-89067947D01*
X98373151Y-89174964D01*
X98443600Y-89235134D01*
X98443605Y-89235138D01*
X98663101Y-89369645D01*
X98663104Y-89369647D01*
X98857786Y-89450286D01*
X98900938Y-89468160D01*
X99151258Y-89528257D01*
X99407898Y-89548455D01*
X99664538Y-89528257D01*
X99914858Y-89468160D01*
X100101796Y-89390728D01*
X100152691Y-89369647D01*
X100152692Y-89369646D01*
X100152695Y-89369645D01*
X100372193Y-89235136D01*
X100567947Y-89067947D01*
X100735136Y-88872193D01*
X100869645Y-88652695D01*
X100968160Y-88414858D01*
X101028257Y-88164538D01*
X101048455Y-87907898D01*
X104951545Y-87907898D01*
X104971743Y-88164539D01*
X105031841Y-88414862D01*
X105130352Y-88652691D01*
X105130354Y-88652694D01*
X105264861Y-88872190D01*
X105264865Y-88872195D01*
X105340650Y-88960928D01*
X105432053Y-89067947D01*
X105557355Y-89174964D01*
X105627804Y-89235134D01*
X105627809Y-89235138D01*
X105847305Y-89369645D01*
X105847308Y-89369647D01*
X106041990Y-89450286D01*
X106085142Y-89468160D01*
X106335462Y-89528257D01*
X106592102Y-89548455D01*
X106848742Y-89528257D01*
X107099062Y-89468160D01*
X107286000Y-89390728D01*
X107336895Y-89369647D01*
X107336896Y-89369646D01*
X107336899Y-89369645D01*
X107556397Y-89235136D01*
X107752151Y-89067947D01*
X107919340Y-88872193D01*
X108053849Y-88652695D01*
X108152364Y-88414858D01*
X108212461Y-88164538D01*
X108232659Y-87907898D01*
X108212461Y-87651258D01*
X108152364Y-87400938D01*
X108083861Y-87235556D01*
X108053851Y-87163104D01*
X108053849Y-87163101D01*
X107919342Y-86943605D01*
X107919338Y-86943600D01*
X107792369Y-86794939D01*
X107752151Y-86747849D01*
X107738063Y-86735817D01*
X111164500Y-86735817D01*
X111164501Y-89264180D01*
X111167335Y-89300204D01*
X111212129Y-89454388D01*
X111212131Y-89454393D01*
X111293863Y-89592595D01*
X111293869Y-89592603D01*
X111407396Y-89706130D01*
X111407400Y-89706133D01*
X111407402Y-89706135D01*
X111545607Y-89787869D01*
X111586268Y-89799682D01*
X111699791Y-89832664D01*
X111699794Y-89832664D01*
X111699796Y-89832665D01*
X111711803Y-89833610D01*
X111735817Y-89835500D01*
X111735818Y-89835499D01*
X111735819Y-89835500D01*
X114264180Y-89835499D01*
X114300204Y-89832665D01*
X114454393Y-89787869D01*
X114592598Y-89706135D01*
X114706135Y-89592598D01*
X114787869Y-89454393D01*
X114832665Y-89300204D01*
X114835500Y-89264181D01*
X114835500Y-88000001D01*
X116159811Y-88000001D01*
X116178541Y-88261889D01*
X116234350Y-88518435D01*
X116326105Y-88764443D01*
X116326107Y-88764447D01*
X116451931Y-88994875D01*
X116451936Y-88994883D01*
X116609271Y-89205060D01*
X116609287Y-89205078D01*
X116794921Y-89390712D01*
X116794939Y-89390728D01*
X117005116Y-89548063D01*
X117005124Y-89548068D01*
X117235552Y-89673892D01*
X117235556Y-89673894D01*
X117235558Y-89673895D01*
X117481559Y-89765648D01*
X117738109Y-89821458D01*
X117738110Y-89821458D01*
X117738114Y-89821459D01*
X117970842Y-89838103D01*
X117999999Y-89840189D01*
X118000000Y-89840189D01*
X118000001Y-89840189D01*
X118021857Y-89838625D01*
X118261886Y-89821459D01*
X118518441Y-89765648D01*
X118764442Y-89673895D01*
X118994881Y-89548065D01*
X119205068Y-89390722D01*
X119390722Y-89205068D01*
X119548065Y-88994881D01*
X119673895Y-88764442D01*
X119765648Y-88518441D01*
X119821459Y-88261886D01*
X119840189Y-88000000D01*
X119821459Y-87738114D01*
X119765648Y-87481559D01*
X119673895Y-87235558D01*
X119634330Y-87163101D01*
X119548068Y-87005124D01*
X119548063Y-87005116D01*
X119390728Y-86794939D01*
X119390712Y-86794921D01*
X119205078Y-86609287D01*
X119205060Y-86609271D01*
X118994883Y-86451936D01*
X118994875Y-86451931D01*
X118764447Y-86326107D01*
X118764443Y-86326105D01*
X118614232Y-86270080D01*
X118518441Y-86234352D01*
X118518439Y-86234351D01*
X118518435Y-86234350D01*
X118261888Y-86178541D01*
X118261891Y-86178541D01*
X118000001Y-86159811D01*
X117999999Y-86159811D01*
X117738110Y-86178541D01*
X117481564Y-86234350D01*
X117235556Y-86326105D01*
X117235552Y-86326107D01*
X117005124Y-86451931D01*
X117005116Y-86451936D01*
X116794939Y-86609271D01*
X116794921Y-86609287D01*
X116609287Y-86794921D01*
X116609271Y-86794939D01*
X116451936Y-87005116D01*
X116451931Y-87005124D01*
X116326107Y-87235552D01*
X116326105Y-87235556D01*
X116234350Y-87481564D01*
X116178541Y-87738110D01*
X116159811Y-87999998D01*
X116159811Y-88000001D01*
X114835500Y-88000001D01*
X114835499Y-86735820D01*
X114832665Y-86699796D01*
X114787869Y-86545607D01*
X114706135Y-86407402D01*
X114706133Y-86407400D01*
X114706130Y-86407396D01*
X114592603Y-86293869D01*
X114592595Y-86293863D01*
X114454393Y-86212131D01*
X114454388Y-86212129D01*
X114300208Y-86167335D01*
X114300202Y-86167334D01*
X114264183Y-86164500D01*
X114264181Y-86164500D01*
X111738880Y-86164501D01*
X111735820Y-86164501D01*
X111699795Y-86167335D01*
X111545611Y-86212129D01*
X111545606Y-86212131D01*
X111407404Y-86293863D01*
X111407396Y-86293869D01*
X111293869Y-86407396D01*
X111293863Y-86407404D01*
X111212131Y-86545606D01*
X111212129Y-86545611D01*
X111167335Y-86699791D01*
X111167334Y-86699797D01*
X111164500Y-86735817D01*
X107738063Y-86735817D01*
X107645132Y-86656446D01*
X107556399Y-86580661D01*
X107556394Y-86580657D01*
X107336898Y-86446150D01*
X107336895Y-86446148D01*
X107099066Y-86347637D01*
X106848743Y-86287539D01*
X106720422Y-86277440D01*
X106592102Y-86267341D01*
X106592101Y-86267341D01*
X106335460Y-86287539D01*
X106085137Y-86347637D01*
X105847308Y-86446148D01*
X105847305Y-86446150D01*
X105627809Y-86580657D01*
X105627804Y-86580661D01*
X105432053Y-86747849D01*
X105264865Y-86943600D01*
X105264861Y-86943605D01*
X105130354Y-87163101D01*
X105130352Y-87163104D01*
X105031841Y-87400933D01*
X104971743Y-87651256D01*
X104951545Y-87907898D01*
X101048455Y-87907898D01*
X101028257Y-87651258D01*
X100968160Y-87400938D01*
X100899657Y-87235556D01*
X100869647Y-87163104D01*
X100869645Y-87163101D01*
X100735138Y-86943605D01*
X100735134Y-86943600D01*
X100608165Y-86794939D01*
X100567947Y-86747849D01*
X100460928Y-86656446D01*
X100372195Y-86580661D01*
X100372190Y-86580657D01*
X100152694Y-86446150D01*
X100152691Y-86446148D01*
X99914862Y-86347637D01*
X99664539Y-86287539D01*
X99536217Y-86277440D01*
X99407898Y-86267341D01*
X99407897Y-86267341D01*
X99151256Y-86287539D01*
X98900933Y-86347637D01*
X98663104Y-86446148D01*
X98663101Y-86446150D01*
X98443605Y-86580657D01*
X98443600Y-86580661D01*
X98247849Y-86747849D01*
X98080661Y-86943600D01*
X98080657Y-86943605D01*
X97946150Y-87163101D01*
X97946148Y-87163104D01*
X97847637Y-87400933D01*
X97787539Y-87651256D01*
X97767341Y-87907897D01*
X94659458Y-87907897D01*
X94659458Y-86735820D01*
X94656624Y-86699796D01*
X94611828Y-86545607D01*
X94530094Y-86407402D01*
X94530092Y-86407400D01*
X94530089Y-86407396D01*
X94416562Y-86293869D01*
X94416554Y-86293863D01*
X94278352Y-86212131D01*
X94278347Y-86212129D01*
X94124167Y-86167335D01*
X94124161Y-86167334D01*
X94088142Y-86164500D01*
X94088140Y-86164500D01*
X91553792Y-86164501D01*
X91559779Y-86164501D01*
X91523754Y-86167335D01*
X91369570Y-86212129D01*
X91369565Y-86212131D01*
X91231363Y-86293863D01*
X91231355Y-86293869D01*
X91117828Y-86407396D01*
X91117822Y-86407404D01*
X91036090Y-86545606D01*
X91036088Y-86545611D01*
X90991294Y-86699791D01*
X90991293Y-86699797D01*
X90988459Y-86735817D01*
X89155567Y-86735817D01*
X89029037Y-86609287D01*
X89029019Y-86609271D01*
X88818842Y-86451936D01*
X88818834Y-86451931D01*
X88588406Y-86326107D01*
X88588402Y-86326105D01*
X88438191Y-86270080D01*
X88342400Y-86234352D01*
X88342398Y-86234351D01*
X88342394Y-86234350D01*
X88085847Y-86178541D01*
X88085850Y-86178541D01*
X87823960Y-86159811D01*
X87823958Y-86159811D01*
X87562069Y-86178541D01*
X87305523Y-86234350D01*
X87059515Y-86326105D01*
X87059511Y-86326107D01*
X86829083Y-86451931D01*
X86829075Y-86451936D01*
X86618898Y-86609271D01*
X86618880Y-86609287D01*
X86433246Y-86794921D01*
X86433230Y-86794939D01*
X86275895Y-87005116D01*
X86275890Y-87005124D01*
X86150066Y-87235552D01*
X86150064Y-87235556D01*
X86058309Y-87481564D01*
X86002500Y-87738110D01*
X85983770Y-87999998D01*
X85983770Y-88000001D01*
X83000000Y-88000001D01*
X83000000Y-84315800D01*
X101494858Y-84315800D01*
X101515385Y-84563524D01*
X101515387Y-84563533D01*
X101576412Y-84804512D01*
X101676266Y-85032159D01*
X101776564Y-85185677D01*
X102391050Y-84571190D01*
X102452373Y-84537705D01*
X102522064Y-84542689D01*
X102577998Y-84584560D01*
X102583039Y-84591820D01*
X102583048Y-84591834D01*
X102618239Y-84646593D01*
X102733602Y-84746554D01*
X102731293Y-84749217D01*
X102766006Y-84789294D01*
X102775935Y-84858455D01*
X102746898Y-84922005D01*
X102740882Y-84928464D01*
X102129942Y-85539404D01*
X102176768Y-85575850D01*
X102176770Y-85575851D01*
X102395385Y-85694159D01*
X102395396Y-85694164D01*
X102630506Y-85774878D01*
X102875707Y-85815795D01*
X103124293Y-85815795D01*
X103369493Y-85774878D01*
X103604603Y-85694164D01*
X103604614Y-85694159D01*
X103823228Y-85575852D01*
X103823231Y-85575850D01*
X103870056Y-85539404D01*
X103259116Y-84928464D01*
X103225631Y-84867141D01*
X103230615Y-84797449D01*
X103267641Y-84747988D01*
X103266398Y-84746554D01*
X103273100Y-84740747D01*
X103381761Y-84646593D01*
X103416954Y-84591832D01*
X103469755Y-84546078D01*
X103538914Y-84536134D01*
X103602470Y-84565158D01*
X103608949Y-84571191D01*
X104223434Y-85185677D01*
X104323731Y-85032164D01*
X104423587Y-84804512D01*
X104484612Y-84563533D01*
X104484614Y-84563524D01*
X104505141Y-84315800D01*
X104505141Y-84315789D01*
X104484614Y-84068065D01*
X104484612Y-84068056D01*
X104423587Y-83827077D01*
X104323731Y-83599425D01*
X104223434Y-83445911D01*
X103608949Y-84060397D01*
X103547626Y-84093882D01*
X103477934Y-84088898D01*
X103422001Y-84047026D01*
X103416953Y-84039756D01*
X103381761Y-83984997D01*
X103266398Y-83885036D01*
X103268698Y-83882380D01*
X103233960Y-83842223D01*
X103224074Y-83773056D01*
X103253152Y-83709524D01*
X103259116Y-83703124D01*
X103870056Y-83092184D01*
X103823229Y-83055738D01*
X103604614Y-82937430D01*
X103604603Y-82937425D01*
X103369493Y-82856711D01*
X103124293Y-82815795D01*
X102875707Y-82815795D01*
X102630506Y-82856711D01*
X102395396Y-82937425D01*
X102395390Y-82937427D01*
X102176761Y-83055744D01*
X102129942Y-83092183D01*
X102129942Y-83092185D01*
X102740883Y-83703125D01*
X102774368Y-83764448D01*
X102769384Y-83834139D01*
X102732358Y-83883600D01*
X102733602Y-83885036D01*
X102618238Y-83984997D01*
X102583046Y-84039757D01*
X102530242Y-84085512D01*
X102461083Y-84095455D01*
X102397528Y-84066429D01*
X102391050Y-84060398D01*
X101776564Y-83445911D01*
X101676267Y-83599427D01*
X101576412Y-83827077D01*
X101515387Y-84068056D01*
X101515385Y-84068065D01*
X101494858Y-84315789D01*
X101494858Y-84315800D01*
X83000000Y-84315800D01*
X83000000Y-82999999D01*
X77540589Y-78036899D01*
X77504225Y-77977238D01*
X77500000Y-77945146D01*
X77500000Y-76800001D01*
X78444773Y-76800001D01*
X78463657Y-77064027D01*
X78463658Y-77064034D01*
X78519921Y-77322673D01*
X78612426Y-77570690D01*
X78612428Y-77570694D01*
X78739280Y-77803005D01*
X78739285Y-77803013D01*
X78897906Y-78014907D01*
X78897922Y-78014925D01*
X79085074Y-78202077D01*
X79085092Y-78202093D01*
X79296986Y-78360714D01*
X79296994Y-78360719D01*
X79529305Y-78487571D01*
X79529309Y-78487573D01*
X79529311Y-78487574D01*
X79777322Y-78580077D01*
X79777325Y-78580077D01*
X79777326Y-78580078D01*
X79972552Y-78622546D01*
X80035974Y-78636343D01*
X80279660Y-78653772D01*
X80299999Y-78655227D01*
X80300000Y-78655227D01*
X80300001Y-78655227D01*
X80318885Y-78653876D01*
X80564026Y-78636343D01*
X80822678Y-78580077D01*
X81070689Y-78487574D01*
X81303011Y-78360716D01*
X81514915Y-78202087D01*
X81702087Y-78014915D01*
X81860716Y-77803011D01*
X81987574Y-77570689D01*
X82080077Y-77322678D01*
X82136343Y-77064026D01*
X82155227Y-76800004D01*
X86180191Y-76800004D01*
X86199399Y-77056322D01*
X86199399Y-77056324D01*
X86256593Y-77306909D01*
X86256599Y-77306928D01*
X86350503Y-77546191D01*
X86350507Y-77546199D01*
X86479026Y-77768802D01*
X86522778Y-77823667D01*
X87066137Y-77280308D01*
X87127460Y-77246823D01*
X87197151Y-77251807D01*
X87253085Y-77293678D01*
X87258814Y-77302021D01*
X87262708Y-77308220D01*
X87262710Y-77308222D01*
X87391778Y-77437290D01*
X87397982Y-77441188D01*
X87444272Y-77493524D01*
X87454919Y-77562578D01*
X87426543Y-77626425D01*
X87419689Y-77633862D01*
X86876018Y-78177532D01*
X87040095Y-78289397D01*
X87040099Y-78289399D01*
X87271677Y-78400922D01*
X87271681Y-78400923D01*
X87517304Y-78476689D01*
X87517310Y-78476691D01*
X87771471Y-78514999D01*
X87771480Y-78515000D01*
X88028520Y-78515000D01*
X88028528Y-78514999D01*
X88282689Y-78476691D01*
X88282695Y-78476689D01*
X88528320Y-78400923D01*
X88759896Y-78289402D01*
X88759898Y-78289401D01*
X88923980Y-78177532D01*
X88380309Y-77633862D01*
X88346824Y-77572539D01*
X88351808Y-77502848D01*
X88393679Y-77446914D01*
X88402018Y-77441188D01*
X88408222Y-77437290D01*
X88537290Y-77308222D01*
X88541185Y-77302023D01*
X88593516Y-77255730D01*
X88662568Y-77245078D01*
X88726418Y-77273449D01*
X88733862Y-77280309D01*
X89277219Y-77823667D01*
X89277220Y-77823666D01*
X89320966Y-77768812D01*
X89320973Y-77768801D01*
X89449492Y-77546199D01*
X89449496Y-77546191D01*
X89543400Y-77306928D01*
X89543406Y-77306909D01*
X89600600Y-77056324D01*
X89600600Y-77056322D01*
X89619809Y-76800004D01*
X89619809Y-76799995D01*
X89600600Y-76543677D01*
X89600600Y-76543675D01*
X89543406Y-76293090D01*
X89543400Y-76293071D01*
X89449496Y-76053808D01*
X89449492Y-76053800D01*
X89320970Y-75831193D01*
X89277220Y-75776331D01*
X89277219Y-75776331D01*
X88733862Y-76319689D01*
X88672539Y-76353174D01*
X88602847Y-76348190D01*
X88546914Y-76306318D01*
X88541188Y-76297982D01*
X88538102Y-76293071D01*
X88537290Y-76291778D01*
X88408222Y-76162710D01*
X88402017Y-76158811D01*
X88355727Y-76106477D01*
X88345079Y-76037423D01*
X88373454Y-75973575D01*
X88380309Y-75966137D01*
X88923980Y-75422466D01*
X88759905Y-75310602D01*
X88759896Y-75310597D01*
X88528319Y-75199076D01*
X88528321Y-75199076D01*
X88282695Y-75123310D01*
X88282689Y-75123308D01*
X88028528Y-75085000D01*
X87771471Y-75085000D01*
X87517310Y-75123308D01*
X87517304Y-75123310D01*
X87271681Y-75199076D01*
X87271677Y-75199077D01*
X87040096Y-75310601D01*
X87040088Y-75310606D01*
X86876018Y-75422465D01*
X87419690Y-75966137D01*
X87453175Y-76027460D01*
X87448191Y-76097152D01*
X87406319Y-76153085D01*
X87397985Y-76158809D01*
X87391782Y-76162706D01*
X87391777Y-76162710D01*
X87262710Y-76291777D01*
X87262706Y-76291782D01*
X87258809Y-76297985D01*
X87206473Y-76344274D01*
X87137419Y-76354920D01*
X87073571Y-76326542D01*
X87066137Y-76319690D01*
X86522779Y-75776332D01*
X86479023Y-75831201D01*
X86350507Y-76053800D01*
X86350503Y-76053808D01*
X86256599Y-76293071D01*
X86256593Y-76293090D01*
X86199399Y-76543675D01*
X86199399Y-76543677D01*
X86180191Y-76799995D01*
X86180191Y-76800004D01*
X82155227Y-76800004D01*
X82155227Y-76800000D01*
X82136343Y-76535974D01*
X82095493Y-76348190D01*
X82080078Y-76277326D01*
X82037327Y-76162706D01*
X81987574Y-76029311D01*
X81986563Y-76027460D01*
X81860719Y-75796994D01*
X81860714Y-75796986D01*
X81702093Y-75585092D01*
X81702077Y-75585074D01*
X81514925Y-75397922D01*
X81514907Y-75397906D01*
X81303013Y-75239285D01*
X81303005Y-75239280D01*
X81070694Y-75112428D01*
X81070690Y-75112426D01*
X80822673Y-75019921D01*
X80564034Y-74963658D01*
X80564027Y-74963657D01*
X80300001Y-74944773D01*
X80299999Y-74944773D01*
X80035972Y-74963657D01*
X80035965Y-74963658D01*
X79777326Y-75019921D01*
X79529309Y-75112426D01*
X79529305Y-75112428D01*
X79296994Y-75239280D01*
X79296986Y-75239285D01*
X79085092Y-75397906D01*
X79085074Y-75397922D01*
X78897922Y-75585074D01*
X78897906Y-75585092D01*
X78739285Y-75796986D01*
X78739280Y-75796994D01*
X78612428Y-76029305D01*
X78612426Y-76029309D01*
X78519921Y-76277326D01*
X78463658Y-76535965D01*
X78463657Y-76535972D01*
X78444773Y-76799998D01*
X78444773Y-76800001D01*
X77500000Y-76800001D01*
X77500000Y-73624000D01*
X77519685Y-73556961D01*
X77572489Y-73511206D01*
X77624000Y-73500000D01*
X92622510Y-73500000D01*
X92689549Y-73519685D01*
G37*
%TD.AperFunction*%
%TD*%
M02*
