%TF.GenerationSoftware,KiCad,Pcbnew,7.0.7*%
%TF.CreationDate,2024-03-18T21:13:49-04:00*%
%TF.ProjectId,M1PSX3,4d315053-5833-42e6-9b69-6361645f7063,rev?*%
%TF.SameCoordinates,Original*%
%TF.FileFunction,Legend,Top*%
%TF.FilePolarity,Positive*%
%FSLAX46Y46*%
G04 Gerber Fmt 4.6, Leading zero omitted, Abs format (unit mm)*
G04 Created by KiCad (PCBNEW 7.0.7) date 2024-03-18 21:13:49*
%MOMM*%
%LPD*%
G01*
G04 APERTURE LIST*
%ADD10C,0.150000*%
%ADD11C,0.120000*%
%ADD12C,0.304800*%
%ADD13C,0.127000*%
%ADD14C,0.200000*%
G04 APERTURE END LIST*
D10*
X87531952Y-98244819D02*
X87055762Y-98244819D01*
X87055762Y-98244819D02*
X87055762Y-97244819D01*
X87865286Y-97721009D02*
X88198619Y-97721009D01*
X88341476Y-98244819D02*
X87865286Y-98244819D01*
X87865286Y-98244819D02*
X87865286Y-97244819D01*
X87865286Y-97244819D02*
X88341476Y-97244819D01*
X88770048Y-98244819D02*
X88770048Y-97244819D01*
X88770048Y-97244819D02*
X89008143Y-97244819D01*
X89008143Y-97244819D02*
X89151000Y-97292438D01*
X89151000Y-97292438D02*
X89246238Y-97387676D01*
X89246238Y-97387676D02*
X89293857Y-97482914D01*
X89293857Y-97482914D02*
X89341476Y-97673390D01*
X89341476Y-97673390D02*
X89341476Y-97816247D01*
X89341476Y-97816247D02*
X89293857Y-98006723D01*
X89293857Y-98006723D02*
X89246238Y-98101961D01*
X89246238Y-98101961D02*
X89151000Y-98197200D01*
X89151000Y-98197200D02*
X89008143Y-98244819D01*
X89008143Y-98244819D02*
X88770048Y-98244819D01*
X90293857Y-98244819D02*
X89722429Y-98244819D01*
X90008143Y-98244819D02*
X90008143Y-97244819D01*
X90008143Y-97244819D02*
X89912905Y-97387676D01*
X89912905Y-97387676D02*
X89817667Y-97482914D01*
X89817667Y-97482914D02*
X89722429Y-97530533D01*
X102666666Y-105954819D02*
X102666666Y-106669104D01*
X102666666Y-106669104D02*
X102619047Y-106811961D01*
X102619047Y-106811961D02*
X102523809Y-106907200D01*
X102523809Y-106907200D02*
X102380952Y-106954819D01*
X102380952Y-106954819D02*
X102285714Y-106954819D01*
X103047619Y-105954819D02*
X103666666Y-105954819D01*
X103666666Y-105954819D02*
X103333333Y-106335771D01*
X103333333Y-106335771D02*
X103476190Y-106335771D01*
X103476190Y-106335771D02*
X103571428Y-106383390D01*
X103571428Y-106383390D02*
X103619047Y-106431009D01*
X103619047Y-106431009D02*
X103666666Y-106526247D01*
X103666666Y-106526247D02*
X103666666Y-106764342D01*
X103666666Y-106764342D02*
X103619047Y-106859580D01*
X103619047Y-106859580D02*
X103571428Y-106907200D01*
X103571428Y-106907200D02*
X103476190Y-106954819D01*
X103476190Y-106954819D02*
X103190476Y-106954819D01*
X103190476Y-106954819D02*
X103095238Y-106907200D01*
X103095238Y-106907200D02*
X103047619Y-106859580D01*
X90157292Y-96359580D02*
X90109673Y-96407200D01*
X90109673Y-96407200D02*
X89966816Y-96454819D01*
X89966816Y-96454819D02*
X89871578Y-96454819D01*
X89871578Y-96454819D02*
X89728721Y-96407200D01*
X89728721Y-96407200D02*
X89633483Y-96311961D01*
X89633483Y-96311961D02*
X89585864Y-96216723D01*
X89585864Y-96216723D02*
X89538245Y-96026247D01*
X89538245Y-96026247D02*
X89538245Y-95883390D01*
X89538245Y-95883390D02*
X89585864Y-95692914D01*
X89585864Y-95692914D02*
X89633483Y-95597676D01*
X89633483Y-95597676D02*
X89728721Y-95502438D01*
X89728721Y-95502438D02*
X89871578Y-95454819D01*
X89871578Y-95454819D02*
X89966816Y-95454819D01*
X89966816Y-95454819D02*
X90109673Y-95502438D01*
X90109673Y-95502438D02*
X90157292Y-95550057D01*
X91109673Y-96454819D02*
X90538245Y-96454819D01*
X90823959Y-96454819D02*
X90823959Y-95454819D01*
X90823959Y-95454819D02*
X90728721Y-95597676D01*
X90728721Y-95597676D02*
X90633483Y-95692914D01*
X90633483Y-95692914D02*
X90538245Y-95740533D01*
X71666666Y-99439819D02*
X71666666Y-100154104D01*
X71666666Y-100154104D02*
X71619047Y-100296961D01*
X71619047Y-100296961D02*
X71523809Y-100392200D01*
X71523809Y-100392200D02*
X71380952Y-100439819D01*
X71380952Y-100439819D02*
X71285714Y-100439819D01*
X72666666Y-100439819D02*
X72095238Y-100439819D01*
X72380952Y-100439819D02*
X72380952Y-99439819D01*
X72380952Y-99439819D02*
X72285714Y-99582676D01*
X72285714Y-99582676D02*
X72190476Y-99677914D01*
X72190476Y-99677914D02*
X72095238Y-99725533D01*
X71666666Y-92709819D02*
X71666666Y-93424104D01*
X71666666Y-93424104D02*
X71619047Y-93566961D01*
X71619047Y-93566961D02*
X71523809Y-93662200D01*
X71523809Y-93662200D02*
X71380952Y-93709819D01*
X71380952Y-93709819D02*
X71285714Y-93709819D01*
X72571428Y-93043152D02*
X72571428Y-93709819D01*
X72333333Y-92662200D02*
X72095238Y-93376485D01*
X72095238Y-93376485D02*
X72714285Y-93376485D01*
X106799693Y-92343517D02*
X106092587Y-91636410D01*
X106092587Y-91636410D02*
X106260945Y-91468051D01*
X106260945Y-91468051D02*
X106395632Y-91400708D01*
X106395632Y-91400708D02*
X106530319Y-91400708D01*
X106530319Y-91400708D02*
X106631335Y-91434380D01*
X106631335Y-91434380D02*
X106799693Y-91535395D01*
X106799693Y-91535395D02*
X106900709Y-91636410D01*
X106900709Y-91636410D02*
X107001724Y-91804769D01*
X107001724Y-91804769D02*
X107035396Y-91905784D01*
X107035396Y-91905784D02*
X107035396Y-92040471D01*
X107035396Y-92040471D02*
X106968052Y-92175158D01*
X106968052Y-92175158D02*
X106799693Y-92343517D01*
X107877189Y-91266021D02*
X107473128Y-91670082D01*
X107675159Y-91468051D02*
X106968052Y-90760945D01*
X106968052Y-90760945D02*
X107001724Y-90929303D01*
X107001724Y-90929303D02*
X107001724Y-91063990D01*
X107001724Y-91063990D02*
X106968052Y-91165006D01*
X88479333Y-107980819D02*
X88146000Y-107504628D01*
X87907905Y-107980819D02*
X87907905Y-106980819D01*
X87907905Y-106980819D02*
X88288857Y-106980819D01*
X88288857Y-106980819D02*
X88384095Y-107028438D01*
X88384095Y-107028438D02*
X88431714Y-107076057D01*
X88431714Y-107076057D02*
X88479333Y-107171295D01*
X88479333Y-107171295D02*
X88479333Y-107314152D01*
X88479333Y-107314152D02*
X88431714Y-107409390D01*
X88431714Y-107409390D02*
X88384095Y-107457009D01*
X88384095Y-107457009D02*
X88288857Y-107504628D01*
X88288857Y-107504628D02*
X87907905Y-107504628D01*
X89431714Y-107980819D02*
X88860286Y-107980819D01*
X89146000Y-107980819D02*
X89146000Y-106980819D01*
X89146000Y-106980819D02*
X89050762Y-107123676D01*
X89050762Y-107123676D02*
X88955524Y-107218914D01*
X88955524Y-107218914D02*
X88860286Y-107266533D01*
X115333333Y-96359580D02*
X115285714Y-96407200D01*
X115285714Y-96407200D02*
X115142857Y-96454819D01*
X115142857Y-96454819D02*
X115047619Y-96454819D01*
X115047619Y-96454819D02*
X114904762Y-96407200D01*
X114904762Y-96407200D02*
X114809524Y-96311961D01*
X114809524Y-96311961D02*
X114761905Y-96216723D01*
X114761905Y-96216723D02*
X114714286Y-96026247D01*
X114714286Y-96026247D02*
X114714286Y-95883390D01*
X114714286Y-95883390D02*
X114761905Y-95692914D01*
X114761905Y-95692914D02*
X114809524Y-95597676D01*
X114809524Y-95597676D02*
X114904762Y-95502438D01*
X114904762Y-95502438D02*
X115047619Y-95454819D01*
X115047619Y-95454819D02*
X115142857Y-95454819D01*
X115142857Y-95454819D02*
X115285714Y-95502438D01*
X115285714Y-95502438D02*
X115333333Y-95550057D01*
X115714286Y-95550057D02*
X115761905Y-95502438D01*
X115761905Y-95502438D02*
X115857143Y-95454819D01*
X115857143Y-95454819D02*
X116095238Y-95454819D01*
X116095238Y-95454819D02*
X116190476Y-95502438D01*
X116190476Y-95502438D02*
X116238095Y-95550057D01*
X116238095Y-95550057D02*
X116285714Y-95645295D01*
X116285714Y-95645295D02*
X116285714Y-95740533D01*
X116285714Y-95740533D02*
X116238095Y-95883390D01*
X116238095Y-95883390D02*
X115666667Y-96454819D01*
X115666667Y-96454819D02*
X116285714Y-96454819D01*
X91476190Y-55417438D02*
X92619047Y-55417438D01*
X92047618Y-57417438D02*
X92047618Y-55417438D01*
X94333333Y-57417438D02*
X93190476Y-57417438D01*
X93761904Y-57417438D02*
X93761904Y-55417438D01*
X93761904Y-55417438D02*
X93571428Y-55703152D01*
X93571428Y-55703152D02*
X93380952Y-55893628D01*
X93380952Y-55893628D02*
X93190476Y-55988866D01*
X101655421Y-97304819D02*
X101655421Y-98019104D01*
X101655421Y-98019104D02*
X101607802Y-98161961D01*
X101607802Y-98161961D02*
X101512564Y-98257200D01*
X101512564Y-98257200D02*
X101369707Y-98304819D01*
X101369707Y-98304819D02*
X101274469Y-98304819D01*
X102083993Y-97400057D02*
X102131612Y-97352438D01*
X102131612Y-97352438D02*
X102226850Y-97304819D01*
X102226850Y-97304819D02*
X102464945Y-97304819D01*
X102464945Y-97304819D02*
X102560183Y-97352438D01*
X102560183Y-97352438D02*
X102607802Y-97400057D01*
X102607802Y-97400057D02*
X102655421Y-97495295D01*
X102655421Y-97495295D02*
X102655421Y-97590533D01*
X102655421Y-97590533D02*
X102607802Y-97733390D01*
X102607802Y-97733390D02*
X102036374Y-98304819D01*
X102036374Y-98304819D02*
X102655421Y-98304819D01*
D11*
%TO.C,LED1*%
X91246000Y-99000000D02*
X91246000Y-100330000D01*
X89916000Y-99000000D02*
X91246000Y-99000000D01*
X88646000Y-99000000D02*
X86046000Y-99000000D01*
X88646000Y-99000000D02*
X88646000Y-101660000D01*
X86046000Y-99000000D02*
X86046000Y-101660000D01*
X88646000Y-101660000D02*
X86046000Y-101660000D01*
D12*
%TO.C,J3*%
X92493380Y-110032990D02*
X92493380Y-109032230D01*
X92493740Y-109032230D02*
X93994520Y-109032230D01*
X92593740Y-109283690D02*
X113494100Y-109283690D01*
X92593740Y-109784070D02*
X113393740Y-109784070D01*
X93994520Y-99033390D02*
X93994520Y-109533390D01*
X97493740Y-97533390D02*
X100993740Y-97533390D01*
X108493740Y-97533390D02*
X104993740Y-97533390D01*
X111992960Y-99033390D02*
X111992960Y-109533390D01*
X111993350Y-109033390D02*
X113494130Y-109033390D01*
X113494100Y-109032230D02*
X113494100Y-110032990D01*
X113494100Y-109532610D02*
X92493380Y-109532610D01*
X113494100Y-110032990D02*
X92493380Y-110032990D01*
D11*
%TO.C,C1*%
X97141041Y-91575000D02*
X95891041Y-91575000D01*
X96516041Y-92200000D02*
X96516041Y-90950000D01*
X90323959Y-94330000D02*
X90323959Y-81670000D01*
X90283959Y-94330000D02*
X90283959Y-81670000D01*
X90243959Y-94330000D02*
X90243959Y-81670000D01*
X90203959Y-94329000D02*
X90203959Y-81671000D01*
X90163959Y-94328000D02*
X90163959Y-81672000D01*
X90123959Y-94327000D02*
X90123959Y-81673000D01*
X90083959Y-94326000D02*
X90083959Y-81674000D01*
X90043959Y-94324000D02*
X90043959Y-81676000D01*
X90003959Y-94322000D02*
X90003959Y-81678000D01*
X89963959Y-94320000D02*
X89963959Y-81680000D01*
X89923959Y-94318000D02*
X89923959Y-81682000D01*
X89883959Y-94315000D02*
X89883959Y-81685000D01*
X89843959Y-94312000D02*
X89843959Y-81688000D01*
X89803959Y-94309000D02*
X89803959Y-81691000D01*
X89763959Y-94306000D02*
X89763959Y-81694000D01*
X89723959Y-94302000D02*
X89723959Y-81698000D01*
X89683959Y-94298000D02*
X89683959Y-81702000D01*
X89643959Y-94294000D02*
X89643959Y-81706000D01*
X89602959Y-94290000D02*
X89602959Y-81710000D01*
X89562959Y-94285000D02*
X89562959Y-81715000D01*
X89522959Y-94280000D02*
X89522959Y-81720000D01*
X89482959Y-94275000D02*
X89482959Y-81725000D01*
X89442959Y-94269000D02*
X89442959Y-81731000D01*
X89402959Y-94264000D02*
X89402959Y-81736000D01*
X89362959Y-94258000D02*
X89362959Y-81742000D01*
X89322959Y-94252000D02*
X89322959Y-81748000D01*
X89282959Y-94245000D02*
X89282959Y-81755000D01*
X89242959Y-94238000D02*
X89242959Y-89440000D01*
X89242959Y-86560000D02*
X89242959Y-81762000D01*
X89202959Y-94231000D02*
X89202959Y-89440000D01*
X89202959Y-86560000D02*
X89202959Y-81769000D01*
X89162959Y-94224000D02*
X89162959Y-89440000D01*
X89162959Y-86560000D02*
X89162959Y-81776000D01*
X89122959Y-94216000D02*
X89122959Y-89440000D01*
X89122959Y-86560000D02*
X89122959Y-81784000D01*
X89082959Y-94209000D02*
X89082959Y-89440000D01*
X89082959Y-86560000D02*
X89082959Y-81791000D01*
X89042959Y-94201000D02*
X89042959Y-89440000D01*
X89042959Y-86560000D02*
X89042959Y-81799000D01*
X89002959Y-94192000D02*
X89002959Y-89440000D01*
X89002959Y-86560000D02*
X89002959Y-81808000D01*
X88962959Y-94184000D02*
X88962959Y-89440000D01*
X88962959Y-86560000D02*
X88962959Y-81816000D01*
X88922959Y-94175000D02*
X88922959Y-89440000D01*
X88922959Y-86560000D02*
X88922959Y-81825000D01*
X88882959Y-94166000D02*
X88882959Y-89440000D01*
X88882959Y-86560000D02*
X88882959Y-81834000D01*
X88842959Y-94156000D02*
X88842959Y-89440000D01*
X88842959Y-86560000D02*
X88842959Y-81844000D01*
X88802959Y-94146000D02*
X88802959Y-89440000D01*
X88802959Y-86560000D02*
X88802959Y-81854000D01*
X88762959Y-94137000D02*
X88762959Y-89440000D01*
X88762959Y-86560000D02*
X88762959Y-81863000D01*
X88722959Y-94126000D02*
X88722959Y-89440000D01*
X88722959Y-86560000D02*
X88722959Y-81874000D01*
X88682959Y-94116000D02*
X88682959Y-89440000D01*
X88682959Y-86560000D02*
X88682959Y-81884000D01*
X88642959Y-94105000D02*
X88642959Y-89440000D01*
X88642959Y-86560000D02*
X88642959Y-81895000D01*
X88602959Y-94094000D02*
X88602959Y-89440000D01*
X88602959Y-86560000D02*
X88602959Y-81906000D01*
X88562959Y-94083000D02*
X88562959Y-89440000D01*
X88562959Y-86560000D02*
X88562959Y-81917000D01*
X88522959Y-94071000D02*
X88522959Y-89440000D01*
X88522959Y-86560000D02*
X88522959Y-81929000D01*
X88482959Y-94059000D02*
X88482959Y-89440000D01*
X88482959Y-86560000D02*
X88482959Y-81941000D01*
X88442959Y-94047000D02*
X88442959Y-89440000D01*
X88442959Y-86560000D02*
X88442959Y-81953000D01*
X88402959Y-94034000D02*
X88402959Y-89440000D01*
X88402959Y-86560000D02*
X88402959Y-81966000D01*
X88362959Y-94021000D02*
X88362959Y-89440000D01*
X88362959Y-86560000D02*
X88362959Y-81979000D01*
X88322959Y-94008000D02*
X88322959Y-89440000D01*
X88322959Y-86560000D02*
X88322959Y-81992000D01*
X88282959Y-93995000D02*
X88282959Y-89440000D01*
X88282959Y-86560000D02*
X88282959Y-82005000D01*
X88242959Y-93981000D02*
X88242959Y-89440000D01*
X88242959Y-86560000D02*
X88242959Y-82019000D01*
X88202959Y-93967000D02*
X88202959Y-89440000D01*
X88202959Y-86560000D02*
X88202959Y-82033000D01*
X88162959Y-93953000D02*
X88162959Y-89440000D01*
X88162959Y-86560000D02*
X88162959Y-82047000D01*
X88122959Y-93939000D02*
X88122959Y-89440000D01*
X88122959Y-86560000D02*
X88122959Y-82061000D01*
X88082959Y-93924000D02*
X88082959Y-89440000D01*
X88082959Y-86560000D02*
X88082959Y-82076000D01*
X88042959Y-93908000D02*
X88042959Y-89440000D01*
X88042959Y-86560000D02*
X88042959Y-82092000D01*
X88002959Y-93893000D02*
X88002959Y-89440000D01*
X88002959Y-86560000D02*
X88002959Y-82107000D01*
X87962959Y-93877000D02*
X87962959Y-89440000D01*
X87962959Y-86560000D02*
X87962959Y-82123000D01*
X87922959Y-93861000D02*
X87922959Y-89440000D01*
X87922959Y-86560000D02*
X87922959Y-82139000D01*
X87882959Y-93845000D02*
X87882959Y-89440000D01*
X87882959Y-86560000D02*
X87882959Y-82155000D01*
X87842959Y-93828000D02*
X87842959Y-89440000D01*
X87842959Y-86560000D02*
X87842959Y-82172000D01*
X87802959Y-93811000D02*
X87802959Y-89440000D01*
X87802959Y-86560000D02*
X87802959Y-82189000D01*
X87762959Y-93793000D02*
X87762959Y-89440000D01*
X87762959Y-86560000D02*
X87762959Y-82207000D01*
X87722959Y-93776000D02*
X87722959Y-89440000D01*
X87722959Y-86560000D02*
X87722959Y-82224000D01*
X87682959Y-93758000D02*
X87682959Y-89440000D01*
X87682959Y-86560000D02*
X87682959Y-82242000D01*
X87642959Y-93739000D02*
X87642959Y-89440000D01*
X87642959Y-86560000D02*
X87642959Y-82261000D01*
X87602959Y-93721000D02*
X87602959Y-89440000D01*
X87602959Y-86560000D02*
X87602959Y-82279000D01*
X87562959Y-93702000D02*
X87562959Y-89440000D01*
X87562959Y-86560000D02*
X87562959Y-82298000D01*
X87522959Y-93682000D02*
X87522959Y-89440000D01*
X87522959Y-86560000D02*
X87522959Y-82318000D01*
X87482959Y-93662000D02*
X87482959Y-89440000D01*
X87482959Y-86560000D02*
X87482959Y-82338000D01*
X87442959Y-93642000D02*
X87442959Y-89440000D01*
X87442959Y-86560000D02*
X87442959Y-82358000D01*
X87402959Y-93622000D02*
X87402959Y-89440000D01*
X87402959Y-86560000D02*
X87402959Y-82378000D01*
X87362959Y-93601000D02*
X87362959Y-89440000D01*
X87362959Y-86560000D02*
X87362959Y-82399000D01*
X87322959Y-93580000D02*
X87322959Y-89440000D01*
X87322959Y-86560000D02*
X87322959Y-82420000D01*
X87282959Y-93558000D02*
X87282959Y-89440000D01*
X87282959Y-86560000D02*
X87282959Y-82442000D01*
X87242959Y-93536000D02*
X87242959Y-89440000D01*
X87242959Y-86560000D02*
X87242959Y-82464000D01*
X87202959Y-93514000D02*
X87202959Y-89440000D01*
X87202959Y-86560000D02*
X87202959Y-82486000D01*
X87162959Y-93491000D02*
X87162959Y-89440000D01*
X87162959Y-86560000D02*
X87162959Y-82509000D01*
X87122959Y-93468000D02*
X87122959Y-89440000D01*
X87122959Y-86560000D02*
X87122959Y-82532000D01*
X87082959Y-93445000D02*
X87082959Y-89440000D01*
X87082959Y-86560000D02*
X87082959Y-82555000D01*
X87042959Y-93421000D02*
X87042959Y-89440000D01*
X87042959Y-86560000D02*
X87042959Y-82579000D01*
X87002959Y-93397000D02*
X87002959Y-89440000D01*
X87002959Y-86560000D02*
X87002959Y-82603000D01*
X86962959Y-93372000D02*
X86962959Y-89440000D01*
X86962959Y-86560000D02*
X86962959Y-82628000D01*
X86922959Y-93347000D02*
X86922959Y-89440000D01*
X86922959Y-86560000D02*
X86922959Y-82653000D01*
X86882959Y-93322000D02*
X86882959Y-89440000D01*
X86882959Y-86560000D02*
X86882959Y-82678000D01*
X86842959Y-93296000D02*
X86842959Y-89440000D01*
X86842959Y-86560000D02*
X86842959Y-82704000D01*
X86802959Y-93270000D02*
X86802959Y-89440000D01*
X86802959Y-86560000D02*
X86802959Y-82730000D01*
X86762959Y-93243000D02*
X86762959Y-89440000D01*
X86762959Y-86560000D02*
X86762959Y-82757000D01*
X86722959Y-93216000D02*
X86722959Y-89440000D01*
X86722959Y-86560000D02*
X86722959Y-82784000D01*
X86682959Y-93188000D02*
X86682959Y-89440000D01*
X86682959Y-86560000D02*
X86682959Y-82812000D01*
X86642959Y-93160000D02*
X86642959Y-89440000D01*
X86642959Y-86560000D02*
X86642959Y-82840000D01*
X86602959Y-93131000D02*
X86602959Y-89440000D01*
X86602959Y-86560000D02*
X86602959Y-82869000D01*
X86562959Y-93102000D02*
X86562959Y-89440000D01*
X86562959Y-86560000D02*
X86562959Y-82898000D01*
X86522959Y-93073000D02*
X86522959Y-89440000D01*
X86522959Y-86560000D02*
X86522959Y-82927000D01*
X86482959Y-93043000D02*
X86482959Y-89440000D01*
X86482959Y-86560000D02*
X86482959Y-82957000D01*
X86442959Y-93012000D02*
X86442959Y-89440000D01*
X86442959Y-86560000D02*
X86442959Y-82988000D01*
X86402959Y-92982000D02*
X86402959Y-89440000D01*
X86402959Y-86560000D02*
X86402959Y-83018000D01*
X86362959Y-92950000D02*
X86362959Y-83050000D01*
X86322959Y-92918000D02*
X86322959Y-83082000D01*
X86282959Y-92885000D02*
X86282959Y-83115000D01*
X86242959Y-92852000D02*
X86242959Y-83148000D01*
X86202959Y-92819000D02*
X86202959Y-83181000D01*
X86162959Y-92785000D02*
X86162959Y-83215000D01*
X86122959Y-92750000D02*
X86122959Y-83250000D01*
X86082959Y-92714000D02*
X86082959Y-83286000D01*
X86042959Y-92678000D02*
X86042959Y-83322000D01*
X86002959Y-92642000D02*
X86002959Y-83358000D01*
X85962959Y-92605000D02*
X85962959Y-83395000D01*
X85922959Y-92567000D02*
X85922959Y-83433000D01*
X85882959Y-92528000D02*
X85882959Y-83472000D01*
X85842959Y-92489000D02*
X85842959Y-83511000D01*
X85802959Y-92449000D02*
X85802959Y-83551000D01*
X85762959Y-92408000D02*
X85762959Y-83592000D01*
X85722959Y-92367000D02*
X85722959Y-83633000D01*
X85682959Y-92325000D02*
X85682959Y-83675000D01*
X85642959Y-92282000D02*
X85642959Y-83718000D01*
X85602959Y-92238000D02*
X85602959Y-83762000D01*
X85562959Y-92194000D02*
X85562959Y-83806000D01*
X85522959Y-92148000D02*
X85522959Y-83852000D01*
X85482959Y-92102000D02*
X85482959Y-83898000D01*
X85442959Y-92055000D02*
X85442959Y-83945000D01*
X85402959Y-92007000D02*
X85402959Y-83993000D01*
X85362959Y-91957000D02*
X85362959Y-84043000D01*
X85322959Y-91907000D02*
X85322959Y-84093000D01*
X85282959Y-91856000D02*
X85282959Y-84144000D01*
X85242959Y-91804000D02*
X85242959Y-84196000D01*
X85202959Y-91750000D02*
X85202959Y-84250000D01*
X85162959Y-91696000D02*
X85162959Y-84304000D01*
X85122959Y-91640000D02*
X85122959Y-84360000D01*
X85082959Y-91583000D02*
X85082959Y-84417000D01*
X85042959Y-91524000D02*
X85042959Y-84476000D01*
X85002959Y-91464000D02*
X85002959Y-84536000D01*
X84962959Y-91402000D02*
X84962959Y-84598000D01*
X84922959Y-91339000D02*
X84922959Y-84661000D01*
X84882959Y-91275000D02*
X84882959Y-84725000D01*
X84842959Y-91208000D02*
X84842959Y-84792000D01*
X84802959Y-91140000D02*
X84802959Y-84860000D01*
X84762959Y-91069000D02*
X84762959Y-84931000D01*
X84722959Y-90996000D02*
X84722959Y-85004000D01*
X84682959Y-90921000D02*
X84682959Y-85079000D01*
X84642959Y-90844000D02*
X84642959Y-85156000D01*
X84602959Y-90764000D02*
X84602959Y-85236000D01*
X84562959Y-90681000D02*
X84562959Y-85319000D01*
X84522959Y-90594000D02*
X84522959Y-85406000D01*
X84482959Y-90504000D02*
X84482959Y-85496000D01*
X84442959Y-90410000D02*
X84442959Y-85590000D01*
X84402959Y-90312000D02*
X84402959Y-85688000D01*
X84362959Y-90209000D02*
X84362959Y-85791000D01*
X84322959Y-90100000D02*
X84322959Y-85900000D01*
X84282959Y-89984000D02*
X84282959Y-86016000D01*
X84242959Y-89861000D02*
X84242959Y-86139000D01*
X84202959Y-89728000D02*
X84202959Y-86272000D01*
X84162959Y-89583000D02*
X84162959Y-86417000D01*
X84122959Y-89422000D02*
X84122959Y-86578000D01*
X84082959Y-89241000D02*
X84082959Y-86759000D01*
X84042959Y-89028000D02*
X84042959Y-86972000D01*
X84002959Y-88757000D02*
X84002959Y-87243000D01*
X83962959Y-88317000D02*
X83962959Y-87683000D01*
X96693959Y-88000000D02*
G75*
G03*
X96693959Y-88000000I-6370000J0D01*
G01*
%TO.C,J1*%
X67710000Y-91105000D02*
X67710000Y-95105000D01*
X68000000Y-87885000D02*
X76000000Y-87885000D01*
X68000000Y-97110000D02*
X68000000Y-87885000D01*
X69220000Y-87885000D02*
X69220000Y-88485000D01*
X69220000Y-88485000D02*
X70820000Y-88485000D01*
X69905000Y-97110000D02*
X68000000Y-97110000D01*
X69905000Y-98115000D02*
X69905000Y-97110000D01*
X70020000Y-95445000D02*
X73980000Y-95445000D01*
X70020000Y-97115000D02*
X70020000Y-95445000D01*
X70020000Y-97115000D02*
X73980000Y-97115000D01*
X70020000Y-98115000D02*
X70020000Y-97115000D01*
X70820000Y-88485000D02*
X70820000Y-87885000D01*
X73180000Y-87885000D02*
X73180000Y-88485000D01*
X73180000Y-88485000D02*
X74780000Y-88485000D01*
X73980000Y-95445000D02*
X73980000Y-97115000D01*
X73980000Y-97115000D02*
X73980000Y-98115000D01*
X74095000Y-97110000D02*
X74095000Y-98115000D01*
X74095000Y-98115000D02*
X69905000Y-98115000D01*
X74780000Y-88485000D02*
X74780000Y-87885000D01*
X76000000Y-87885000D02*
X76000000Y-97110000D01*
X76000000Y-97110000D02*
X74095000Y-97110000D01*
%TO.C,J4*%
X76285000Y-85345000D02*
X76285000Y-81345000D01*
X75995000Y-92165000D02*
X68005000Y-92165000D01*
X75995000Y-88645000D02*
X75995000Y-92165000D01*
X74780000Y-92165000D02*
X74780000Y-91565000D01*
X74780000Y-91565000D02*
X73180000Y-91565000D01*
X73180000Y-91565000D02*
X73180000Y-92165000D01*
X70820000Y-92165000D02*
X70820000Y-91565000D01*
X70820000Y-91565000D02*
X69220000Y-91565000D01*
X69220000Y-91565000D02*
X69220000Y-92165000D01*
X68005000Y-92165000D02*
X68005000Y-88645000D01*
X68005000Y-88645000D02*
X75995000Y-88645000D01*
%TO.C,D1*%
X103808223Y-92847038D02*
X107939141Y-88716121D01*
X107939140Y-88716121D02*
G75*
G03*
X102191777Y-92847038I-4939140J808223D01*
G01*
%TO.C,R1*%
X91916000Y-106526000D02*
X85376000Y-106526000D01*
X91916000Y-106196000D02*
X91916000Y-106526000D01*
X91916000Y-104116000D02*
X91916000Y-103786000D01*
X91916000Y-103786000D02*
X85376000Y-103786000D01*
X85376000Y-106526000D02*
X85376000Y-106196000D01*
X85376000Y-103786000D02*
X85376000Y-104116000D01*
%TO.C,C2*%
X108682918Y-84425000D02*
X109932918Y-84425000D01*
X109307918Y-83800000D02*
X109307918Y-85050000D01*
X115500000Y-81670000D02*
X115500000Y-94330000D01*
X115540000Y-81670000D02*
X115540000Y-94330000D01*
X115580000Y-81670000D02*
X115580000Y-94330000D01*
X115620000Y-81671000D02*
X115620000Y-94329000D01*
X115660000Y-81672000D02*
X115660000Y-94328000D01*
X115700000Y-81673000D02*
X115700000Y-94327000D01*
X115740000Y-81674000D02*
X115740000Y-94326000D01*
X115780000Y-81676000D02*
X115780000Y-94324000D01*
X115820000Y-81678000D02*
X115820000Y-94322000D01*
X115860000Y-81680000D02*
X115860000Y-94320000D01*
X115900000Y-81682000D02*
X115900000Y-94318000D01*
X115940000Y-81685000D02*
X115940000Y-94315000D01*
X115980000Y-81688000D02*
X115980000Y-94312000D01*
X116020000Y-81691000D02*
X116020000Y-94309000D01*
X116060000Y-81694000D02*
X116060000Y-94306000D01*
X116100000Y-81698000D02*
X116100000Y-94302000D01*
X116140000Y-81702000D02*
X116140000Y-94298000D01*
X116180000Y-81706000D02*
X116180000Y-94294000D01*
X116221000Y-81710000D02*
X116221000Y-94290000D01*
X116261000Y-81715000D02*
X116261000Y-94285000D01*
X116301000Y-81720000D02*
X116301000Y-94280000D01*
X116341000Y-81725000D02*
X116341000Y-94275000D01*
X116381000Y-81731000D02*
X116381000Y-94269000D01*
X116421000Y-81736000D02*
X116421000Y-94264000D01*
X116461000Y-81742000D02*
X116461000Y-94258000D01*
X116501000Y-81748000D02*
X116501000Y-94252000D01*
X116541000Y-81755000D02*
X116541000Y-94245000D01*
X116581000Y-81762000D02*
X116581000Y-86560000D01*
X116581000Y-89440000D02*
X116581000Y-94238000D01*
X116621000Y-81769000D02*
X116621000Y-86560000D01*
X116621000Y-89440000D02*
X116621000Y-94231000D01*
X116661000Y-81776000D02*
X116661000Y-86560000D01*
X116661000Y-89440000D02*
X116661000Y-94224000D01*
X116701000Y-81784000D02*
X116701000Y-86560000D01*
X116701000Y-89440000D02*
X116701000Y-94216000D01*
X116741000Y-81791000D02*
X116741000Y-86560000D01*
X116741000Y-89440000D02*
X116741000Y-94209000D01*
X116781000Y-81799000D02*
X116781000Y-86560000D01*
X116781000Y-89440000D02*
X116781000Y-94201000D01*
X116821000Y-81808000D02*
X116821000Y-86560000D01*
X116821000Y-89440000D02*
X116821000Y-94192000D01*
X116861000Y-81816000D02*
X116861000Y-86560000D01*
X116861000Y-89440000D02*
X116861000Y-94184000D01*
X116901000Y-81825000D02*
X116901000Y-86560000D01*
X116901000Y-89440000D02*
X116901000Y-94175000D01*
X116941000Y-81834000D02*
X116941000Y-86560000D01*
X116941000Y-89440000D02*
X116941000Y-94166000D01*
X116981000Y-81844000D02*
X116981000Y-86560000D01*
X116981000Y-89440000D02*
X116981000Y-94156000D01*
X117021000Y-81854000D02*
X117021000Y-86560000D01*
X117021000Y-89440000D02*
X117021000Y-94146000D01*
X117061000Y-81863000D02*
X117061000Y-86560000D01*
X117061000Y-89440000D02*
X117061000Y-94137000D01*
X117101000Y-81874000D02*
X117101000Y-86560000D01*
X117101000Y-89440000D02*
X117101000Y-94126000D01*
X117141000Y-81884000D02*
X117141000Y-86560000D01*
X117141000Y-89440000D02*
X117141000Y-94116000D01*
X117181000Y-81895000D02*
X117181000Y-86560000D01*
X117181000Y-89440000D02*
X117181000Y-94105000D01*
X117221000Y-81906000D02*
X117221000Y-86560000D01*
X117221000Y-89440000D02*
X117221000Y-94094000D01*
X117261000Y-81917000D02*
X117261000Y-86560000D01*
X117261000Y-89440000D02*
X117261000Y-94083000D01*
X117301000Y-81929000D02*
X117301000Y-86560000D01*
X117301000Y-89440000D02*
X117301000Y-94071000D01*
X117341000Y-81941000D02*
X117341000Y-86560000D01*
X117341000Y-89440000D02*
X117341000Y-94059000D01*
X117381000Y-81953000D02*
X117381000Y-86560000D01*
X117381000Y-89440000D02*
X117381000Y-94047000D01*
X117421000Y-81966000D02*
X117421000Y-86560000D01*
X117421000Y-89440000D02*
X117421000Y-94034000D01*
X117461000Y-81979000D02*
X117461000Y-86560000D01*
X117461000Y-89440000D02*
X117461000Y-94021000D01*
X117501000Y-81992000D02*
X117501000Y-86560000D01*
X117501000Y-89440000D02*
X117501000Y-94008000D01*
X117541000Y-82005000D02*
X117541000Y-86560000D01*
X117541000Y-89440000D02*
X117541000Y-93995000D01*
X117581000Y-82019000D02*
X117581000Y-86560000D01*
X117581000Y-89440000D02*
X117581000Y-93981000D01*
X117621000Y-82033000D02*
X117621000Y-86560000D01*
X117621000Y-89440000D02*
X117621000Y-93967000D01*
X117661000Y-82047000D02*
X117661000Y-86560000D01*
X117661000Y-89440000D02*
X117661000Y-93953000D01*
X117701000Y-82061000D02*
X117701000Y-86560000D01*
X117701000Y-89440000D02*
X117701000Y-93939000D01*
X117741000Y-82076000D02*
X117741000Y-86560000D01*
X117741000Y-89440000D02*
X117741000Y-93924000D01*
X117781000Y-82092000D02*
X117781000Y-86560000D01*
X117781000Y-89440000D02*
X117781000Y-93908000D01*
X117821000Y-82107000D02*
X117821000Y-86560000D01*
X117821000Y-89440000D02*
X117821000Y-93893000D01*
X117861000Y-82123000D02*
X117861000Y-86560000D01*
X117861000Y-89440000D02*
X117861000Y-93877000D01*
X117901000Y-82139000D02*
X117901000Y-86560000D01*
X117901000Y-89440000D02*
X117901000Y-93861000D01*
X117941000Y-82155000D02*
X117941000Y-86560000D01*
X117941000Y-89440000D02*
X117941000Y-93845000D01*
X117981000Y-82172000D02*
X117981000Y-86560000D01*
X117981000Y-89440000D02*
X117981000Y-93828000D01*
X118021000Y-82189000D02*
X118021000Y-86560000D01*
X118021000Y-89440000D02*
X118021000Y-93811000D01*
X118061000Y-82207000D02*
X118061000Y-86560000D01*
X118061000Y-89440000D02*
X118061000Y-93793000D01*
X118101000Y-82224000D02*
X118101000Y-86560000D01*
X118101000Y-89440000D02*
X118101000Y-93776000D01*
X118141000Y-82242000D02*
X118141000Y-86560000D01*
X118141000Y-89440000D02*
X118141000Y-93758000D01*
X118181000Y-82261000D02*
X118181000Y-86560000D01*
X118181000Y-89440000D02*
X118181000Y-93739000D01*
X118221000Y-82279000D02*
X118221000Y-86560000D01*
X118221000Y-89440000D02*
X118221000Y-93721000D01*
X118261000Y-82298000D02*
X118261000Y-86560000D01*
X118261000Y-89440000D02*
X118261000Y-93702000D01*
X118301000Y-82318000D02*
X118301000Y-86560000D01*
X118301000Y-89440000D02*
X118301000Y-93682000D01*
X118341000Y-82338000D02*
X118341000Y-86560000D01*
X118341000Y-89440000D02*
X118341000Y-93662000D01*
X118381000Y-82358000D02*
X118381000Y-86560000D01*
X118381000Y-89440000D02*
X118381000Y-93642000D01*
X118421000Y-82378000D02*
X118421000Y-86560000D01*
X118421000Y-89440000D02*
X118421000Y-93622000D01*
X118461000Y-82399000D02*
X118461000Y-86560000D01*
X118461000Y-89440000D02*
X118461000Y-93601000D01*
X118501000Y-82420000D02*
X118501000Y-86560000D01*
X118501000Y-89440000D02*
X118501000Y-93580000D01*
X118541000Y-82442000D02*
X118541000Y-86560000D01*
X118541000Y-89440000D02*
X118541000Y-93558000D01*
X118581000Y-82464000D02*
X118581000Y-86560000D01*
X118581000Y-89440000D02*
X118581000Y-93536000D01*
X118621000Y-82486000D02*
X118621000Y-86560000D01*
X118621000Y-89440000D02*
X118621000Y-93514000D01*
X118661000Y-82509000D02*
X118661000Y-86560000D01*
X118661000Y-89440000D02*
X118661000Y-93491000D01*
X118701000Y-82532000D02*
X118701000Y-86560000D01*
X118701000Y-89440000D02*
X118701000Y-93468000D01*
X118741000Y-82555000D02*
X118741000Y-86560000D01*
X118741000Y-89440000D02*
X118741000Y-93445000D01*
X118781000Y-82579000D02*
X118781000Y-86560000D01*
X118781000Y-89440000D02*
X118781000Y-93421000D01*
X118821000Y-82603000D02*
X118821000Y-86560000D01*
X118821000Y-89440000D02*
X118821000Y-93397000D01*
X118861000Y-82628000D02*
X118861000Y-86560000D01*
X118861000Y-89440000D02*
X118861000Y-93372000D01*
X118901000Y-82653000D02*
X118901000Y-86560000D01*
X118901000Y-89440000D02*
X118901000Y-93347000D01*
X118941000Y-82678000D02*
X118941000Y-86560000D01*
X118941000Y-89440000D02*
X118941000Y-93322000D01*
X118981000Y-82704000D02*
X118981000Y-86560000D01*
X118981000Y-89440000D02*
X118981000Y-93296000D01*
X119021000Y-82730000D02*
X119021000Y-86560000D01*
X119021000Y-89440000D02*
X119021000Y-93270000D01*
X119061000Y-82757000D02*
X119061000Y-86560000D01*
X119061000Y-89440000D02*
X119061000Y-93243000D01*
X119101000Y-82784000D02*
X119101000Y-86560000D01*
X119101000Y-89440000D02*
X119101000Y-93216000D01*
X119141000Y-82812000D02*
X119141000Y-86560000D01*
X119141000Y-89440000D02*
X119141000Y-93188000D01*
X119181000Y-82840000D02*
X119181000Y-86560000D01*
X119181000Y-89440000D02*
X119181000Y-93160000D01*
X119221000Y-82869000D02*
X119221000Y-86560000D01*
X119221000Y-89440000D02*
X119221000Y-93131000D01*
X119261000Y-82898000D02*
X119261000Y-86560000D01*
X119261000Y-89440000D02*
X119261000Y-93102000D01*
X119301000Y-82927000D02*
X119301000Y-86560000D01*
X119301000Y-89440000D02*
X119301000Y-93073000D01*
X119341000Y-82957000D02*
X119341000Y-86560000D01*
X119341000Y-89440000D02*
X119341000Y-93043000D01*
X119381000Y-82988000D02*
X119381000Y-86560000D01*
X119381000Y-89440000D02*
X119381000Y-93012000D01*
X119421000Y-83018000D02*
X119421000Y-86560000D01*
X119421000Y-89440000D02*
X119421000Y-92982000D01*
X119461000Y-83050000D02*
X119461000Y-92950000D01*
X119501000Y-83082000D02*
X119501000Y-92918000D01*
X119541000Y-83115000D02*
X119541000Y-92885000D01*
X119581000Y-83148000D02*
X119581000Y-92852000D01*
X119621000Y-83181000D02*
X119621000Y-92819000D01*
X119661000Y-83215000D02*
X119661000Y-92785000D01*
X119701000Y-83250000D02*
X119701000Y-92750000D01*
X119741000Y-83286000D02*
X119741000Y-92714000D01*
X119781000Y-83322000D02*
X119781000Y-92678000D01*
X119821000Y-83358000D02*
X119821000Y-92642000D01*
X119861000Y-83395000D02*
X119861000Y-92605000D01*
X119901000Y-83433000D02*
X119901000Y-92567000D01*
X119941000Y-83472000D02*
X119941000Y-92528000D01*
X119981000Y-83511000D02*
X119981000Y-92489000D01*
X120021000Y-83551000D02*
X120021000Y-92449000D01*
X120061000Y-83592000D02*
X120061000Y-92408000D01*
X120101000Y-83633000D02*
X120101000Y-92367000D01*
X120141000Y-83675000D02*
X120141000Y-92325000D01*
X120181000Y-83718000D02*
X120181000Y-92282000D01*
X120221000Y-83762000D02*
X120221000Y-92238000D01*
X120261000Y-83806000D02*
X120261000Y-92194000D01*
X120301000Y-83852000D02*
X120301000Y-92148000D01*
X120341000Y-83898000D02*
X120341000Y-92102000D01*
X120381000Y-83945000D02*
X120381000Y-92055000D01*
X120421000Y-83993000D02*
X120421000Y-92007000D01*
X120461000Y-84043000D02*
X120461000Y-91957000D01*
X120501000Y-84093000D02*
X120501000Y-91907000D01*
X120541000Y-84144000D02*
X120541000Y-91856000D01*
X120581000Y-84196000D02*
X120581000Y-91804000D01*
X120621000Y-84250000D02*
X120621000Y-91750000D01*
X120661000Y-84304000D02*
X120661000Y-91696000D01*
X120701000Y-84360000D02*
X120701000Y-91640000D01*
X120741000Y-84417000D02*
X120741000Y-91583000D01*
X120781000Y-84476000D02*
X120781000Y-91524000D01*
X120821000Y-84536000D02*
X120821000Y-91464000D01*
X120861000Y-84598000D02*
X120861000Y-91402000D01*
X120901000Y-84661000D02*
X120901000Y-91339000D01*
X120941000Y-84725000D02*
X120941000Y-91275000D01*
X120981000Y-84792000D02*
X120981000Y-91208000D01*
X121021000Y-84860000D02*
X121021000Y-91140000D01*
X121061000Y-84931000D02*
X121061000Y-91069000D01*
X121101000Y-85004000D02*
X121101000Y-90996000D01*
X121141000Y-85079000D02*
X121141000Y-90921000D01*
X121181000Y-85156000D02*
X121181000Y-90844000D01*
X121221000Y-85236000D02*
X121221000Y-90764000D01*
X121261000Y-85319000D02*
X121261000Y-90681000D01*
X121301000Y-85406000D02*
X121301000Y-90594000D01*
X121341000Y-85496000D02*
X121341000Y-90504000D01*
X121381000Y-85590000D02*
X121381000Y-90410000D01*
X121421000Y-85688000D02*
X121421000Y-90312000D01*
X121461000Y-85791000D02*
X121461000Y-90209000D01*
X121501000Y-85900000D02*
X121501000Y-90100000D01*
X121541000Y-86016000D02*
X121541000Y-89984000D01*
X121581000Y-86139000D02*
X121581000Y-89861000D01*
X121621000Y-86272000D02*
X121621000Y-89728000D01*
X121661000Y-86417000D02*
X121661000Y-89583000D01*
X121701000Y-86578000D02*
X121701000Y-89422000D01*
X121741000Y-86759000D02*
X121741000Y-89241000D01*
X121781000Y-86972000D02*
X121781000Y-89028000D01*
X121821000Y-87243000D02*
X121821000Y-88757000D01*
X121861000Y-87683000D02*
X121861000Y-88317000D01*
X121870000Y-88000000D02*
G75*
G03*
X121870000Y-88000000I-6370000J0D01*
G01*
D13*
%TO.C,T1*%
X121600000Y-32600000D02*
X121600000Y-80400000D01*
X64400000Y-32600000D02*
X121600000Y-32600000D01*
X121600000Y-80400000D02*
X64400000Y-80400000D01*
X64400000Y-80400000D02*
X64400000Y-32600000D01*
D14*
X105640000Y-31330000D02*
G75*
G03*
X105640000Y-31330000I-100000J0D01*
G01*
D11*
%TO.C,J2*%
X96243755Y-99985000D02*
X96243755Y-103985000D01*
X96533755Y-98955000D02*
X96533755Y-104975000D01*
X96533755Y-104975000D02*
X109453755Y-104975000D01*
X97113755Y-98955000D02*
X97113755Y-99555000D01*
X97113755Y-99555000D02*
X98713755Y-99555000D01*
X97913755Y-103975000D02*
X98163755Y-103445000D01*
X97913755Y-103975000D02*
X108073755Y-103975000D01*
X97913755Y-104975000D02*
X97913755Y-103975000D01*
X98163755Y-103445000D02*
X107823755Y-103445000D01*
X98163755Y-104975000D02*
X98163755Y-103975000D01*
X98713755Y-99555000D02*
X98713755Y-98955000D01*
X99653755Y-98955000D02*
X99653755Y-99555000D01*
X99653755Y-99555000D02*
X101253755Y-99555000D01*
X101253755Y-99555000D02*
X101253755Y-98955000D01*
X102193755Y-98955000D02*
X102193755Y-99555000D01*
X102193755Y-99555000D02*
X103793755Y-99555000D01*
X103793755Y-99555000D02*
X103793755Y-98955000D01*
X104733755Y-98955000D02*
X104733755Y-99555000D01*
X104733755Y-99555000D02*
X106333755Y-99555000D01*
X106333755Y-99555000D02*
X106333755Y-98955000D01*
X107273755Y-98955000D02*
X107273755Y-99555000D01*
X107273755Y-99555000D02*
X108873755Y-99555000D01*
X107823755Y-103445000D02*
X108073755Y-103975000D01*
X107823755Y-104975000D02*
X107823755Y-103975000D01*
X108073755Y-103975000D02*
X108073755Y-104975000D01*
X108873755Y-99555000D02*
X108873755Y-98955000D01*
X109453755Y-98955000D02*
X96533755Y-98955000D01*
X109453755Y-104975000D02*
X109453755Y-98955000D01*
%TD*%
M02*
