%TF.GenerationSoftware,KiCad,Pcbnew,7.0.7*%
%TF.CreationDate,2024-03-18T21:13:49-04:00*%
%TF.ProjectId,M1PSX3,4d315053-5833-42e6-9b69-6361645f7063,rev?*%
%TF.SameCoordinates,Original*%
%TF.FileFunction,Copper,L2,Bot*%
%TF.FilePolarity,Positive*%
%FSLAX46Y46*%
G04 Gerber Fmt 4.6, Leading zero omitted, Abs format (unit mm)*
G04 Created by KiCad (PCBNEW 7.0.7) date 2024-03-18 21:13:49*
%MOMM*%
%LPD*%
G01*
G04 APERTURE LIST*
G04 Aperture macros list*
%AMRoundRect*
0 Rectangle with rounded corners*
0 $1 Rounding radius*
0 $2 $3 $4 $5 $6 $7 $8 $9 X,Y pos of 4 corners*
0 Add a 4 corners polygon primitive as box body*
4,1,4,$2,$3,$4,$5,$6,$7,$8,$9,$2,$3,0*
0 Add four circle primitives for the rounded corners*
1,1,$1+$1,$2,$3*
1,1,$1+$1,$4,$5*
1,1,$1+$1,$6,$7*
1,1,$1+$1,$8,$9*
0 Add four rect primitives between the rounded corners*
20,1,$1+$1,$2,$3,$4,$5,0*
20,1,$1+$1,$4,$5,$6,$7,0*
20,1,$1+$1,$6,$7,$8,$9,0*
20,1,$1+$1,$8,$9,$2,$3,0*%
%AMHorizOval*
0 Thick line with rounded ends*
0 $1 width*
0 $2 $3 position (X,Y) of the first rounded end (center of the circle)*
0 $4 $5 position (X,Y) of the second rounded end (center of the circle)*
0 Add line between two ends*
20,1,$1,$2,$3,$4,$5,0*
0 Add two circle primitives to create the rounded ends*
1,1,$1,$2,$3*
1,1,$1,$4,$5*%
%AMRotRect*
0 Rectangle, with rotation*
0 The origin of the aperture is its center*
0 $1 length*
0 $2 width*
0 $3 Rotation angle, in degrees counterclockwise*
0 Add horizontal line*
21,1,$1,$2,0,0,$3*%
G04 Aperture macros list end*
%TA.AperFunction,ComponentPad*%
%ADD10R,1.700000X1.700000*%
%TD*%
%TA.AperFunction,ComponentPad*%
%ADD11O,1.700000X1.700000*%
%TD*%
%TA.AperFunction,WasherPad*%
%ADD12C,2.499360*%
%TD*%
%TA.AperFunction,ComponentPad*%
%ADD13C,2.499360*%
%TD*%
%TA.AperFunction,ComponentPad*%
%ADD14R,2.400000X2.400000*%
%TD*%
%TA.AperFunction,ComponentPad*%
%ADD15C,2.400000*%
%TD*%
%TA.AperFunction,ComponentPad*%
%ADD16RoundRect,0.250000X-1.330000X-1.800000X1.330000X-1.800000X1.330000X1.800000X-1.330000X1.800000X0*%
%TD*%
%TA.AperFunction,ComponentPad*%
%ADD17O,3.160000X4.100000*%
%TD*%
%TA.AperFunction,ComponentPad*%
%ADD18RoundRect,0.250000X1.330000X1.800000X-1.330000X1.800000X-1.330000X-1.800000X1.330000X-1.800000X0*%
%TD*%
%TA.AperFunction,ComponentPad*%
%ADD19RotRect,2.000000X2.000000X135.000000*%
%TD*%
%TA.AperFunction,ComponentPad*%
%ADD20HorizOval,2.000000X0.000000X0.000000X0.000000X0.000000X0*%
%TD*%
%TA.AperFunction,ComponentPad*%
%ADD21C,1.600000*%
%TD*%
%TA.AperFunction,ComponentPad*%
%ADD22O,1.600000X1.600000*%
%TD*%
%TA.AperFunction,ComponentPad*%
%ADD23R,2.430000X2.430000*%
%TD*%
%TA.AperFunction,ComponentPad*%
%ADD24C,2.430000*%
%TD*%
%TA.AperFunction,ComponentPad*%
%ADD25RoundRect,0.250000X-0.620000X-0.845000X0.620000X-0.845000X0.620000X0.845000X-0.620000X0.845000X0*%
%TD*%
%TA.AperFunction,ComponentPad*%
%ADD26O,1.740000X2.190000*%
%TD*%
%TA.AperFunction,Conductor*%
%ADD27C,1.905000*%
%TD*%
%TA.AperFunction,Conductor*%
%ADD28C,2.540000*%
%TD*%
%TA.AperFunction,Conductor*%
%ADD29C,0.381000*%
%TD*%
%TA.AperFunction,Conductor*%
%ADD30C,0.250000*%
%TD*%
G04 APERTURE END LIST*
D10*
%TO.P,LED1,1,Pin_1*%
%TO.N,GND*%
X89916000Y-100330000D03*
D11*
%TO.P,LED1,2,Pin_2*%
%TO.N,Net-(LED1-Pin_2)*%
X87376000Y-100330000D03*
%TD*%
D12*
%TO.P,J3,*%
%TO.N,*%
X97992480Y-107531090D03*
X107995000Y-107531090D03*
D13*
%TO.P,J3,1,Pin_1*%
%TO.N,Net-(J2-Pin_5)*%
X110491820Y-97536190D03*
%TO.P,J3,2,Pin_2*%
%TO.N,Net-(D1-+)*%
X102993740Y-97533650D03*
%TO.P,J3,3,Pin_3*%
%TO.N,Net-(J2-Pin_1)*%
X95495660Y-97536190D03*
%TO.P,J3,4,Pin_4*%
%TO.N,GND*%
X107989920Y-95034290D03*
%TO.P,J3,5,Pin_5*%
X97997560Y-95034290D03*
%TD*%
D14*
%TO.P,C1,1*%
%TO.N,Net-(C1-Pad1)*%
X92823959Y-88000000D03*
D15*
%TO.P,C1,2*%
%TO.N,Net-(J2-Pin_1)*%
X87823959Y-88000000D03*
%TD*%
D16*
%TO.P,J1,1,Pin_1*%
%TO.N,Net-(J1-Pin_1)*%
X70020000Y-93105000D03*
D17*
%TO.P,J1,2,Pin_2*%
%TO.N,Net-(J1-Pin_2)*%
X73980000Y-93105000D03*
%TD*%
D18*
%TO.P,J4,1,Pin_1*%
%TO.N,Net-(J1-Pin_2)*%
X73980000Y-83345000D03*
D17*
%TO.P,J4,2,Pin_2*%
%TO.N,Net-(J1-Pin_1)*%
X70020000Y-83345000D03*
%TD*%
D19*
%TO.P,D1,1,+*%
%TO.N,Net-(D1-+)*%
X103000000Y-91500000D03*
D20*
%TO.P,D1,2*%
%TO.N,Net-(C2-Pad1)*%
X106592102Y-87907898D03*
%TO.P,D1,3,-*%
%TO.N,GND*%
X103000000Y-84315795D03*
%TO.P,D1,4*%
%TO.N,Net-(C1-Pad1)*%
X99407898Y-87907898D03*
%TD*%
D21*
%TO.P,R1,1*%
%TO.N,Net-(D1-+)*%
X92456000Y-105156000D03*
D22*
%TO.P,R1,2*%
%TO.N,Net-(LED1-Pin_2)*%
X84836000Y-105156000D03*
%TD*%
D14*
%TO.P,C2,1*%
%TO.N,Net-(C2-Pad1)*%
X113000000Y-88000000D03*
D15*
%TO.P,C2,2*%
%TO.N,Net-(J2-Pin_5)*%
X118000000Y-88000000D03*
%TD*%
D23*
%TO.P,T1,1*%
%TO.N,Net-(J1-Pin_2)*%
X105700000Y-36200000D03*
D24*
%TO.P,T1,2*%
%TO.N,Net-(J1-Pin_1)*%
X98100000Y-36200000D03*
%TO.P,T1,3*%
%TO.N,Net-(J1-Pin_2)*%
X87900000Y-36200000D03*
%TO.P,T1,4*%
%TO.N,Net-(J1-Pin_1)*%
X80300000Y-36200000D03*
%TO.P,T1,5*%
%TO.N,Net-(J2-Pin_5)*%
X105700000Y-76800000D03*
%TO.P,T1,6*%
%TO.N,GND*%
X98100000Y-76800000D03*
%TO.P,T1,7*%
X87900000Y-76800000D03*
%TO.P,T1,8*%
%TO.N,Net-(J2-Pin_1)*%
X80300000Y-76800000D03*
%TD*%
D25*
%TO.P,J2,1,Pin_1*%
%TO.N,Net-(J2-Pin_1)*%
X97913755Y-101985000D03*
D26*
%TO.P,J2,2,Pin_2*%
%TO.N,GND*%
X100453755Y-101985000D03*
%TO.P,J2,3,Pin_3*%
%TO.N,Net-(D1-+)*%
X102993755Y-101985000D03*
%TO.P,J2,4,Pin_4*%
%TO.N,GND*%
X105533755Y-101985000D03*
%TO.P,J2,5,Pin_5*%
%TO.N,Net-(J2-Pin_5)*%
X108073755Y-101985000D03*
%TD*%
D27*
%TO.N,Net-(C1-Pad1)*%
X92823959Y-88000000D02*
X99315796Y-88000000D01*
X99315796Y-88000000D02*
X99407898Y-87907898D01*
D28*
%TO.N,Net-(J2-Pin_1)*%
X92036190Y-97536190D02*
X95495660Y-97536190D01*
D27*
X95495660Y-97536190D02*
X95495660Y-99566905D01*
D28*
X87823959Y-82647918D02*
X87823959Y-88000000D01*
X80300000Y-76800000D02*
X81976041Y-76800000D01*
X87823959Y-93323959D02*
X92036190Y-97536190D01*
X81976041Y-76800000D02*
X87823959Y-82647918D01*
D27*
X95495660Y-99566905D02*
X97913755Y-101985000D01*
D28*
X87823959Y-88000000D02*
X87823959Y-93323959D01*
D27*
%TO.N,Net-(C2-Pad1)*%
X106592102Y-87907898D02*
X112907898Y-87907898D01*
X112907898Y-87907898D02*
X113000000Y-88000000D01*
%TO.N,Net-(J2-Pin_5)*%
X110491820Y-97536190D02*
X110491820Y-99586935D01*
X110491820Y-99586935D02*
X108073755Y-102005000D01*
D28*
X118000000Y-93500000D02*
X113963810Y-97536190D01*
X111800000Y-76800000D02*
X118000000Y-83000000D01*
X113963810Y-97536190D02*
X110491820Y-97536190D01*
X105700000Y-76800000D02*
X111800000Y-76800000D01*
X118000000Y-83000000D02*
X118000000Y-93500000D01*
D27*
%TO.N,Net-(D1-+)*%
X102993740Y-97533650D02*
X102993740Y-102004985D01*
X102993740Y-91506260D02*
X103000000Y-91500000D01*
D29*
X102863510Y-105156000D02*
X102993755Y-105025755D01*
D27*
X102993740Y-97533650D02*
X102993740Y-91506260D01*
D29*
X102993755Y-105025755D02*
X102993755Y-101985000D01*
X92456000Y-105156000D02*
X102863510Y-105156000D01*
D28*
%TO.N,Net-(J1-Pin_1)*%
X80300000Y-42700000D02*
X67500000Y-55500000D01*
X70020000Y-83345000D02*
X70020000Y-93105000D01*
X80300000Y-34700000D02*
X83000000Y-32000000D01*
X83000000Y-32000000D02*
X95500000Y-32000000D01*
X80300000Y-36200000D02*
X80300000Y-34700000D01*
X95500000Y-32000000D02*
X98100000Y-34600000D01*
X80300000Y-36200000D02*
X80300000Y-42700000D01*
X98100000Y-34600000D02*
X98100000Y-36200000D01*
X67500000Y-80825000D02*
X70020000Y-83345000D01*
X67500000Y-55500000D02*
X67500000Y-80825000D01*
%TO.N,Net-(J1-Pin_2)*%
X105700000Y-37800000D02*
X105700000Y-36200000D01*
X72500000Y-79000000D02*
X72500000Y-57500000D01*
X87900000Y-42100000D02*
X87900000Y-36200000D01*
X87900000Y-42000000D02*
X101500000Y-42000000D01*
X101500000Y-42000000D02*
X105700000Y-37800000D01*
X72500000Y-57500000D02*
X87900000Y-42100000D01*
X73980000Y-83345000D02*
X73980000Y-93105000D01*
X73980000Y-80480000D02*
X72500000Y-79000000D01*
X73980000Y-83345000D02*
X73980000Y-80480000D01*
D29*
%TO.N,Net-(LED1-Pin_2)*%
X87381000Y-100335000D02*
X87376000Y-100330000D01*
X87381000Y-105151000D02*
X87381000Y-100335000D01*
X84836000Y-105156000D02*
X87376000Y-105156000D01*
D30*
X87376000Y-105156000D02*
X87381000Y-105151000D01*
%TD*%
%TA.AperFunction,Conductor*%
%TO.N,GND*%
G36*
X92689549Y-73519685D02*
G01*
X92735304Y-73572489D01*
X92745248Y-73641647D01*
X92716223Y-73705203D01*
X92657445Y-73742977D01*
X92649472Y-73745033D01*
X92469062Y-73785221D01*
X92469057Y-73785223D01*
X92217759Y-73881336D01*
X91983139Y-74013011D01*
X91983136Y-74013013D01*
X91770186Y-74177447D01*
X91770179Y-74177454D01*
X91583456Y-74371126D01*
X91583445Y-74371139D01*
X91426905Y-74589942D01*
X91426898Y-74589954D01*
X91303881Y-74829221D01*
X91303880Y-74829223D01*
X91217009Y-75083863D01*
X91217008Y-75083869D01*
X91168139Y-75348440D01*
X91168139Y-75348442D01*
X91158313Y-75617305D01*
X91187739Y-75884736D01*
X91187741Y-75884747D01*
X91235022Y-76065598D01*
X91255791Y-76145041D01*
X91309223Y-76270778D01*
X91344979Y-76354920D01*
X91361017Y-76392659D01*
X91432657Y-76510045D01*
X91501172Y-76622313D01*
X91501173Y-76622314D01*
X91501175Y-76622317D01*
X91673278Y-76829120D01*
X91873658Y-77008662D01*
X92098044Y-77157114D01*
X92341653Y-77271313D01*
X92341655Y-77271313D01*
X92341656Y-77271314D01*
X92341663Y-77271316D01*
X92599282Y-77348823D01*
X92599289Y-77348824D01*
X92599294Y-77348826D01*
X92865476Y-77388000D01*
X92865481Y-77388000D01*
X93067174Y-77388000D01*
X93125583Y-77383724D01*
X93268331Y-77373277D01*
X93530942Y-77314777D01*
X93782238Y-77218665D01*
X94016862Y-77086988D01*
X94229813Y-76922553D01*
X94347965Y-76800004D01*
X96380191Y-76800004D01*
X96399399Y-77056322D01*
X96399399Y-77056324D01*
X96456593Y-77306909D01*
X96456599Y-77306928D01*
X96550503Y-77546191D01*
X96550507Y-77546199D01*
X96679026Y-77768802D01*
X96722778Y-77823667D01*
X97266137Y-77280308D01*
X97327460Y-77246823D01*
X97397151Y-77251807D01*
X97453085Y-77293678D01*
X97458814Y-77302021D01*
X97462708Y-77308220D01*
X97462710Y-77308222D01*
X97591778Y-77437290D01*
X97597982Y-77441188D01*
X97644272Y-77493524D01*
X97654919Y-77562578D01*
X97626543Y-77626425D01*
X97619689Y-77633862D01*
X97076018Y-78177532D01*
X97240095Y-78289397D01*
X97240099Y-78289399D01*
X97471677Y-78400922D01*
X97471681Y-78400923D01*
X97717304Y-78476689D01*
X97717310Y-78476691D01*
X97971471Y-78514999D01*
X97971480Y-78515000D01*
X98228520Y-78515000D01*
X98228528Y-78514999D01*
X98482689Y-78476691D01*
X98482695Y-78476689D01*
X98728320Y-78400923D01*
X98959896Y-78289402D01*
X98959898Y-78289401D01*
X99123980Y-78177532D01*
X98580309Y-77633862D01*
X98546824Y-77572539D01*
X98551808Y-77502848D01*
X98593679Y-77446914D01*
X98602018Y-77441188D01*
X98608222Y-77437290D01*
X98737290Y-77308222D01*
X98741185Y-77302023D01*
X98793516Y-77255730D01*
X98862568Y-77245078D01*
X98926418Y-77273449D01*
X98933862Y-77280309D01*
X99477219Y-77823667D01*
X99477220Y-77823666D01*
X99520966Y-77768812D01*
X99520973Y-77768801D01*
X99649492Y-77546199D01*
X99649496Y-77546191D01*
X99743400Y-77306928D01*
X99743406Y-77306909D01*
X99800600Y-77056324D01*
X99800600Y-77056322D01*
X99819809Y-76800004D01*
X99819809Y-76799995D01*
X99800600Y-76543677D01*
X99800600Y-76543675D01*
X99743406Y-76293090D01*
X99743400Y-76293071D01*
X99649496Y-76053808D01*
X99649492Y-76053800D01*
X99520970Y-75831193D01*
X99477220Y-75776331D01*
X99477219Y-75776331D01*
X98933862Y-76319689D01*
X98872539Y-76353174D01*
X98802847Y-76348190D01*
X98746914Y-76306318D01*
X98741188Y-76297982D01*
X98738102Y-76293071D01*
X98737290Y-76291778D01*
X98608222Y-76162710D01*
X98602017Y-76158811D01*
X98555727Y-76106477D01*
X98545079Y-76037423D01*
X98573454Y-75973575D01*
X98580309Y-75966137D01*
X99123980Y-75422466D01*
X98959905Y-75310602D01*
X98959896Y-75310597D01*
X98728319Y-75199076D01*
X98728321Y-75199076D01*
X98482695Y-75123310D01*
X98482689Y-75123308D01*
X98228528Y-75085000D01*
X97971471Y-75085000D01*
X97717310Y-75123308D01*
X97717304Y-75123310D01*
X97471681Y-75199076D01*
X97471677Y-75199077D01*
X97240096Y-75310601D01*
X97240088Y-75310606D01*
X97076018Y-75422465D01*
X97619690Y-75966137D01*
X97653175Y-76027460D01*
X97648191Y-76097152D01*
X97606319Y-76153085D01*
X97597985Y-76158809D01*
X97591782Y-76162706D01*
X97591777Y-76162710D01*
X97462710Y-76291777D01*
X97462706Y-76291782D01*
X97458809Y-76297985D01*
X97406473Y-76344274D01*
X97337419Y-76354920D01*
X97273571Y-76326542D01*
X97266137Y-76319690D01*
X96722779Y-75776332D01*
X96679023Y-75831201D01*
X96550507Y-76053800D01*
X96550503Y-76053808D01*
X96456599Y-76293071D01*
X96456593Y-76293090D01*
X96399399Y-76543675D01*
X96399399Y-76543677D01*
X96380191Y-76799995D01*
X96380191Y-76800004D01*
X94347965Y-76800004D01*
X94416552Y-76728864D01*
X94573100Y-76510049D01*
X94696121Y-76270773D01*
X94782991Y-76016135D01*
X94831860Y-75751562D01*
X94841686Y-75482693D01*
X94812260Y-75215259D01*
X94744209Y-74954959D01*
X94638983Y-74707341D01*
X94498825Y-74477683D01*
X94326722Y-74270880D01*
X94126342Y-74091338D01*
X93901956Y-73942886D01*
X93658347Y-73828687D01*
X93658343Y-73828685D01*
X93658336Y-73828683D01*
X93400717Y-73751176D01*
X93400703Y-73751173D01*
X93376960Y-73747679D01*
X93370161Y-73746678D01*
X93306703Y-73717443D01*
X93269124Y-73658540D01*
X93269355Y-73588670D01*
X93307325Y-73530018D01*
X93370976Y-73501204D01*
X93388216Y-73500000D01*
X122875500Y-73500000D01*
X122942539Y-73519685D01*
X122988294Y-73572489D01*
X122999500Y-73624000D01*
X122999500Y-99875500D01*
X122979815Y-99942539D01*
X122927011Y-99988294D01*
X122875500Y-99999500D01*
X120024760Y-99999500D01*
X120024554Y-99999459D01*
X120000000Y-99999459D01*
X119999901Y-99999500D01*
X119999617Y-99999616D01*
X119999615Y-99999618D01*
X119999459Y-99999999D01*
X119999476Y-100024616D01*
X119999471Y-100024616D01*
X119999500Y-100024759D01*
X119999500Y-105875500D01*
X119979815Y-105942539D01*
X119927011Y-105988294D01*
X119875500Y-105999500D01*
X113524760Y-105999500D01*
X113524554Y-105999459D01*
X113500000Y-105999459D01*
X113499901Y-105999500D01*
X113499617Y-105999616D01*
X113499615Y-105999618D01*
X113499459Y-105999999D01*
X113499476Y-106024616D01*
X113499471Y-106024616D01*
X113499499Y-106024759D01*
X113499500Y-108875500D01*
X113479815Y-108942539D01*
X113427012Y-108988294D01*
X113375500Y-108999500D01*
X109492000Y-108999500D01*
X109424961Y-108979815D01*
X109379206Y-108927011D01*
X109369262Y-108857853D01*
X109398287Y-108794297D01*
X109404319Y-108787819D01*
X109423353Y-108768784D01*
X109423363Y-108768774D01*
X109584965Y-108552898D01*
X109714200Y-108316222D01*
X109808437Y-108063563D01*
X109865758Y-107800064D01*
X109884995Y-107531090D01*
X109865758Y-107262116D01*
X109808437Y-106998617D01*
X109714200Y-106745958D01*
X109629859Y-106591500D01*
X109584968Y-106509287D01*
X109584963Y-106509279D01*
X109423369Y-106293413D01*
X109423353Y-106293395D01*
X109232694Y-106102736D01*
X109232676Y-106102720D01*
X109016810Y-105941126D01*
X109016802Y-105941121D01*
X108780137Y-105811892D01*
X108780133Y-105811890D01*
X108684345Y-105776163D01*
X108527473Y-105717653D01*
X108527469Y-105717652D01*
X108527466Y-105717651D01*
X108263979Y-105660332D01*
X107995001Y-105641095D01*
X107994999Y-105641095D01*
X107726020Y-105660332D01*
X107462533Y-105717651D01*
X107462528Y-105717652D01*
X107462527Y-105717653D01*
X107449827Y-105722390D01*
X107209866Y-105811890D01*
X107209862Y-105811892D01*
X106973197Y-105941121D01*
X106973189Y-105941126D01*
X106757323Y-106102720D01*
X106757305Y-106102736D01*
X106566646Y-106293395D01*
X106566630Y-106293413D01*
X106405036Y-106509279D01*
X106405031Y-106509287D01*
X106275802Y-106745952D01*
X106275800Y-106745956D01*
X106181561Y-106998623D01*
X106124242Y-107262110D01*
X106105004Y-107531088D01*
X106105004Y-107531091D01*
X106124242Y-107800069D01*
X106181561Y-108063556D01*
X106181563Y-108063563D01*
X106240073Y-108220435D01*
X106275800Y-108316223D01*
X106275802Y-108316227D01*
X106405031Y-108552892D01*
X106405036Y-108552900D01*
X106566630Y-108768766D01*
X106566646Y-108768784D01*
X106585681Y-108787819D01*
X106619166Y-108849142D01*
X106614182Y-108918834D01*
X106572310Y-108974767D01*
X106506846Y-108999184D01*
X106498000Y-108999500D01*
X99489480Y-108999500D01*
X99422441Y-108979815D01*
X99376686Y-108927011D01*
X99366742Y-108857853D01*
X99395767Y-108794297D01*
X99401799Y-108787819D01*
X99420833Y-108768784D01*
X99420843Y-108768774D01*
X99582445Y-108552898D01*
X99711680Y-108316222D01*
X99805917Y-108063563D01*
X99863238Y-107800064D01*
X99882475Y-107531090D01*
X99863238Y-107262116D01*
X99805917Y-106998617D01*
X99711680Y-106745958D01*
X99627339Y-106591500D01*
X99582448Y-106509287D01*
X99582443Y-106509279D01*
X99420849Y-106293413D01*
X99420833Y-106293395D01*
X99321119Y-106193681D01*
X99287634Y-106132358D01*
X99292618Y-106062666D01*
X99334490Y-106006733D01*
X99399954Y-105982316D01*
X99408800Y-105982000D01*
X102827401Y-105982000D01*
X102832436Y-105982205D01*
X102886005Y-105986567D01*
X102886006Y-105986566D01*
X102886009Y-105986567D01*
X102963952Y-105975947D01*
X103042123Y-105967446D01*
X103042124Y-105967445D01*
X103045596Y-105966681D01*
X103060645Y-105963154D01*
X103064026Y-105962312D01*
X103064031Y-105962312D01*
X103137858Y-105935188D01*
X103212384Y-105910078D01*
X103212387Y-105910075D01*
X103215554Y-105908610D01*
X103229569Y-105901895D01*
X103232672Y-105900356D01*
X103232673Y-105900354D01*
X103232676Y-105900354D01*
X103298932Y-105858003D01*
X103366332Y-105817451D01*
X103366334Y-105817448D01*
X103369105Y-105815342D01*
X103381302Y-105805807D01*
X103384054Y-105803595D01*
X103384059Y-105803592D01*
X103439674Y-105747976D01*
X103496768Y-105693894D01*
X103496771Y-105693890D01*
X103498988Y-105691281D01*
X103511444Y-105676205D01*
X103552312Y-105635337D01*
X103555980Y-105631955D01*
X103596964Y-105597145D01*
X103644560Y-105534532D01*
X103693832Y-105473236D01*
X103693832Y-105473234D01*
X103695715Y-105470289D01*
X103703869Y-105457143D01*
X103705686Y-105454122D01*
X103705693Y-105454114D01*
X103738715Y-105382736D01*
X103773660Y-105312278D01*
X103773661Y-105312273D01*
X103774876Y-105308965D01*
X103780000Y-105294413D01*
X103781128Y-105291063D01*
X103781133Y-105291053D01*
X103798037Y-105214253D01*
X103817020Y-105137923D01*
X103817020Y-105137918D01*
X103817021Y-105137915D01*
X103817484Y-105134513D01*
X103819376Y-105119066D01*
X103819755Y-105115587D01*
X103819755Y-105036934D01*
X103821884Y-104958319D01*
X103821609Y-104954949D01*
X103819755Y-104935438D01*
X103819755Y-103534252D01*
X103839440Y-103467213D01*
X103873313Y-103432203D01*
X103948999Y-103379962D01*
X104124304Y-103211579D01*
X104247699Y-103047369D01*
X104303707Y-103005602D01*
X104373407Y-103000745D01*
X104434669Y-103034342D01*
X104449562Y-103052425D01*
X104463988Y-103073769D01*
X104463989Y-103073770D01*
X104625358Y-103242139D01*
X104625359Y-103242140D01*
X104812852Y-103380810D01*
X105021093Y-103485803D01*
X105244085Y-103554093D01*
X105244083Y-103554093D01*
X105283754Y-103559173D01*
X105283755Y-103559173D01*
X105283755Y-102693615D01*
X105303440Y-102626576D01*
X105356244Y-102580821D01*
X105423938Y-102570676D01*
X105494758Y-102580000D01*
X105494765Y-102580000D01*
X105572745Y-102580000D01*
X105572752Y-102580000D01*
X105643571Y-102570676D01*
X105712604Y-102581441D01*
X105764860Y-102627820D01*
X105783755Y-102693615D01*
X105783754Y-103557574D01*
X105936373Y-103524683D01*
X105936374Y-103524683D01*
X106152760Y-103437732D01*
X106351347Y-103315458D01*
X106526409Y-103161383D01*
X106623864Y-103040688D01*
X106681295Y-103000895D01*
X106751122Y-102998468D01*
X106811177Y-103034178D01*
X106825144Y-103052313D01*
X106866277Y-103117360D01*
X107027463Y-103299301D01*
X107046614Y-103314937D01*
X107215751Y-103453033D01*
X107215754Y-103453035D01*
X107215756Y-103453036D01*
X107426249Y-103574565D01*
X107426259Y-103574570D01*
X107653536Y-103660765D01*
X107746901Y-103679825D01*
X107891689Y-103709384D01*
X107891694Y-103709384D01*
X107891697Y-103709385D01*
X107964559Y-103712321D01*
X108134566Y-103719173D01*
X108134567Y-103719173D01*
X108134568Y-103719172D01*
X108134573Y-103719173D01*
X108341401Y-103694059D01*
X108375874Y-103689874D01*
X108474733Y-103661239D01*
X108609350Y-103622247D01*
X108828954Y-103518043D01*
X109028999Y-103379962D01*
X109204304Y-103211579D01*
X109350328Y-103017256D01*
X109356445Y-103005602D01*
X109389118Y-102943347D01*
X109411231Y-102913293D01*
X111568892Y-100755632D01*
X111572431Y-100752361D01*
X111618177Y-100713292D01*
X111655015Y-100670160D01*
X111658817Y-100665707D01*
X111658821Y-100665705D01*
X111780511Y-100523225D01*
X111885131Y-100352499D01*
X111911113Y-100310101D01*
X112006767Y-100079171D01*
X112065119Y-99836121D01*
X112079820Y-99649324D01*
X112079820Y-99649310D01*
X112084729Y-99586935D01*
X112084729Y-99586932D01*
X112083823Y-99575415D01*
X112098189Y-99507038D01*
X112147242Y-99457283D01*
X112207441Y-99441690D01*
X113873909Y-99441690D01*
X113879567Y-99441949D01*
X113882276Y-99442197D01*
X113928915Y-99446468D01*
X114012210Y-99441899D01*
X114014332Y-99441783D01*
X114017728Y-99441690D01*
X114033454Y-99441690D01*
X114078098Y-99438421D01*
X114085540Y-99437877D01*
X114207425Y-99431192D01*
X114220676Y-99428493D01*
X114228508Y-99427413D01*
X114241995Y-99426426D01*
X114361122Y-99399889D01*
X114480744Y-99375527D01*
X114493456Y-99370928D01*
X114501055Y-99368718D01*
X114514251Y-99365779D01*
X114628280Y-99322166D01*
X114743045Y-99280659D01*
X114754959Y-99274254D01*
X114762140Y-99270968D01*
X114774776Y-99266137D01*
X114881238Y-99206387D01*
X114988738Y-99148612D01*
X114999584Y-99140547D01*
X115006222Y-99136242D01*
X115018016Y-99129624D01*
X115114615Y-99055031D01*
X115212585Y-98982199D01*
X115222151Y-98972632D01*
X115228092Y-98967406D01*
X115238787Y-98959149D01*
X115323492Y-98871291D01*
X119283831Y-94910951D01*
X119287983Y-94907161D01*
X119326096Y-94875445D01*
X119383198Y-94811713D01*
X119385514Y-94809269D01*
X119396628Y-94798156D01*
X119396628Y-94798155D01*
X119396634Y-94798150D01*
X119418539Y-94772785D01*
X119430766Y-94758627D01*
X119471497Y-94713166D01*
X119512231Y-94667707D01*
X119519696Y-94656422D01*
X119524465Y-94650126D01*
X119533305Y-94639892D01*
X119598777Y-94536892D01*
X119666135Y-94435080D01*
X119671873Y-94422839D01*
X119675684Y-94415902D01*
X119682936Y-94404494D01*
X119732735Y-94293008D01*
X119784528Y-94182524D01*
X119788421Y-94169581D01*
X119791186Y-94162152D01*
X119796697Y-94149817D01*
X119829727Y-94032287D01*
X119864888Y-93915421D01*
X119866854Y-93902051D01*
X119868507Y-93894302D01*
X119872164Y-93881292D01*
X119887726Y-93760237D01*
X119905500Y-93639465D01*
X119905499Y-93625950D01*
X119906005Y-93618039D01*
X119907729Y-93604639D01*
X119907683Y-93602144D01*
X119905500Y-93482607D01*
X119905500Y-83089899D01*
X119905759Y-83084241D01*
X119910278Y-83034900D01*
X119905593Y-82949478D01*
X119905500Y-82946082D01*
X119905500Y-82930356D01*
X119901687Y-82878269D01*
X119895002Y-82756388D01*
X119895002Y-82756385D01*
X119892303Y-82743137D01*
X119891222Y-82735292D01*
X119890236Y-82721815D01*
X119863699Y-82602687D01*
X119839337Y-82483066D01*
X119834738Y-82470353D01*
X119832527Y-82462753D01*
X119829589Y-82449559D01*
X119785976Y-82335529D01*
X119744469Y-82220765D01*
X119738075Y-82208868D01*
X119734776Y-82201663D01*
X119729947Y-82189034D01*
X119670197Y-82082571D01*
X119612422Y-81975072D01*
X119604357Y-81964224D01*
X119600045Y-81957574D01*
X119593437Y-81945799D01*
X119593431Y-81945790D01*
X119518841Y-81849194D01*
X119446016Y-81751233D01*
X119446008Y-81751224D01*
X119436446Y-81741662D01*
X119431214Y-81735714D01*
X119422957Y-81725021D01*
X119422951Y-81725014D01*
X119335101Y-81640316D01*
X113210971Y-75516188D01*
X113207153Y-75512005D01*
X113175448Y-75473908D01*
X113175445Y-75473904D01*
X113111713Y-75416799D01*
X113109271Y-75414488D01*
X113103701Y-75408918D01*
X113098149Y-75403365D01*
X113098150Y-75403367D01*
X113058651Y-75369254D01*
X112967706Y-75287768D01*
X112956430Y-75280308D01*
X112950113Y-75275521D01*
X112944368Y-75270561D01*
X112939892Y-75266695D01*
X112836908Y-75201234D01*
X112735080Y-75133865D01*
X112722841Y-75128128D01*
X112715903Y-75124317D01*
X112704494Y-75117065D01*
X112593025Y-75067272D01*
X112482524Y-75015472D01*
X112482521Y-75015471D01*
X112482519Y-75015470D01*
X112475416Y-75013333D01*
X112469584Y-75011578D01*
X112462170Y-75008820D01*
X112449818Y-75003303D01*
X112449816Y-75003302D01*
X112449813Y-75003301D01*
X112449814Y-75003301D01*
X112332279Y-74970269D01*
X112215421Y-74935112D01*
X112202050Y-74933144D01*
X112194305Y-74931493D01*
X112181290Y-74927835D01*
X112129692Y-74921202D01*
X112060237Y-74912273D01*
X111939465Y-74894500D01*
X111939460Y-74894500D01*
X111925952Y-74894500D01*
X111918038Y-74893993D01*
X111904637Y-74892270D01*
X111782607Y-74894500D01*
X105630357Y-74894500D01*
X105421815Y-74909764D01*
X105421801Y-74909766D01*
X105149562Y-74970409D01*
X105149558Y-74970411D01*
X104889031Y-75070054D01*
X104645795Y-75206565D01*
X104645790Y-75206568D01*
X104425022Y-75377040D01*
X104231428Y-75577839D01*
X104231426Y-75577841D01*
X104069125Y-75804695D01*
X103949472Y-76037423D01*
X103941589Y-76052756D01*
X103923262Y-76106477D01*
X103851529Y-76316744D01*
X103851528Y-76316750D01*
X103800864Y-76591038D01*
X103800864Y-76591040D01*
X103790677Y-76869777D01*
X103821182Y-77147024D01*
X103821183Y-77147033D01*
X103891733Y-77416890D01*
X103983936Y-77633862D01*
X104000826Y-77673606D01*
X104058923Y-77768802D01*
X104146128Y-77911694D01*
X104146129Y-77911695D01*
X104146131Y-77911698D01*
X104324555Y-78126096D01*
X104324562Y-78126102D01*
X104532288Y-78312227D01*
X104532290Y-78312228D01*
X104532293Y-78312231D01*
X104764920Y-78466135D01*
X105017476Y-78584528D01*
X105017478Y-78584528D01*
X105017479Y-78584529D01*
X105017482Y-78584530D01*
X105284571Y-78664886D01*
X105284575Y-78664886D01*
X105284579Y-78664888D01*
X105560535Y-78705500D01*
X110959354Y-78705500D01*
X111026393Y-78725185D01*
X111047035Y-78741819D01*
X116058180Y-83752964D01*
X116091665Y-83814287D01*
X116094499Y-83840645D01*
X116094500Y-92659354D01*
X116074815Y-92726393D01*
X116058181Y-92747035D01*
X113210846Y-95594371D01*
X113149523Y-95627856D01*
X113123165Y-95630690D01*
X110422177Y-95630690D01*
X110213635Y-95645954D01*
X110213621Y-95645956D01*
X109941382Y-95706599D01*
X109941374Y-95706602D01*
X109808712Y-95757341D01*
X109739064Y-95762904D01*
X109677465Y-95729929D01*
X109643473Y-95668886D01*
X109647879Y-95599155D01*
X109648988Y-95596219D01*
X109666555Y-95551458D01*
X109666557Y-95551451D01*
X109724909Y-95295794D01*
X109744506Y-95034294D01*
X109744506Y-95034285D01*
X109724909Y-94772785D01*
X109666557Y-94517128D01*
X109666554Y-94517116D01*
X109570745Y-94273001D01*
X109439624Y-94045893D01*
X109391817Y-93985944D01*
X108743965Y-94633797D01*
X108682642Y-94667282D01*
X108612950Y-94662298D01*
X108563469Y-94628343D01*
X108456515Y-94507617D01*
X108456514Y-94507616D01*
X108456513Y-94507615D01*
X108405335Y-94472289D01*
X108361346Y-94418009D01*
X108353686Y-94348561D01*
X108384789Y-94285996D01*
X108388095Y-94282560D01*
X109038857Y-93631797D01*
X108867213Y-93514774D01*
X108867205Y-93514769D01*
X108630944Y-93400993D01*
X108630946Y-93400993D01*
X108380360Y-93323697D01*
X108380354Y-93323696D01*
X108121045Y-93284610D01*
X107858794Y-93284610D01*
X107599485Y-93323696D01*
X107599479Y-93323697D01*
X107348894Y-93400993D01*
X107112632Y-93514771D01*
X107112619Y-93514778D01*
X106940981Y-93631797D01*
X107591743Y-94282560D01*
X107625228Y-94343883D01*
X107620244Y-94413575D01*
X107578372Y-94469508D01*
X107574503Y-94472291D01*
X107523323Y-94507617D01*
X107416370Y-94628344D01*
X107357181Y-94665471D01*
X107287315Y-94664703D01*
X107235874Y-94633798D01*
X106588022Y-93985945D01*
X106540213Y-94045896D01*
X106409094Y-94273001D01*
X106313285Y-94517116D01*
X106313282Y-94517128D01*
X106254930Y-94772785D01*
X106235334Y-95034285D01*
X106235334Y-95034294D01*
X106254930Y-95295794D01*
X106313282Y-95551451D01*
X106313285Y-95551463D01*
X106409094Y-95795578D01*
X106540215Y-96022686D01*
X106588021Y-96082634D01*
X107235873Y-95434781D01*
X107297196Y-95401296D01*
X107366887Y-95406280D01*
X107416369Y-95440235D01*
X107514908Y-95551462D01*
X107523327Y-95560965D01*
X107552253Y-95580931D01*
X107574501Y-95596288D01*
X107618491Y-95650571D01*
X107626151Y-95720020D01*
X107595047Y-95782585D01*
X107591742Y-95786019D01*
X106940981Y-96436780D01*
X107112626Y-96553805D01*
X107112634Y-96553810D01*
X107348895Y-96667586D01*
X107348893Y-96667586D01*
X107599479Y-96744882D01*
X107599485Y-96744883D01*
X107858794Y-96783969D01*
X107858801Y-96783970D01*
X108121039Y-96783970D01*
X108121045Y-96783969D01*
X108380354Y-96744883D01*
X108380355Y-96744883D01*
X108559278Y-96689692D01*
X108629142Y-96688742D01*
X108688428Y-96725713D01*
X108718315Y-96788867D01*
X108713188Y-96848220D01*
X108643349Y-97052934D01*
X108643348Y-97052940D01*
X108592684Y-97327228D01*
X108592684Y-97327230D01*
X108582497Y-97605967D01*
X108613002Y-97883214D01*
X108613003Y-97883223D01*
X108683553Y-98153080D01*
X108753969Y-98318783D01*
X108792646Y-98409796D01*
X108885666Y-98562215D01*
X108903820Y-98626811D01*
X108903820Y-98877801D01*
X108884135Y-98944840D01*
X108867501Y-98965482D01*
X107452593Y-100380389D01*
X107418071Y-100404735D01*
X107318557Y-100451956D01*
X107318556Y-100451956D01*
X107118509Y-100590039D01*
X107118505Y-100590042D01*
X106943205Y-100758422D01*
X106819812Y-100922628D01*
X106763802Y-100964397D01*
X106694101Y-100969254D01*
X106632839Y-100935656D01*
X106617946Y-100917573D01*
X106603519Y-100896228D01*
X106442151Y-100727860D01*
X106442150Y-100727859D01*
X106254657Y-100589189D01*
X106046416Y-100484196D01*
X105823430Y-100415907D01*
X105823424Y-100415906D01*
X105783755Y-100410825D01*
X105783755Y-101276384D01*
X105764070Y-101343423D01*
X105711266Y-101389178D01*
X105643570Y-101399323D01*
X105572762Y-101390001D01*
X105572757Y-101390000D01*
X105572752Y-101390000D01*
X105494758Y-101390000D01*
X105494752Y-101390000D01*
X105494747Y-101390001D01*
X105423940Y-101399323D01*
X105354905Y-101388557D01*
X105302649Y-101342177D01*
X105283755Y-101276384D01*
X105283755Y-100412424D01*
X105283754Y-100412424D01*
X105131135Y-100445316D01*
X105131134Y-100445316D01*
X104914749Y-100532267D01*
X104770754Y-100620928D01*
X104703347Y-100639315D01*
X104636700Y-100618340D01*
X104591972Y-100564663D01*
X104581740Y-100515338D01*
X104581740Y-98590705D01*
X104596908Y-98531278D01*
X104663243Y-98409796D01*
X104712940Y-98318782D01*
X104807177Y-98066123D01*
X104864498Y-97802624D01*
X104883735Y-97533650D01*
X104864498Y-97264676D01*
X104807177Y-97001177D01*
X104712940Y-96748518D01*
X104680300Y-96688742D01*
X104596908Y-96536020D01*
X104581740Y-96476593D01*
X104581740Y-92282567D01*
X104601425Y-92215528D01*
X104618059Y-92194886D01*
X104908962Y-91903983D01*
X104908962Y-91903982D01*
X104932430Y-91876507D01*
X105009783Y-91735803D01*
X105049714Y-91580283D01*
X105049714Y-91419717D01*
X105009783Y-91264197D01*
X104932430Y-91123493D01*
X104932425Y-91123487D01*
X104908967Y-91096020D01*
X104908966Y-91096019D01*
X103403983Y-89591038D01*
X103376507Y-89567570D01*
X103376501Y-89567566D01*
X103235806Y-89490218D01*
X103235796Y-89490215D01*
X103080286Y-89450286D01*
X103080283Y-89450286D01*
X102919717Y-89450286D01*
X102919713Y-89450286D01*
X102764203Y-89490215D01*
X102764193Y-89490218D01*
X102623499Y-89567566D01*
X102623487Y-89567574D01*
X102596020Y-89591033D01*
X102596019Y-89591034D01*
X102596016Y-89591036D01*
X102596016Y-89591037D01*
X101091039Y-91096016D01*
X101091036Y-91096020D01*
X101067570Y-91123492D01*
X101067566Y-91123498D01*
X100990218Y-91264193D01*
X100990215Y-91264203D01*
X100950286Y-91419713D01*
X100950286Y-91580286D01*
X100990215Y-91735796D01*
X100990218Y-91735806D01*
X101067566Y-91876500D01*
X101067570Y-91876507D01*
X101067573Y-91876510D01*
X101067574Y-91876512D01*
X101091033Y-91903980D01*
X101091034Y-91903981D01*
X101369421Y-92182367D01*
X101402906Y-92243690D01*
X101405740Y-92270048D01*
X101405740Y-96476593D01*
X101390572Y-96536020D01*
X101274542Y-96748512D01*
X101274540Y-96748516D01*
X101180301Y-97001183D01*
X101122982Y-97264670D01*
X101103745Y-97533648D01*
X101103745Y-97533651D01*
X101122982Y-97802629D01*
X101180301Y-98066116D01*
X101180303Y-98066123D01*
X101212738Y-98153084D01*
X101274540Y-98318783D01*
X101274542Y-98318787D01*
X101390572Y-98531278D01*
X101405740Y-98590705D01*
X101405740Y-100514158D01*
X101386055Y-100581197D01*
X101333251Y-100626952D01*
X101264093Y-100636896D01*
X101208006Y-100613854D01*
X101174656Y-100589189D01*
X100966416Y-100484196D01*
X100743430Y-100415907D01*
X100743424Y-100415906D01*
X100703755Y-100410825D01*
X100703755Y-101276384D01*
X100684070Y-101343423D01*
X100631266Y-101389178D01*
X100563570Y-101399323D01*
X100492762Y-101390001D01*
X100492757Y-101390000D01*
X100492752Y-101390000D01*
X100414758Y-101390000D01*
X100414752Y-101390000D01*
X100414747Y-101390001D01*
X100343939Y-101399323D01*
X100274904Y-101388557D01*
X100222648Y-101342177D01*
X100203754Y-101276384D01*
X100203753Y-100412424D01*
X100051135Y-100445316D01*
X100051134Y-100445316D01*
X99834749Y-100532267D01*
X99636162Y-100654541D01*
X99510318Y-100765298D01*
X99446989Y-100794812D01*
X99377755Y-100785402D01*
X99324600Y-100740056D01*
X99317910Y-100728508D01*
X99280490Y-100655065D01*
X99280488Y-100655063D01*
X99227834Y-100590042D01*
X99163347Y-100510408D01*
X99082966Y-100445316D01*
X99018691Y-100393266D01*
X99018689Y-100393264D01*
X98894522Y-100330000D01*
X98852838Y-100308761D01*
X98673041Y-100260584D01*
X98673040Y-100260583D01*
X98673037Y-100260583D01*
X98595738Y-100254500D01*
X98595736Y-100254500D01*
X98480388Y-100254500D01*
X98413349Y-100234815D01*
X98392707Y-100218181D01*
X97761458Y-99586932D01*
X97119976Y-98945449D01*
X97086493Y-98884129D01*
X97083660Y-98857779D01*
X97083660Y-98631210D01*
X97103345Y-98564171D01*
X97106812Y-98559060D01*
X97109389Y-98555458D01*
X97126532Y-98531497D01*
X97254071Y-98283434D01*
X97344131Y-98019444D01*
X97394795Y-97745154D01*
X97404982Y-97466411D01*
X97374476Y-97189155D01*
X97303925Y-96919296D01*
X97277283Y-96856604D01*
X97269181Y-96787206D01*
X97299884Y-96724444D01*
X97359645Y-96688245D01*
X97427957Y-96689617D01*
X97607120Y-96744882D01*
X97607125Y-96744883D01*
X97866434Y-96783969D01*
X97866441Y-96783970D01*
X98128679Y-96783970D01*
X98128685Y-96783969D01*
X98387994Y-96744883D01*
X98388000Y-96744882D01*
X98638585Y-96667586D01*
X98874845Y-96553810D01*
X98874846Y-96553809D01*
X99046497Y-96436780D01*
X98395736Y-95786019D01*
X98362251Y-95724696D01*
X98367235Y-95655004D01*
X98409107Y-95599071D01*
X98412936Y-95596317D01*
X98464153Y-95560965D01*
X98472576Y-95551458D01*
X98488622Y-95533344D01*
X98571109Y-95440234D01*
X98630297Y-95403109D01*
X98700163Y-95403875D01*
X98751605Y-95434781D01*
X99399456Y-96082634D01*
X99399457Y-96082633D01*
X99447260Y-96022692D01*
X99447267Y-96022681D01*
X99578385Y-95795578D01*
X99674194Y-95551463D01*
X99674197Y-95551451D01*
X99732549Y-95295794D01*
X99752146Y-95034294D01*
X99752146Y-95034285D01*
X99732549Y-94772785D01*
X99674197Y-94517128D01*
X99674194Y-94517116D01*
X99578385Y-94273001D01*
X99447264Y-94045893D01*
X99399457Y-93985944D01*
X98751605Y-94633797D01*
X98690282Y-94667282D01*
X98620590Y-94662298D01*
X98571109Y-94628343D01*
X98464155Y-94507617D01*
X98464154Y-94507616D01*
X98464153Y-94507615D01*
X98412975Y-94472289D01*
X98368986Y-94418009D01*
X98361326Y-94348561D01*
X98392429Y-94285996D01*
X98395735Y-94282560D01*
X99046497Y-93631797D01*
X98874853Y-93514774D01*
X98874845Y-93514769D01*
X98638584Y-93400993D01*
X98638586Y-93400993D01*
X98388000Y-93323697D01*
X98387994Y-93323696D01*
X98128685Y-93284610D01*
X97866434Y-93284610D01*
X97607125Y-93323696D01*
X97607119Y-93323697D01*
X97356534Y-93400993D01*
X97120272Y-93514771D01*
X97120259Y-93514778D01*
X96948621Y-93631797D01*
X97599383Y-94282560D01*
X97632868Y-94343883D01*
X97627884Y-94413575D01*
X97586012Y-94469508D01*
X97582143Y-94472291D01*
X97530963Y-94507617D01*
X97424010Y-94628344D01*
X97364821Y-94665471D01*
X97294955Y-94664703D01*
X97243514Y-94633798D01*
X96595662Y-93985945D01*
X96547853Y-94045896D01*
X96416734Y-94273001D01*
X96320925Y-94517116D01*
X96320922Y-94517128D01*
X96262570Y-94772785D01*
X96242974Y-95034285D01*
X96242974Y-95034294D01*
X96262570Y-95295794D01*
X96320922Y-95551451D01*
X96320925Y-95551462D01*
X96335972Y-95589802D01*
X96342139Y-95659399D01*
X96309701Y-95721282D01*
X96248955Y-95755804D01*
X96182754Y-95752198D01*
X96182523Y-95752967D01*
X96179351Y-95752012D01*
X96179189Y-95752004D01*
X96178593Y-95751784D01*
X95911088Y-95671303D01*
X95911078Y-95671301D01*
X95792004Y-95653777D01*
X95635125Y-95630690D01*
X95635120Y-95630690D01*
X92876835Y-95630690D01*
X92809796Y-95611005D01*
X92789154Y-95594371D01*
X89765778Y-92570995D01*
X89732293Y-92509672D01*
X89729459Y-92483314D01*
X89729459Y-86735817D01*
X90988459Y-86735817D01*
X90988460Y-89264180D01*
X90991294Y-89300204D01*
X91036088Y-89454388D01*
X91036090Y-89454393D01*
X91115217Y-89588191D01*
X91117823Y-89592597D01*
X91117828Y-89592603D01*
X91231355Y-89706130D01*
X91231359Y-89706133D01*
X91231361Y-89706135D01*
X91369566Y-89787869D01*
X91410227Y-89799682D01*
X91523750Y-89832664D01*
X91523753Y-89832664D01*
X91523755Y-89832665D01*
X91535762Y-89833610D01*
X91559776Y-89835500D01*
X91559777Y-89835499D01*
X91559778Y-89835500D01*
X94088139Y-89835499D01*
X94124163Y-89832665D01*
X94278352Y-89787869D01*
X94416557Y-89706135D01*
X94416561Y-89706130D01*
X94498374Y-89624319D01*
X94559697Y-89590834D01*
X94586055Y-89588000D01*
X99250980Y-89588000D01*
X99255846Y-89588191D01*
X99260653Y-89588569D01*
X99315796Y-89592909D01*
X99378172Y-89588000D01*
X99378185Y-89588000D01*
X99564982Y-89573299D01*
X99808032Y-89514947D01*
X100038962Y-89419293D01*
X100043425Y-89416557D01*
X100060755Y-89407727D01*
X100152695Y-89369645D01*
X100372193Y-89235136D01*
X100567947Y-89067947D01*
X100735136Y-88872193D01*
X100869645Y-88652695D01*
X100968160Y-88414858D01*
X101028257Y-88164538D01*
X101048455Y-87907898D01*
X104951545Y-87907898D01*
X104971743Y-88164539D01*
X105031841Y-88414862D01*
X105130352Y-88652691D01*
X105130354Y-88652694D01*
X105264861Y-88872190D01*
X105264865Y-88872195D01*
X105340650Y-88960928D01*
X105432053Y-89067947D01*
X105557355Y-89174964D01*
X105627804Y-89235134D01*
X105627809Y-89235138D01*
X105847305Y-89369645D01*
X105847308Y-89369647D01*
X106041990Y-89450286D01*
X106085142Y-89468160D01*
X106335462Y-89528257D01*
X106592102Y-89548455D01*
X106848742Y-89528257D01*
X106969255Y-89499324D01*
X106998203Y-89495898D01*
X111165948Y-89495898D01*
X111232987Y-89515583D01*
X111272680Y-89556776D01*
X111293865Y-89592598D01*
X111293867Y-89592600D01*
X111293869Y-89592603D01*
X111407396Y-89706130D01*
X111407400Y-89706133D01*
X111407402Y-89706135D01*
X111545607Y-89787869D01*
X111586268Y-89799682D01*
X111699791Y-89832664D01*
X111699794Y-89832664D01*
X111699796Y-89832665D01*
X111711803Y-89833610D01*
X111735817Y-89835500D01*
X111735818Y-89835499D01*
X111735819Y-89835500D01*
X114264180Y-89835499D01*
X114300204Y-89832665D01*
X114454393Y-89787869D01*
X114592598Y-89706135D01*
X114706135Y-89592598D01*
X114787869Y-89454393D01*
X114832665Y-89300204D01*
X114835500Y-89264181D01*
X114835499Y-86735820D01*
X114832665Y-86699796D01*
X114787869Y-86545607D01*
X114706135Y-86407402D01*
X114706133Y-86407400D01*
X114706130Y-86407396D01*
X114592603Y-86293869D01*
X114592595Y-86293863D01*
X114454393Y-86212131D01*
X114454388Y-86212129D01*
X114300208Y-86167335D01*
X114300202Y-86167334D01*
X114264183Y-86164500D01*
X114264181Y-86164500D01*
X111738880Y-86164501D01*
X111735820Y-86164501D01*
X111699795Y-86167335D01*
X111545611Y-86212129D01*
X111545606Y-86212131D01*
X111407401Y-86293865D01*
X111407381Y-86293881D01*
X111407361Y-86293888D01*
X111400687Y-86297836D01*
X111400050Y-86296758D01*
X111342343Y-86319413D01*
X111331385Y-86319898D01*
X106998203Y-86319898D01*
X106969256Y-86316472D01*
X106848745Y-86287539D01*
X106656262Y-86272390D01*
X106592102Y-86267341D01*
X106592101Y-86267341D01*
X106335460Y-86287539D01*
X106085137Y-86347637D01*
X105847308Y-86446148D01*
X105847305Y-86446150D01*
X105627809Y-86580657D01*
X105627804Y-86580661D01*
X105432053Y-86747849D01*
X105264865Y-86943600D01*
X105264861Y-86943605D01*
X105130354Y-87163101D01*
X105130352Y-87163104D01*
X105031841Y-87400933D01*
X104971743Y-87651256D01*
X104951545Y-87907898D01*
X101048455Y-87907898D01*
X101028257Y-87651258D01*
X100968160Y-87400938D01*
X100968158Y-87400933D01*
X100869647Y-87163104D01*
X100869645Y-87163101D01*
X100735138Y-86943605D01*
X100735134Y-86943600D01*
X100674964Y-86873151D01*
X100567947Y-86747849D01*
X100460928Y-86656446D01*
X100372195Y-86580661D01*
X100372190Y-86580657D01*
X100152694Y-86446150D01*
X100152691Y-86446148D01*
X99914862Y-86347637D01*
X99664539Y-86287539D01*
X99536217Y-86277440D01*
X99407898Y-86267341D01*
X99407897Y-86267341D01*
X99151256Y-86287539D01*
X98900930Y-86347638D01*
X98768337Y-86402561D01*
X98720884Y-86412000D01*
X94586055Y-86412000D01*
X94519016Y-86392315D01*
X94498374Y-86375681D01*
X94416562Y-86293869D01*
X94416554Y-86293863D01*
X94278352Y-86212131D01*
X94278347Y-86212129D01*
X94124167Y-86167335D01*
X94124161Y-86167334D01*
X94088142Y-86164500D01*
X94088140Y-86164500D01*
X91553792Y-86164501D01*
X91559779Y-86164501D01*
X91523754Y-86167335D01*
X91369570Y-86212129D01*
X91369565Y-86212131D01*
X91231363Y-86293863D01*
X91231355Y-86293869D01*
X91117828Y-86407396D01*
X91117822Y-86407404D01*
X91036090Y-86545606D01*
X91036088Y-86545611D01*
X90991294Y-86699791D01*
X90991293Y-86699797D01*
X90988459Y-86735817D01*
X89729459Y-86735817D01*
X89729459Y-84315800D01*
X101494858Y-84315800D01*
X101515385Y-84563524D01*
X101515387Y-84563533D01*
X101576412Y-84804512D01*
X101676266Y-85032159D01*
X101776564Y-85185677D01*
X102391050Y-84571190D01*
X102452373Y-84537705D01*
X102522064Y-84542689D01*
X102577998Y-84584560D01*
X102583039Y-84591820D01*
X102583048Y-84591834D01*
X102618239Y-84646593D01*
X102733602Y-84746554D01*
X102731293Y-84749217D01*
X102766006Y-84789294D01*
X102775935Y-84858455D01*
X102746898Y-84922005D01*
X102740882Y-84928464D01*
X102129942Y-85539404D01*
X102176768Y-85575850D01*
X102176770Y-85575851D01*
X102395385Y-85694159D01*
X102395396Y-85694164D01*
X102630506Y-85774878D01*
X102875707Y-85815795D01*
X103124293Y-85815795D01*
X103369493Y-85774878D01*
X103604603Y-85694164D01*
X103604614Y-85694159D01*
X103823228Y-85575852D01*
X103823231Y-85575850D01*
X103870056Y-85539404D01*
X103259116Y-84928464D01*
X103225631Y-84867141D01*
X103230615Y-84797449D01*
X103267641Y-84747988D01*
X103266398Y-84746554D01*
X103273100Y-84740747D01*
X103381761Y-84646593D01*
X103416954Y-84591832D01*
X103469755Y-84546078D01*
X103538914Y-84536134D01*
X103602470Y-84565158D01*
X103608949Y-84571191D01*
X104223434Y-85185677D01*
X104323731Y-85032164D01*
X104423587Y-84804512D01*
X104484612Y-84563533D01*
X104484614Y-84563524D01*
X104505141Y-84315800D01*
X104505141Y-84315789D01*
X104484614Y-84068065D01*
X104484612Y-84068056D01*
X104423587Y-83827077D01*
X104323731Y-83599425D01*
X104223434Y-83445911D01*
X103608949Y-84060397D01*
X103547626Y-84093882D01*
X103477934Y-84088898D01*
X103422001Y-84047026D01*
X103416953Y-84039756D01*
X103381761Y-83984997D01*
X103266398Y-83885036D01*
X103268698Y-83882380D01*
X103233960Y-83842223D01*
X103224074Y-83773056D01*
X103253152Y-83709524D01*
X103259116Y-83703124D01*
X103870056Y-83092184D01*
X103823229Y-83055738D01*
X103604614Y-82937430D01*
X103604603Y-82937425D01*
X103369493Y-82856711D01*
X103124293Y-82815795D01*
X102875707Y-82815795D01*
X102630506Y-82856711D01*
X102395396Y-82937425D01*
X102395390Y-82937427D01*
X102176761Y-83055744D01*
X102129942Y-83092183D01*
X102129942Y-83092185D01*
X102740883Y-83703125D01*
X102774368Y-83764448D01*
X102769384Y-83834139D01*
X102732358Y-83883600D01*
X102733602Y-83885036D01*
X102618238Y-83984997D01*
X102583046Y-84039757D01*
X102530242Y-84085512D01*
X102461083Y-84095455D01*
X102397528Y-84066429D01*
X102391050Y-84060398D01*
X101776564Y-83445911D01*
X101676267Y-83599427D01*
X101576412Y-83827077D01*
X101515387Y-84068056D01*
X101515385Y-84068065D01*
X101494858Y-84315789D01*
X101494858Y-84315800D01*
X89729459Y-84315800D01*
X89729459Y-82737818D01*
X89729718Y-82732160D01*
X89734237Y-82682818D01*
X89729552Y-82597396D01*
X89729459Y-82594000D01*
X89729459Y-82578274D01*
X89725646Y-82526187D01*
X89718961Y-82404306D01*
X89718961Y-82404303D01*
X89716262Y-82391055D01*
X89715181Y-82383210D01*
X89714195Y-82369733D01*
X89687658Y-82250605D01*
X89663296Y-82130984D01*
X89658697Y-82118271D01*
X89656486Y-82110671D01*
X89653548Y-82097477D01*
X89636895Y-82053938D01*
X89609932Y-81983437D01*
X89588257Y-81923511D01*
X89568428Y-81868684D01*
X89562032Y-81856784D01*
X89558739Y-81849589D01*
X89553906Y-81836952D01*
X89494150Y-81730479D01*
X89436381Y-81622990D01*
X89428316Y-81612142D01*
X89424004Y-81605492D01*
X89417396Y-81593717D01*
X89417390Y-81593708D01*
X89342800Y-81497112D01*
X89269975Y-81399151D01*
X89269967Y-81399142D01*
X89260405Y-81389580D01*
X89255173Y-81383632D01*
X89246916Y-81372939D01*
X89246910Y-81372932D01*
X89159060Y-81288234D01*
X84670828Y-76800004D01*
X86180191Y-76800004D01*
X86199399Y-77056322D01*
X86199399Y-77056324D01*
X86256593Y-77306909D01*
X86256599Y-77306928D01*
X86350503Y-77546191D01*
X86350507Y-77546199D01*
X86479026Y-77768802D01*
X86522778Y-77823667D01*
X87066137Y-77280308D01*
X87127460Y-77246823D01*
X87197151Y-77251807D01*
X87253085Y-77293678D01*
X87258814Y-77302021D01*
X87262708Y-77308220D01*
X87262710Y-77308222D01*
X87391778Y-77437290D01*
X87397982Y-77441188D01*
X87444272Y-77493524D01*
X87454919Y-77562578D01*
X87426543Y-77626425D01*
X87419689Y-77633862D01*
X86876018Y-78177532D01*
X87040095Y-78289397D01*
X87040099Y-78289399D01*
X87271677Y-78400922D01*
X87271681Y-78400923D01*
X87517304Y-78476689D01*
X87517310Y-78476691D01*
X87771471Y-78514999D01*
X87771480Y-78515000D01*
X88028520Y-78515000D01*
X88028528Y-78514999D01*
X88282689Y-78476691D01*
X88282695Y-78476689D01*
X88528320Y-78400923D01*
X88759896Y-78289402D01*
X88759898Y-78289401D01*
X88923980Y-78177532D01*
X88380309Y-77633862D01*
X88346824Y-77572539D01*
X88351808Y-77502848D01*
X88393679Y-77446914D01*
X88402018Y-77441188D01*
X88408222Y-77437290D01*
X88537290Y-77308222D01*
X88541185Y-77302023D01*
X88593516Y-77255730D01*
X88662568Y-77245078D01*
X88726418Y-77273449D01*
X88733862Y-77280309D01*
X89277219Y-77823667D01*
X89277220Y-77823666D01*
X89320966Y-77768812D01*
X89320973Y-77768801D01*
X89449492Y-77546199D01*
X89449496Y-77546191D01*
X89543400Y-77306928D01*
X89543406Y-77306909D01*
X89600600Y-77056324D01*
X89600600Y-77056322D01*
X89619809Y-76800004D01*
X89619809Y-76799995D01*
X89600600Y-76543677D01*
X89600600Y-76543675D01*
X89543406Y-76293090D01*
X89543400Y-76293071D01*
X89449496Y-76053808D01*
X89449492Y-76053800D01*
X89320970Y-75831193D01*
X89277220Y-75776331D01*
X89277219Y-75776331D01*
X88733862Y-76319689D01*
X88672539Y-76353174D01*
X88602847Y-76348190D01*
X88546914Y-76306318D01*
X88541188Y-76297982D01*
X88538102Y-76293071D01*
X88537290Y-76291778D01*
X88408222Y-76162710D01*
X88402017Y-76158811D01*
X88355727Y-76106477D01*
X88345079Y-76037423D01*
X88373454Y-75973575D01*
X88380309Y-75966137D01*
X88923980Y-75422466D01*
X88759905Y-75310602D01*
X88759896Y-75310597D01*
X88528319Y-75199076D01*
X88528321Y-75199076D01*
X88282695Y-75123310D01*
X88282689Y-75123308D01*
X88028528Y-75085000D01*
X87771471Y-75085000D01*
X87517310Y-75123308D01*
X87517304Y-75123310D01*
X87271681Y-75199076D01*
X87271677Y-75199077D01*
X87040096Y-75310601D01*
X87040088Y-75310606D01*
X86876018Y-75422465D01*
X87419690Y-75966137D01*
X87453175Y-76027460D01*
X87448191Y-76097152D01*
X87406319Y-76153085D01*
X87397985Y-76158809D01*
X87391782Y-76162706D01*
X87391777Y-76162710D01*
X87262710Y-76291777D01*
X87262706Y-76291782D01*
X87258809Y-76297985D01*
X87206473Y-76344274D01*
X87137419Y-76354920D01*
X87073571Y-76326542D01*
X87066137Y-76319690D01*
X86522779Y-75776332D01*
X86479023Y-75831201D01*
X86350507Y-76053800D01*
X86350503Y-76053808D01*
X86256599Y-76293071D01*
X86256593Y-76293090D01*
X86199399Y-76543675D01*
X86199399Y-76543677D01*
X86180191Y-76799995D01*
X86180191Y-76800004D01*
X84670828Y-76800004D01*
X83387012Y-75516188D01*
X83383194Y-75512005D01*
X83351489Y-75473908D01*
X83351486Y-75473904D01*
X83287754Y-75416799D01*
X83285312Y-75414488D01*
X83279742Y-75408918D01*
X83274190Y-75403365D01*
X83274191Y-75403367D01*
X83234692Y-75369254D01*
X83143747Y-75287768D01*
X83132471Y-75280308D01*
X83126154Y-75275521D01*
X83120409Y-75270561D01*
X83115933Y-75266695D01*
X83012949Y-75201234D01*
X82911121Y-75133865D01*
X82898882Y-75128128D01*
X82891944Y-75124317D01*
X82880535Y-75117065D01*
X82769066Y-75067272D01*
X82658565Y-75015472D01*
X82658562Y-75015471D01*
X82658560Y-75015470D01*
X82651457Y-75013333D01*
X82645625Y-75011578D01*
X82638211Y-75008820D01*
X82625859Y-75003303D01*
X82625857Y-75003302D01*
X82625854Y-75003301D01*
X82625855Y-75003301D01*
X82508320Y-74970269D01*
X82391462Y-74935112D01*
X82378091Y-74933144D01*
X82370346Y-74931493D01*
X82357331Y-74927835D01*
X82305733Y-74921202D01*
X82236278Y-74912273D01*
X82115506Y-74894500D01*
X82115501Y-74894500D01*
X82101993Y-74894500D01*
X82094079Y-74893993D01*
X82080678Y-74892270D01*
X81958648Y-74894500D01*
X80230357Y-74894500D01*
X80021815Y-74909764D01*
X80021801Y-74909766D01*
X79749562Y-74970409D01*
X79749558Y-74970411D01*
X79489031Y-75070054D01*
X79245795Y-75206565D01*
X79245790Y-75206568D01*
X79025022Y-75377040D01*
X78831428Y-75577839D01*
X78831426Y-75577841D01*
X78669125Y-75804695D01*
X78549472Y-76037423D01*
X78541589Y-76052756D01*
X78523262Y-76106477D01*
X78451529Y-76316744D01*
X78451528Y-76316750D01*
X78400864Y-76591038D01*
X78400864Y-76591040D01*
X78390677Y-76869777D01*
X78421182Y-77147024D01*
X78421183Y-77147033D01*
X78491733Y-77416890D01*
X78583936Y-77633862D01*
X78600826Y-77673606D01*
X78658923Y-77768802D01*
X78746128Y-77911694D01*
X78746129Y-77911695D01*
X78746131Y-77911698D01*
X78924555Y-78126096D01*
X78924562Y-78126102D01*
X79132288Y-78312227D01*
X79132290Y-78312228D01*
X79132293Y-78312231D01*
X79364920Y-78466135D01*
X79617476Y-78584528D01*
X79617478Y-78584528D01*
X79617479Y-78584529D01*
X79617482Y-78584530D01*
X79884571Y-78664886D01*
X79884575Y-78664886D01*
X79884579Y-78664888D01*
X80160535Y-78705500D01*
X81135395Y-78705500D01*
X81202434Y-78725185D01*
X81223076Y-78741819D01*
X85882140Y-83400883D01*
X85915625Y-83462206D01*
X85918459Y-83488564D01*
X85918459Y-93234057D01*
X85918200Y-93239715D01*
X85913680Y-93289059D01*
X85918366Y-93374479D01*
X85918459Y-93377875D01*
X85918459Y-93393602D01*
X85922271Y-93445689D01*
X85928957Y-93567578D01*
X85931653Y-93580820D01*
X85932735Y-93588666D01*
X85933721Y-93602129D01*
X85933722Y-93602139D01*
X85960259Y-93721271D01*
X85984618Y-93840878D01*
X85984621Y-93840888D01*
X85984622Y-93840893D01*
X85989218Y-93853602D01*
X85991430Y-93861206D01*
X85994368Y-93874396D01*
X85994370Y-93874403D01*
X86037981Y-93988429D01*
X86079489Y-94103192D01*
X86079491Y-94103198D01*
X86085883Y-94115091D01*
X86089181Y-94122296D01*
X86094011Y-94134924D01*
X86153760Y-94241386D01*
X86153761Y-94241387D01*
X86175889Y-94282560D01*
X86211540Y-94348892D01*
X86211541Y-94348893D01*
X86219594Y-94359725D01*
X86223909Y-94366377D01*
X86230527Y-94378169D01*
X86230530Y-94378173D01*
X86305116Y-94474763D01*
X86377942Y-94572725D01*
X86377956Y-94572741D01*
X86387506Y-94582290D01*
X86392741Y-94588241D01*
X86400997Y-94598932D01*
X86401008Y-94598945D01*
X86488856Y-94683641D01*
X90573535Y-98768319D01*
X90607020Y-98829642D01*
X90602036Y-98899334D01*
X90560164Y-98955267D01*
X90494700Y-98979684D01*
X90485854Y-98980000D01*
X90166000Y-98980000D01*
X90166000Y-99717698D01*
X90146315Y-99784737D01*
X90093511Y-99830492D01*
X90024355Y-99840436D01*
X89951766Y-99830000D01*
X89951763Y-99830000D01*
X89880237Y-99830000D01*
X89880233Y-99830000D01*
X89807645Y-99840436D01*
X89738487Y-99830492D01*
X89685684Y-99784736D01*
X89666000Y-99717698D01*
X89666000Y-98980000D01*
X89018155Y-98980000D01*
X88958627Y-98986401D01*
X88958620Y-98986403D01*
X88823913Y-99036645D01*
X88823906Y-99036649D01*
X88708812Y-99122809D01*
X88708809Y-99122812D01*
X88622646Y-99237910D01*
X88618837Y-99244886D01*
X88569428Y-99294287D01*
X88501154Y-99309134D01*
X88435692Y-99284713D01*
X88418783Y-99269437D01*
X88385550Y-99233337D01*
X88385545Y-99233333D01*
X88385543Y-99233331D01*
X88191279Y-99082129D01*
X88191270Y-99082123D01*
X87974770Y-98964960D01*
X87974767Y-98964958D01*
X87974764Y-98964957D01*
X87974761Y-98964956D01*
X87974759Y-98964955D01*
X87741920Y-98885021D01*
X87578614Y-98857770D01*
X87499092Y-98844500D01*
X87252908Y-98844500D01*
X87192201Y-98854630D01*
X87010079Y-98885021D01*
X86777240Y-98964955D01*
X86777229Y-98964960D01*
X86560729Y-99082123D01*
X86560720Y-99082129D01*
X86366456Y-99233331D01*
X86366452Y-99233334D01*
X86199715Y-99414458D01*
X86199712Y-99414462D01*
X86065064Y-99620555D01*
X85966172Y-99846007D01*
X85905738Y-100084660D01*
X85885408Y-100329994D01*
X85885408Y-100330005D01*
X85905738Y-100575339D01*
X85966172Y-100813992D01*
X86065064Y-101039444D01*
X86188153Y-101227844D01*
X86199714Y-101245540D01*
X86302020Y-101356674D01*
X86366452Y-101426665D01*
X86366456Y-101426668D01*
X86507162Y-101536184D01*
X86547975Y-101592894D01*
X86555000Y-101634037D01*
X86555000Y-104206000D01*
X86535315Y-104273039D01*
X86482511Y-104318794D01*
X86431000Y-104330000D01*
X86078166Y-104330000D01*
X86011127Y-104310315D01*
X85975861Y-104275314D01*
X85975847Y-104275326D01*
X85975757Y-104275210D01*
X85974356Y-104273820D01*
X85972695Y-104271278D01*
X85972694Y-104271276D01*
X85811570Y-104096249D01*
X85811569Y-104096248D01*
X85811567Y-104096246D01*
X85811563Y-104096243D01*
X85623843Y-103950134D01*
X85623837Y-103950130D01*
X85414611Y-103836902D01*
X85414602Y-103836899D01*
X85189604Y-103759656D01*
X84954949Y-103720500D01*
X84717051Y-103720500D01*
X84482395Y-103759656D01*
X84257397Y-103836899D01*
X84257388Y-103836902D01*
X84048162Y-103950130D01*
X84048156Y-103950134D01*
X83860436Y-104096243D01*
X83860432Y-104096246D01*
X83699307Y-104271274D01*
X83699304Y-104271278D01*
X83569188Y-104470434D01*
X83473625Y-104688297D01*
X83415225Y-104918911D01*
X83415223Y-104918922D01*
X83395580Y-105155993D01*
X83395580Y-105156006D01*
X83415223Y-105393077D01*
X83415225Y-105393088D01*
X83473625Y-105623702D01*
X83569188Y-105841565D01*
X83697114Y-106037369D01*
X83699306Y-106040724D01*
X83756377Y-106102720D01*
X83860432Y-106215753D01*
X83860436Y-106215756D01*
X84048156Y-106361865D01*
X84048162Y-106361869D01*
X84048165Y-106361871D01*
X84257390Y-106475098D01*
X84482398Y-106552344D01*
X84717051Y-106591500D01*
X84954949Y-106591500D01*
X85189602Y-106552344D01*
X85414610Y-106475098D01*
X85623835Y-106361871D01*
X85811570Y-106215751D01*
X85972694Y-106040724D01*
X85974356Y-106038179D01*
X85975305Y-106037369D01*
X85975847Y-106036674D01*
X85975990Y-106036785D01*
X86027502Y-105992822D01*
X86078166Y-105982000D01*
X87420783Y-105982000D01*
X87420789Y-105982000D01*
X87554613Y-105967446D01*
X87677895Y-105925905D01*
X87681050Y-105924937D01*
X87688537Y-105922860D01*
X87688540Y-105922858D01*
X87695746Y-105919987D01*
X87698877Y-105918837D01*
X87724874Y-105910078D01*
X87814088Y-105856399D01*
X87817000Y-105854753D01*
X87825418Y-105850289D01*
X87847274Y-105838703D01*
X87848742Y-105837455D01*
X87865094Y-105825709D01*
X87878822Y-105817451D01*
X87934270Y-105764926D01*
X87936754Y-105762697D01*
X87984209Y-105722390D01*
X87991041Y-105713400D01*
X88004489Y-105698410D01*
X88009258Y-105693894D01*
X88036273Y-105654048D01*
X88038217Y-105651342D01*
X88092938Y-105579359D01*
X88101629Y-105560571D01*
X88106956Y-105551152D01*
X88106930Y-105551138D01*
X88110080Y-105545193D01*
X88110085Y-105545187D01*
X88117776Y-105525881D01*
X88119068Y-105522876D01*
X88168378Y-105416298D01*
X88207000Y-105240833D01*
X88207000Y-101626253D01*
X88226685Y-101559214D01*
X88254834Y-101528403D01*
X88385550Y-101426663D01*
X88418781Y-101390563D01*
X88478665Y-101354575D01*
X88548503Y-101356674D01*
X88606120Y-101396198D01*
X88618839Y-101415117D01*
X88622647Y-101422090D01*
X88708809Y-101537187D01*
X88708812Y-101537190D01*
X88823906Y-101623350D01*
X88823913Y-101623354D01*
X88958620Y-101673596D01*
X88958627Y-101673598D01*
X89018155Y-101679999D01*
X89018172Y-101680000D01*
X89665999Y-101680000D01*
X89666000Y-100942301D01*
X89685685Y-100875262D01*
X89738489Y-100829507D01*
X89807647Y-100819563D01*
X89880237Y-100830000D01*
X89880238Y-100830000D01*
X89951762Y-100830000D01*
X89951763Y-100830000D01*
X90024353Y-100819563D01*
X90093512Y-100829507D01*
X90146315Y-100875262D01*
X90166000Y-100942301D01*
X90166000Y-101680000D01*
X90813828Y-101680000D01*
X90813844Y-101679999D01*
X90873372Y-101673598D01*
X90873379Y-101673596D01*
X91008086Y-101623354D01*
X91008093Y-101623350D01*
X91123187Y-101537190D01*
X91123190Y-101537187D01*
X91209350Y-101422093D01*
X91209354Y-101422086D01*
X91259596Y-101287379D01*
X91259598Y-101287372D01*
X91265999Y-101227844D01*
X91266000Y-101227827D01*
X91266000Y-100580000D01*
X90529347Y-100580000D01*
X90462308Y-100560315D01*
X90416553Y-100507511D01*
X90406609Y-100438353D01*
X90410369Y-100421067D01*
X90416000Y-100401888D01*
X90416000Y-100258111D01*
X90410369Y-100238933D01*
X90410370Y-100169064D01*
X90448145Y-100110286D01*
X90511701Y-100081262D01*
X90529347Y-100080000D01*
X91266000Y-100080000D01*
X91266000Y-99462710D01*
X91285685Y-99395671D01*
X91338489Y-99349916D01*
X91407647Y-99339972D01*
X91423539Y-99343332D01*
X91503910Y-99365920D01*
X91620769Y-99401078D01*
X91634143Y-99403045D01*
X91641883Y-99404695D01*
X91654898Y-99408354D01*
X91775952Y-99423916D01*
X91896725Y-99441690D01*
X91910238Y-99441690D01*
X91918152Y-99442197D01*
X91922598Y-99442768D01*
X91931551Y-99443919D01*
X92053583Y-99441690D01*
X93778751Y-99441690D01*
X93845790Y-99461375D01*
X93891545Y-99514179D01*
X93901966Y-99562081D01*
X93902369Y-99562050D01*
X93902601Y-99565001D01*
X93902751Y-99565690D01*
X93902751Y-99566905D01*
X93907475Y-99626951D01*
X93907477Y-99626976D01*
X93922360Y-99816087D01*
X93966644Y-100000541D01*
X93980711Y-100059136D01*
X93980714Y-100059145D01*
X94076361Y-100290059D01*
X94076365Y-100290066D01*
X94076367Y-100290071D01*
X94206968Y-100503194D01*
X94280415Y-100589189D01*
X94330169Y-100647443D01*
X94330173Y-100647447D01*
X94341576Y-100660798D01*
X94369302Y-100693261D01*
X94415036Y-100732322D01*
X94418598Y-100735614D01*
X95418798Y-101735814D01*
X96371936Y-102688952D01*
X96405421Y-102750275D01*
X96408255Y-102776632D01*
X96408256Y-102891981D01*
X96414338Y-102969282D01*
X96414338Y-102969285D01*
X96414339Y-102969286D01*
X96462516Y-103149083D01*
X96468783Y-103161383D01*
X96547019Y-103314934D01*
X96547021Y-103314936D01*
X96599675Y-103379957D01*
X96664163Y-103459592D01*
X96744543Y-103524683D01*
X96808818Y-103576733D01*
X96808820Y-103576735D01*
X96891745Y-103618986D01*
X96974672Y-103661239D01*
X97154469Y-103709416D01*
X97200851Y-103713066D01*
X97231772Y-103715500D01*
X97231773Y-103715499D01*
X97231774Y-103715500D01*
X97910784Y-103715499D01*
X98595736Y-103715499D01*
X98611196Y-103714282D01*
X98673041Y-103709416D01*
X98852838Y-103661239D01*
X98978015Y-103597458D01*
X99018689Y-103576735D01*
X99018691Y-103576733D01*
X99021368Y-103574565D01*
X99163347Y-103459592D01*
X99280489Y-103314935D01*
X99317404Y-103242483D01*
X99365376Y-103191689D01*
X99433196Y-103174893D01*
X99499332Y-103197429D01*
X99517411Y-103212979D01*
X99545359Y-103242139D01*
X99545359Y-103242140D01*
X99732852Y-103380810D01*
X99941093Y-103485803D01*
X100164085Y-103554093D01*
X100164083Y-103554093D01*
X100203754Y-103559173D01*
X100203755Y-103559173D01*
X100203755Y-102693615D01*
X100223440Y-102626576D01*
X100276244Y-102580821D01*
X100343938Y-102570676D01*
X100414758Y-102580000D01*
X100414765Y-102580000D01*
X100492745Y-102580000D01*
X100492752Y-102580000D01*
X100563571Y-102570676D01*
X100632604Y-102581441D01*
X100684860Y-102627820D01*
X100703755Y-102693615D01*
X100703755Y-103557574D01*
X100856373Y-103524683D01*
X100856374Y-103524683D01*
X101072760Y-103437732D01*
X101271347Y-103315458D01*
X101446409Y-103161383D01*
X101543864Y-103040688D01*
X101601295Y-103000895D01*
X101671122Y-102998468D01*
X101731177Y-103034178D01*
X101745144Y-103052313D01*
X101786277Y-103117360D01*
X101947463Y-103299301D01*
X102122178Y-103441951D01*
X102161658Y-103499597D01*
X102167755Y-103538002D01*
X102167755Y-104206000D01*
X102148070Y-104273039D01*
X102095266Y-104318794D01*
X102043755Y-104330000D01*
X93698166Y-104330000D01*
X93631127Y-104310315D01*
X93595861Y-104275314D01*
X93595847Y-104275326D01*
X93595757Y-104275210D01*
X93594356Y-104273820D01*
X93592695Y-104271278D01*
X93592694Y-104271276D01*
X93431570Y-104096249D01*
X93431569Y-104096248D01*
X93431567Y-104096246D01*
X93431563Y-104096243D01*
X93243843Y-103950134D01*
X93243837Y-103950130D01*
X93034611Y-103836902D01*
X93034602Y-103836899D01*
X92809604Y-103759656D01*
X92574949Y-103720500D01*
X92337051Y-103720500D01*
X92102395Y-103759656D01*
X91877397Y-103836899D01*
X91877388Y-103836902D01*
X91668162Y-103950130D01*
X91668156Y-103950134D01*
X91480436Y-104096243D01*
X91480432Y-104096246D01*
X91319307Y-104271274D01*
X91319304Y-104271278D01*
X91189188Y-104470434D01*
X91093625Y-104688297D01*
X91035225Y-104918911D01*
X91035223Y-104918922D01*
X91015580Y-105155993D01*
X91015580Y-105156006D01*
X91035223Y-105393077D01*
X91035225Y-105393088D01*
X91093625Y-105623702D01*
X91189188Y-105841565D01*
X91317114Y-106037369D01*
X91319306Y-106040724D01*
X91376377Y-106102720D01*
X91480432Y-106215753D01*
X91480436Y-106215756D01*
X91668156Y-106361865D01*
X91668162Y-106361869D01*
X91668165Y-106361871D01*
X91877390Y-106475098D01*
X92102398Y-106552344D01*
X92337051Y-106591500D01*
X92574949Y-106591500D01*
X92809602Y-106552344D01*
X93034610Y-106475098D01*
X93243835Y-106361871D01*
X93431570Y-106215751D01*
X93592694Y-106040724D01*
X93594356Y-106038179D01*
X93595305Y-106037369D01*
X93595847Y-106036674D01*
X93595990Y-106036785D01*
X93647502Y-105992822D01*
X93698166Y-105982000D01*
X96576160Y-105982000D01*
X96643199Y-106001685D01*
X96688954Y-106054489D01*
X96698898Y-106123647D01*
X96669873Y-106187203D01*
X96663841Y-106193681D01*
X96564126Y-106293395D01*
X96564110Y-106293413D01*
X96402516Y-106509279D01*
X96402511Y-106509287D01*
X96273282Y-106745952D01*
X96273280Y-106745956D01*
X96179041Y-106998623D01*
X96121722Y-107262110D01*
X96102485Y-107531088D01*
X96102485Y-107531091D01*
X96121722Y-107800069D01*
X96179041Y-108063556D01*
X96179043Y-108063563D01*
X96237553Y-108220435D01*
X96273280Y-108316223D01*
X96273282Y-108316227D01*
X96402511Y-108552892D01*
X96402516Y-108552900D01*
X96564110Y-108768766D01*
X96564126Y-108768784D01*
X96583161Y-108787819D01*
X96616646Y-108849142D01*
X96611662Y-108918834D01*
X96569790Y-108974767D01*
X96504326Y-108999184D01*
X96495480Y-108999500D01*
X83124000Y-108999500D01*
X83056961Y-108979815D01*
X83011206Y-108927011D01*
X83000000Y-108875500D01*
X83000000Y-82999999D01*
X77540589Y-78036899D01*
X77504225Y-77977238D01*
X77500000Y-77945146D01*
X77500000Y-73624000D01*
X77519685Y-73556961D01*
X77572489Y-73511206D01*
X77624000Y-73500000D01*
X92622510Y-73500000D01*
X92689549Y-73519685D01*
G37*
%TD.AperFunction*%
%TD*%
M02*
